<svg xmlns="http://www.w3.org/2000/svg" width="1200" height="630" viewBox="0 0 1200 630">
  <defs>
    <linearGradient id="bg" x1="0%" y1="0%" x2="100%" y2="100%">
      <stop offset="0%" stop-color="#080d1c"/>
      <stop offset="100%" stop-color="#0d1117"/>
    </linearGradient>
    <linearGradient id="accent" x1="0%" y1="0%" x2="100%" y2="0%">
      <stop offset="0%" stop-color="#6366f1"/>
      <stop offset="50%" stop-color="#8b5cf6"/>
      <stop offset="100%" stop-color="#06b6d4"/>
    </linearGradient>
    <linearGradient id="titleGrad" x1="0%" y1="0%" x2="100%" y2="100%">
      <stop offset="0%" stop-color="#818cf8"/>
      <stop offset="100%" stop-color="#06b6d4"/>
    </linearGradient>
    <linearGradient id="shieldGrad" x1="0%" y1="0%" x2="100%" y2="100%">
      <stop offset="0%" stop-color="#8b5cf6"/>
      <stop offset="100%" stop-color="#6366f1"/>
    </linearGradient>
    <filter id="glow">
      <feGaussianBlur stdDeviation="20" result="coloredBlur"/>
      <feMerge><feMergeNode in="coloredBlur"/><feMergeNode in="SourceGraphic"/></feMerge>
    </filter>
    <filter id="softGlow">
      <feGaussianBlur stdDeviation="40" result="blur"/>
      <feMerge><feMergeNode in="blur"/><feMergeNode in="SourceGraphic"/></feMerge>
    </filter>
  </defs>

  <!-- Background -->
  <rect width="1200" height="630" fill="url(#bg)"/>

  <!-- Decorative gradient orbs -->
  <circle cx="950" cy="180" r="200" fill="#8b5cf6" opacity="0.05" filter="url(#softGlow)"/>
  <circle cx="180" cy="480" r="150" fill="#06b6d4" opacity="0.04" filter="url(#softGlow)"/>
  <circle cx="1100" cy="500" r="100" fill="#6366f1" opacity="0.04" filter="url(#softGlow)"/>

  <!-- Top accent bar -->
  <rect x="0" y="0" width="1200" height="4" fill="url(#accent)"/>

  <!-- Privacy shield visualization (decorative, right side) -->
  <!-- Shield outline -->
  <path d="M980 160 L1060 195 L1060 310 Q1060 380 980 420 Q900 380 900 310 L900 195 Z" fill="none" stroke="#8b5cf640" stroke-width="2"/>
  <path d="M980 180 L1045 210 L1045 305 Q1045 365 980 400 Q915 365 915 305 L915 210 Z" fill="#8b5cf608" stroke="#8b5cf630" stroke-width="1"/>

  <!-- Lock icon inside shield -->
  <rect x="960" y="270" width="40" height="35" rx="4" fill="none" stroke="#818cf880" stroke-width="2"/>
  <path d="M968 270 L968 255 Q968 240 980 240 Q992 240 992 255 L992 270" fill="none" stroke="#818cf880" stroke-width="2"/>
  <circle cx="980" cy="285" r="4" fill="#818cf8" opacity="0.6"/>
  <line x1="980" y1="289" x2="980" y2="296" stroke="#818cf880" stroke-width="2"/>

  <!-- ZK proof lines radiating from shield -->
  <line x1="900" y1="260" x2="840" y2="230" stroke="#6366f125" stroke-width="1" stroke-dasharray="4,4"/>
  <circle cx="830" cy="225" r="10" fill="#6366f110" stroke="#6366f130" stroke-width="1"/>
  <text x="830" y="229" text-anchor="middle" fill="#818cf860" font-family="Inter, system-ui, sans-serif" font-size="7" font-weight="600">ZK</text>

  <line x1="1060" y1="260" x2="1120" y2="230" stroke="#06b6d425" stroke-width="1" stroke-dasharray="4,4"/>
  <circle cx="1130" cy="225" r="10" fill="#06b6d410" stroke="#06b6d430" stroke-width="1"/>
  <text x="1130" y="229" text-anchor="middle" fill="#22d3ee60" font-family="Inter, system-ui, sans-serif" font-size="7" font-weight="600">PXE</text>

  <line x1="900" y1="340" x2="830" y2="370" stroke="#8b5cf625" stroke-width="1" stroke-dasharray="4,4"/>
  <circle cx="820" cy="375" r="10" fill="#8b5cf610" stroke="#8b5cf630" stroke-width="1"/>
  <text x="820" y="379" text-anchor="middle" fill="#a78bfa60" font-family="Inter, system-ui, sans-serif" font-size="7" font-weight="600">L2</text>

  <line x1="1060" y1="340" x2="1130" y2="370" stroke="#6366f125" stroke-width="1" stroke-dasharray="4,4"/>
  <circle cx="1140" cy="375" r="10" fill="#6366f110" stroke="#6366f130" stroke-width="1"/>
  <text x="1140" y="379" text-anchor="middle" fill="#818cf860" font-family="Inter, system-ui, sans-serif" font-size="7" font-weight="600">ETH</text>

  <!-- degen0x logo placeholder -->
  <circle cx="60" cy="48" r="16" fill="none" stroke="url(#shieldGrad)" stroke-width="2"/>
  <text x="60" y="53" text-anchor="middle" fill="#818cf8" font-family="Inter, system-ui, sans-serif" font-size="11" font-weight="800">0x</text>
  <text x="88" y="53" fill="#8b949e" font-family="Inter, system-ui, sans-serif" font-size="14" font-weight="600">degen0x</text>

  <!-- Category badge -->
  <rect x="48" y="100" width="70" height="26" rx="13" fill="#8b5cf615" stroke="#8b5cf640" stroke-width="1"/>
  <text x="83" y="117" text-anchor="middle" fill="#a78bfa" font-family="Inter, system-ui, sans-serif" font-size="11" font-weight="600">Privacy</text>

  <rect x="126" y="100" width="60" height="26" rx="13" fill="#06b6d415" stroke="#06b6d440" stroke-width="1"/>
  <text x="156" y="117" text-anchor="middle" fill="#22d3ee" font-family="Inter, system-ui, sans-serif" font-size="11" font-weight="600">Learn</text>

  <!-- Title -->
  <text x="48" y="178" fill="url(#titleGrad)" font-family="Inter, system-ui, sans-serif" font-size="40" font-weight="800" letter-spacing="-0.02em">Aztec Network</text>
  <text x="48" y="225" fill="#e6edf3" font-family="Inter, system-ui, sans-serif" font-size="32" font-weight="700" letter-spacing="-0.01em">The Privacy-First zkRollup</text>
  <text x="48" y="265" fill="#e6edf3" font-family="Inter, system-ui, sans-serif" font-size="32" font-weight="700" letter-spacing="-0.01em">on Ethereum</text>

  <!-- Subtitle -->
  <text x="48" y="305" fill="#8b949e" font-family="Inter, system-ui, sans-serif" font-size="16" font-weight="400">Programmable privacy · Noir smart contracts · Ignition Chain live Nov 2025</text>

  <!-- Stat cards row -->
  <!-- Card 1: Sequencers -->
  <rect x="48" y="345" width="170" height="75" rx="12" fill="rgba(255,255,255,0.04)" stroke="rgba(255,255,255,0.08)" stroke-width="1"/>
  <text x="68" y="372" fill="#8b949e" font-family="Inter, system-ui, sans-serif" font-size="11" font-weight="500">Sequencers</text>
  <text x="68" y="400" fill="#e6edf3" font-family="Inter, system-ui, sans-serif" font-size="24" font-weight="800">3,500+</text>

  <!-- Card 2: Pre-Sale Raised -->
  <rect x="230" y="345" width="170" height="75" rx="12" fill="rgba(255,255,255,0.04)" stroke="rgba(255,255,255,0.08)" stroke-width="1"/>
  <text x="250" y="372" fill="#8b949e" font-family="Inter, system-ui, sans-serif" font-size="11" font-weight="500">Pre-Sale Raised</text>
  <text x="250" y="400" fill="#e6edf3" font-family="Inter, system-ui, sans-serif" font-size="24" font-weight="800">19,476 ETH</text>

  <!-- Card 3: Token FDV -->
  <rect x="412" y="345" width="170" height="75" rx="12" fill="rgba(255,255,255,0.04)" stroke="rgba(255,255,255,0.08)" stroke-width="1"/>
  <text x="432" y="372" fill="#8b949e" font-family="Inter, system-ui, sans-serif" font-size="11" font-weight="500">Token Sale FDV</text>
  <text x="432" y="400" fill="#e6edf3" font-family="Inter, system-ui, sans-serif" font-size="24" font-weight="800">$350M</text>

  <!-- Card 4: Max Supply -->
  <rect x="594" y="345" width="170" height="75" rx="12" fill="rgba(255,255,255,0.04)" stroke="rgba(255,255,255,0.08)" stroke-width="1"/>
  <text x="614" y="372" fill="#8b949e" font-family="Inter, system-ui, sans-serif" font-size="11" font-weight="500">Max Supply</text>
  <text x="614" y="400" fill="#e6edf3" font-family="Inter, system-ui, sans-serif" font-size="24" font-weight="800">10.35B</text>

  <!-- Flow diagram: PXE → ZK Proof → Network → Ethereum -->
  <rect x="48" y="445" width="120" height="36" rx="8" fill="#8b5cf615" stroke="#8b5cf640" stroke-width="1"/>
  <text x="108" y="468" text-anchor="middle" fill="#a78bfa" font-family="Inter, system-ui, sans-serif" font-size="12" font-weight="600">PXE (Browser)</text>

  <text x="180" y="468" fill="#6e768180" font-family="Inter, system-ui, sans-serif" font-size="16">→</text>

  <rect x="196" y="445" width="110" height="36" rx="8" fill="#6366f115" stroke="#6366f140" stroke-width="1"/>
  <text x="251" y="468" text-anchor="middle" fill="#818cf8" font-family="Inter, system-ui, sans-serif" font-size="12" font-weight="600">ZK Proof</text>

  <text x="318" y="468" fill="#6e768180" font-family="Inter, system-ui, sans-serif" font-size="16">→</text>

  <rect x="334" y="445" width="130" height="36" rx="8" fill="#06b6d415" stroke="#06b6d440" stroke-width="1"/>
  <text x="399" y="468" text-anchor="middle" fill="#22d3ee" font-family="Inter, system-ui, sans-serif" font-size="12" font-weight="600">Ignition Chain</text>

  <text x="476" y="468" fill="#6e768180" font-family="Inter, system-ui, sans-serif" font-size="16">→</text>

  <rect x="492" y="445" width="110" height="36" rx="8" fill="#22c55e15" stroke="#22c55e40" stroke-width="1"/>
  <text x="547" y="468" text-anchor="middle" fill="#22c55e" font-family="Inter, system-ui, sans-serif" font-size="12" font-weight="600">Ethereum L1</text>

  <!-- Topic pills -->
  <rect x="48" y="505" width="140" height="28" rx="14" fill="rgba(255,255,255,0.03)" stroke="rgba(255,255,255,0.06)" stroke-width="1"/>
  <text x="118" y="523" text-anchor="middle" fill="#8b949e" font-family="Inter, system-ui, sans-serif" font-size="11" font-weight="500">Noir Language</text>

  <rect x="198" y="505" width="145" height="28" rx="14" fill="rgba(255,255,255,0.03)" stroke="rgba(255,255,255,0.06)" stroke-width="1"/>
  <text x="270" y="523" text-anchor="middle" fill="#8b949e" font-family="Inter, system-ui, sans-serif" font-size="11" font-weight="500">Dual State Model</text>

  <rect x="353" y="505" width="130" height="28" rx="14" fill="rgba(255,255,255,0.03)" stroke="rgba(255,255,255,0.06)" stroke-width="1"/>
  <text x="418" y="523" text-anchor="middle" fill="#8b949e" font-family="Inter, system-ui, sans-serif" font-size="11" font-weight="500">AZTEC Token</text>

  <rect x="493" y="505" width="110" height="28" rx="14" fill="rgba(255,255,255,0.03)" stroke="rgba(255,255,255,0.06)" stroke-width="1"/>
  <text x="548" y="523" text-anchor="middle" fill="#8b949e" font-family="Inter, system-ui, sans-serif" font-size="11" font-weight="500">TGE Feb 2026</text>

  <!-- Bottom bar -->
  <rect x="0" y="575" width="1200" height="55" fill="rgba(0,0,0,0.3)"/>
  <rect x="0" y="575" width="1200" height="1" fill="rgba(255,255,255,0.06)"/>
  <text x="48" y="607" fill="#6e7681" font-family="Inter, system-ui, sans-serif" font-size="14" font-weight="500">degen0x.com</text>
  <text x="1152" y="607" text-anchor="end" fill="#6e7681" font-family="Inter, system-ui, sans-serif" font-size="12" font-weight="400">Complete Guide · March 2026</text>

  <!-- Bottom accent bar -->
  <rect x="0" y="626" width="1200" height="4" fill="url(#accent)"/>
</svg>
