<svg viewBox="0 0 1200 630" xmlns="http://www.w3.org/2000/svg" width="1200" height="630">
  <!-- Dark background -->
  <rect width="1200" height="630" fill="#080d1c"/>

  <!-- Gradient accent bar at top -->
  <defs>
    <linearGradient id="accentGradient" x1="0%" y1="0%" x2="100%" y2="100%">
      <stop offset="0%" style="stop-color:#4f46e5;stop-opacity:1" />
      <stop offset="50%" style="stop-color:#0891b2;stop-opacity:1" />
      <stop offset="100%" style="stop-color:#d97706;stop-opacity:1" />
    </linearGradient>
    <linearGradient id="glassGradient" x1="0%" y1="0%" x2="100%" y2="100%">
      <stop offset="0%" style="stop-color:#4f46e5;stop-opacity:0.15" />
      <stop offset="100%" style="stop-color:#0891b2;stop-opacity:0.05" />
    </linearGradient>
    <filter id="glow">
      <feGaussianBlur stdDeviation="2" result="coloredBlur"/>
      <feMerge>
        <feMergeNode in="coloredBlur"/>
        <feMergeNode in="SourceGraphic"/>
      </feMerge>
    </filter>
  </defs>

  <!-- Accent bar -->
  <rect width="1200" height="6" fill="url(#accentGradient)"/>

  <!-- Decorative gradient circles background -->
  <circle cx="150" cy="200" r="120" fill="#4f46e5" opacity="0.08"/>
  <circle cx="1050" cy="450" r="140" fill="#0891b2" opacity="0.08"/>
  <circle cx="950" cy="150" r="100" fill="#d97706" opacity="0.06"/>

  <!-- Glass-morphism container -->
  <rect x="50" y="60" width="1100" height="520" rx="16" fill="url(#glassGradient)"
        stroke="rgba(255,255,255,0.1)" stroke-width="1"/>

  <!-- degen0x logo text -->
  <text x="80" y="115" font-family="Inter, sans-serif" font-size="20" font-weight="700" fill="#8b949e" letter-spacing="2">
    degen0x
  </text>

  <!-- Title -->
  <text x="80" y="220" font-family="Inter, sans-serif" font-size="56" font-weight="800" fill="white" letter-spacing="-1.5">
    Strategy Backtesting
  </text>
  <text x="80" y="280" font-family="Inter, sans-serif" font-size="56" font-weight="800" fill="white" letter-spacing="-1.5">
    Engine
  </text>

  <!-- Subtitle -->
  <text x="80" y="330" font-family="Inter, sans-serif" font-size="18" font-weight="400" fill="#8b949e">
    Test your crypto trading strategies on historical data
  </text>

  <!-- Decorative timeline with data points -->
  <g filter="url(#glow)">
    <!-- Timeline line -->
    <line x1="750" y1="380" x2="1080" y2="380" stroke="url(#accentGradient)" stroke-width="2" opacity="0.6"/>

    <!-- Data points -->
    <circle cx="800" cy="380" r="6" fill="#4f46e5"/>
    <circle cx="870" cy="380" r="6" fill="#0891b2"/>
    <circle cx="940" cy="380" r="6" fill="#d97706"/>
    <circle cx="1010" cy="380" r="8" fill="#10b981"/>
    <circle cx="1080" cy="380" r="7" fill="#4f46e5"/>

    <!-- Performance curve -->
    <path d="M 750 420 Q 800 400 850 390 Q 900 380 950 385 Q 1000 390 1050 370 Q 1080 360 1100 350"
          stroke="url(#accentGradient)" stroke-width="2.5" fill="none" opacity="0.8"/>

    <!-- Curve fill area -->
    <path d="M 750 420 Q 800 400 850 390 Q 900 380 950 385 Q 1000 390 1050 370 Q 1080 360 1100 350 L 1100 450 Q 1050 460 1000 470 Q 950 465 900 480 Q 850 460 800 470 Q 750 475 750 420 Z"
          fill="url(#accentGradient)" opacity="0.1"/>
  </g>

  <!-- Vertical accent lines -->
  <line x1="700" y1="60" x2="700" y2="580" stroke="rgba(79, 70, 229, 0.1)" stroke-width="1"/>

  <!-- Footer -->
  <text x="80" y="595" font-family="Inter, sans-serif" font-size="14" font-weight="500" fill="#475569">
    degen0x.com
  </text>
</svg>