<svg viewBox="0 0 1200 630" xmlns="http://www.w3.org/2000/svg">
  <defs>
    <linearGradient id="bgGradient" x1="0%" y1="0%" x2="100%" y2="100%">
      <stop offset="0%" style="stop-color:#080d1c;stop-opacity:1" />
      <stop offset="100%" style="stop-color:#0f1629;stop-opacity:1" />
    </linearGradient>
    <linearGradient id="accentGradient" x1="0%" y1="0%" x2="100%" y2="0%">
      <stop offset="0%" style="stop-color:#4f46e5;stop-opacity:1" />
      <stop offset="50%" style="stop-color:#0891b2;stop-opacity:1" />
      <stop offset="100%" style="stop-color:#d97706;stop-opacity:1" />
    </linearGradient>
    <linearGradient id="titleGradient" x1="0%" y1="0%" x2="100%" y2="0%">
      <stop offset="0%" style="stop-color:#ffffff;stop-opacity:1" />
      <stop offset="100%" style="stop-color:#e0e6ed;stop-opacity:1" />
    </linearGradient>
    <filter id="glow" x="-50%" y="-50%" width="200%" height="200%">
      <feGaussianBlur stdDeviation="3" result="coloredBlur"/>
      <feMerge><feMergeNode in="coloredBlur"/><feMergeNode in="SourceGraphic"/></feMerge>
    </filter>
  </defs>
  <rect width="1200" height="630" fill="url(#bgGradient)"/>
  <rect width="1200" height="4" fill="url(#accentGradient)"/>
  <circle cx="180" cy="120" r="85" fill="#4f46e5" opacity="0.08" filter="url(#glow)"/>
  <circle cx="1020" cy="480" r="110" fill="#0891b2" opacity="0.06" filter="url(#glow)"/>
  <rect x="60" y="60" width="150" height="40" rx="20" fill="#06b6d4" opacity="0.15" stroke="#06b6d4" stroke-width="2"/>
  <text x="135" y="87" font-family="system-ui, sans-serif" font-size="14" font-weight="bold" fill="#06b6d4" text-anchor="middle">STAKING</text>
  <text x="60" y="160" font-family="system-ui, sans-serif" font-size="48" font-weight="bold" fill="url(#titleGradient)">Crypto Staking Guide 2026</text>
  <text x="60" y="210" font-family="system-ui, sans-serif" font-size="20" fill="#8b949e">Earn passive income with proof-of-stake networks</text>
  <g>
    <rect x="750" y="80" width="400" height="400" rx="12" fill="#0a1427" opacity="0.5" stroke="#1e293b" stroke-width="1"/>
    <circle cx="820" cy="180" r="35" fill="#10b981" opacity="0.85"/>
    <circle cx="860" cy="140" r="35" fill="#10b981" opacity="0.75"/>
    <circle cx="900" cy="180" r="35" fill="#10b981" opacity="0.85"/>
    <circle cx="820" cy="260" r="35" fill="#10b981" opacity="0.8"/>
    <circle cx="860" cy="220" r="35" fill="#10b981" opacity="0.9"/>
    <circle cx="900" cy="260" r="35" fill="#10b981" opacity="0.8"/>
    <circle cx="940" cy="220" r="35" fill="#10b981" opacity="0.75"/>
    <circle cx="980" cy="180" r="35" fill="#10b981" opacity="0.85"/>
    <path d="M 810 300 L 850 320 L 890 310 L 930 330 L 970 320 L 1010 340" stroke="#06b6d4" stroke-width="2" fill="none" opacity="0.6"/>
    <text x="900" y="400" font-family="system-ui, sans-serif" font-size="14" fill="#06b6d4" text-anchor="middle">Stacking Rewards</text>
  </g>
  <rect y="600" width="1200" height="30" fill="#0a1427" opacity="0.6"/>
  <circle cx="60" cy="615" r="10" fill="#6366f1"/>
  <text x="75" y="621" font-family="system-ui, sans-serif" font-size="13" fill="#8b949e">degen0x.com</text>
</svg>