<svg xmlns="http://www.w3.org/2000/svg" width="1200" height="630" viewBox="0 0 1200 630">
  <defs>
    <linearGradient id="bg" x1="0" y1="0" x2="1" y2="1">
      <stop offset="0%" stop-color="#080d1c"/>
      <stop offset="100%" stop-color="#0d1425"/>
    </linearGradient>
    <linearGradient id="accent" x1="0" y1="0" x2="1" y2="0">
      <stop offset="0%" stop-color="#6366f1"/>
      <stop offset="50%" stop-color="#06b6d4"/>
      <stop offset="100%" stop-color="#d97706"/>
    </linearGradient>
    <linearGradient id="titleGrad" x1="0" y1="0" x2="1" y2="0">
      <stop offset="0%" stop-color="#6366f1"/>
      <stop offset="100%" stop-color="#06b6d4"/>
    </linearGradient>
    <linearGradient id="chartGreen" x1="0" y1="1" x2="0" y2="0">
      <stop offset="0%" stop-color="#22c55e" stop-opacity="0"/>
      <stop offset="100%" stop-color="#22c55e" stop-opacity="0.3"/>
    </linearGradient>
  </defs>

  <!-- Background -->
  <rect width="1200" height="630" fill="url(#bg)"/>

  <!-- Top accent bar -->
  <rect x="0" y="0" width="1200" height="4" fill="url(#accent)"/>

  <!-- Subtle decorative circles -->
  <circle cx="1050" cy="120" r="180" fill="#6366f1" opacity="0.04"/>
  <circle cx="150" cy="500" r="140" fill="#06b6d4" opacity="0.03"/>
  <circle cx="900" cy="450" r="120" fill="#d97706" opacity="0.03"/>

  <!-- Logo area -->
  <text x="60" y="60" font-family="Inter, system-ui, sans-serif" font-size="16" font-weight="700" fill="#818cf8" letter-spacing="0.05em">degen0x</text>
  <text x="60" y="80" font-family="Inter, system-ui, sans-serif" font-size="12" fill="#6e7681">degen0x.com</text>

  <!-- Category badges -->
  <rect x="60" y="110" width="82" height="26" rx="6" fill="#6366f120" stroke="#6366f140" stroke-width="1"/>
  <text x="101" y="128" font-family="Inter, system-ui, sans-serif" font-size="12" font-weight="600" fill="#818cf8" text-anchor="middle">Investing</text>
  <rect x="152" y="110" width="80" height="26" rx="6" fill="#d2992220" stroke="#d2992240" stroke-width="1"/>
  <text x="192" y="128" font-family="Inter, system-ui, sans-serif" font-size="12" font-weight="600" fill="#d29922" text-anchor="middle">Beginner</text>

  <!-- Title -->
  <text x="60" y="190" font-family="Inter, system-ui, sans-serif" font-size="42" font-weight="800" fill="url(#titleGrad)">Crypto DCA Strategy</text>
  <text x="60" y="242" font-family="Inter, system-ui, sans-serif" font-size="42" font-weight="800" fill="url(#titleGrad)">Guide 2026</text>

  <!-- Subtitle -->
  <text x="60" y="285" font-family="Inter, system-ui, sans-serif" font-size="18" fill="#8b949e">Dollar-cost average Bitcoin &amp; altcoins with backtested data</text>

  <!-- Stats cards row -->
  <!-- Card 1: Returns -->
  <rect x="60" y="320" width="220" height="100" rx="12" fill="rgba(255,255,255,0.04)" stroke="rgba(255,255,255,0.08)" stroke-width="1"/>
  <text x="80" y="352" font-family="Inter, system-ui, sans-serif" font-size="12" fill="#8b949e">BTC DCA Return (2019-2024)</text>
  <text x="80" y="392" font-family="Inter, system-ui, sans-serif" font-size="36" font-weight="800" fill="#3fb950">+202%</text>

  <!-- Card 2: Monday Effect -->
  <rect x="300" y="320" width="220" height="100" rx="12" fill="rgba(255,255,255,0.04)" stroke="rgba(255,255,255,0.08)" stroke-width="1"/>
  <text x="320" y="352" font-family="Inter, system-ui, sans-serif" font-size="12" fill="#8b949e">Monday DCA Advantage</text>
  <text x="320" y="392" font-family="Inter, system-ui, sans-serif" font-size="36" font-weight="800" fill="#06b6d4">+14.4%</text>

  <!-- Card 3: Fear-Based -->
  <rect x="540" y="320" width="220" height="100" rx="12" fill="rgba(255,255,255,0.04)" stroke="rgba(255,255,255,0.08)" stroke-width="1"/>
  <text x="560" y="352" font-family="Inter, system-ui, sans-serif" font-size="12" fill="#8b949e">Fear-Based DCA Return</text>
  <text x="560" y="392" font-family="Inter, system-ui, sans-serif" font-size="36" font-weight="800" fill="#f59e0b">1,145%</text>

  <!-- DCA Chart illustration (right side) -->
  <rect x="810" y="320" width="340" height="200" rx="12" fill="rgba(255,255,255,0.03)" stroke="rgba(255,255,255,0.06)" stroke-width="1"/>
  <text x="830" y="348" font-family="Inter, system-ui, sans-serif" font-size="11" fill="#6e7681">DCA ACCUMULATION OVER TIME</text>

  <!-- Chart grid lines -->
  <line x1="830" y1="370" x2="1130" y2="370" stroke="#30363d" stroke-width="0.5"/>
  <line x1="830" y1="410" x2="1130" y2="410" stroke="#30363d" stroke-width="0.5"/>
  <line x1="830" y1="450" x2="1130" y2="450" stroke="#30363d" stroke-width="0.5"/>
  <line x1="830" y1="490" x2="1130" y2="490" stroke="#30363d" stroke-width="0.5"/>

  <!-- Area fill under chart -->
  <path d="M830,490 L860,485 L890,475 L920,478 L950,460 L980,440 L1010,445 L1040,420 L1070,395 L1100,380 L1130,370 L1130,500 L830,500 Z" fill="url(#chartGreen)"/>

  <!-- Chart line (upward trend with dips) -->
  <path d="M830,490 L860,485 L890,475 L920,478 L950,460 L980,440 L1010,445 L1040,420 L1070,395 L1100,380 L1130,370" fill="none" stroke="#22c55e" stroke-width="2.5" stroke-linecap="round" stroke-linejoin="round"/>

  <!-- DCA buy markers -->
  <circle cx="860" cy="485" r="3" fill="#6366f1"/>
  <circle cx="920" cy="478" r="3" fill="#6366f1"/>
  <circle cx="980" cy="440" r="3" fill="#6366f1"/>
  <circle cx="1040" cy="420" r="3" fill="#6366f1"/>
  <circle cx="1100" cy="380" r="3" fill="#6366f1"/>

  <!-- Chart legend -->
  <circle cx="840" cy="508" r="3" fill="#22c55e"/>
  <text x="850" y="512" font-family="Inter, system-ui, sans-serif" font-size="10" fill="#8b949e">Portfolio value</text>
  <circle cx="960" cy="508" r="3" fill="#6366f1"/>
  <text x="970" y="512" font-family="Inter, system-ui, sans-serif" font-size="10" fill="#8b949e">DCA buy points</text>

  <!-- Bottom bar -->
  <rect x="60" y="460" width="700" height="80" rx="12" fill="rgba(255,255,255,0.03)" stroke="rgba(255,255,255,0.06)" stroke-width="1"/>
  <text x="80" y="490" font-family="Inter, system-ui, sans-serif" font-size="13" fill="#8b949e">Covers: Optimal frequency · DCA vs lump sum · Fear-based DCA · Portfolio allocation · Platform comparison</text>
  <text x="80" y="520" font-family="Inter, system-ui, sans-serif" font-size="13" fill="#58a6ff">+ Free DCA Calculator with 50+ tokens →</text>

  <!-- Bottom branding -->
  <rect x="0" y="586" width="1200" height="44" fill="rgba(0,0,0,0.3)"/>
  <text x="60" y="614" font-family="Inter, system-ui, sans-serif" font-size="14" font-weight="600" fill="#818cf8">degen0x.com</text>
  <text x="1140" y="614" font-family="Inter, system-ui, sans-serif" font-size="12" fill="#6e7681" text-anchor="end">Updated March 2026</text>
</svg>
