<svg width="1200" height="630" viewBox="0 0 1200 630" fill="none" xmlns="http://www.w3.org/2000/svg">
  <defs>
    <linearGradient id="bg" x1="0" y1="0" x2="1200" y2="630" gradientUnits="userSpaceOnUse">
      <stop offset="0%" stop-color="#080d1c"/>
      <stop offset="100%" stop-color="#0d1520"/>
    </linearGradient>
    <linearGradient id="accent" x1="0" y1="0" x2="1200" y2="0" gradientUnits="userSpaceOnUse">
      <stop offset="0%" stop-color="#4f46e5"/>
      <stop offset="50%" stop-color="#0891b2"/>
      <stop offset="100%" stop-color="#d97706"/>
    </linearGradient>
    <linearGradient id="titleGrad" x1="0" y1="0" x2="600" y2="0" gradientUnits="userSpaceOnUse">
      <stop offset="0%" stop-color="#818cf8"/>
      <stop offset="100%" stop-color="#06b6d4"/>
    </linearGradient>
    <linearGradient id="gpuGlow" x1="900" y1="150" x2="1100" y2="450" gradientUnits="userSpaceOnUse">
      <stop offset="0%" stop-color="#6366f1" stop-opacity="0.15"/>
      <stop offset="100%" stop-color="#06b6d4" stop-opacity="0.05"/>
    </linearGradient>
  </defs>

  <!-- Background -->
  <rect width="1200" height="630" fill="url(#bg)"/>

  <!-- Top accent bar -->
  <rect x="0" y="0" width="1200" height="4" fill="url(#accent)"/>

  <!-- Decorative circles -->
  <circle cx="1050" cy="120" r="180" fill="#6366f1" opacity="0.04"/>
  <circle cx="950" cy="400" r="140" fill="#06b6d4" opacity="0.04"/>
  <circle cx="150" cy="520" r="100" fill="#d97706" opacity="0.03"/>

  <!-- GPU grid decorative element -->
  <rect x="880" y="160" width="240" height="300" rx="16" fill="url(#gpuGlow)" stroke="#6366f120" stroke-width="1"/>
  <!-- GPU rows -->
  <rect x="900" y="185" width="200" height="24" rx="4" fill="#6366f1" opacity="0.12"/>
  <rect x="900" y="220" width="200" height="24" rx="4" fill="#22c55e" opacity="0.10"/>
  <rect x="900" y="255" width="200" height="24" rx="4" fill="#f97316" opacity="0.10"/>
  <rect x="900" y="290" width="200" height="24" rx="4" fill="#3b82f6" opacity="0.10"/>
  <rect x="900" y="325" width="160" height="24" rx="4" fill="#6366f1" opacity="0.08"/>
  <rect x="900" y="360" width="130" height="24" rx="4" fill="#22c55e" opacity="0.06"/>
  <rect x="900" y="395" width="100" height="24" rx="4" fill="#f97316" opacity="0.05"/>
  <!-- GPU labels -->
  <text x="910" y="202" font-family="Inter,system-ui,sans-serif" font-size="11" fill="#818cf8" font-weight="600">H200</text>
  <text x="910" y="237" font-family="Inter,system-ui,sans-serif" font-size="11" fill="#3fb950" font-weight="600">H100</text>
  <text x="910" y="272" font-family="Inter,system-ui,sans-serif" font-size="11" fill="#f0883e" font-weight="600">A100</text>
  <text x="910" y="307" font-family="Inter,system-ui,sans-serif" font-size="11" fill="#58a6ff" font-weight="600">MI300</text>
  <!-- Utilization bars -->
  <rect x="970" y="189" width="120" height="16" rx="3" fill="#6366f1" opacity="0.25"/>
  <rect x="970" y="224" width="105" height="16" rx="3" fill="#22c55e" opacity="0.25"/>
  <rect x="970" y="259" width="90" height="16" rx="3" fill="#f97316" opacity="0.20"/>
  <rect x="970" y="294" width="75" height="16" rx="3" fill="#3b82f6" opacity="0.20"/>

  <!-- Logo area -->
  <text x="60" y="64" font-family="Inter,system-ui,sans-serif" font-size="20" font-weight="800" fill="#818cf8">degen0x</text>

  <!-- Category badges -->
  <rect x="60" y="110" width="52" height="22" rx="6" fill="#6366f120" stroke="#6366f140" stroke-width="1"/>
  <text x="86" y="125" font-family="Inter,system-ui,sans-serif" font-size="10" fill="#818cf8" font-weight="600" text-anchor="middle">DePIN</text>
  <rect x="122" y="110" width="98" height="22" rx="6" fill="#0369a120" stroke="#0369a140" stroke-width="1"/>
  <text x="171" y="125" font-family="Inter,system-ui,sans-serif" font-size="10" fill="#38bdf8" font-weight="600" text-anchor="middle">Infrastructure</text>
  <rect x="230" y="110" width="46" height="22" rx="6" fill="#7c3aed20" stroke="#7c3aed40" stroke-width="1"/>
  <text x="253" y="125" font-family="Inter,system-ui,sans-serif" font-size="10" fill="#a78bfa" font-weight="600" text-anchor="middle">2026</text>

  <!-- Title -->
  <text x="60" y="200" font-family="Inter,system-ui,sans-serif" font-size="44" font-weight="800" fill="url(#titleGrad)">Decentralized GPU</text>
  <text x="60" y="255" font-family="Inter,system-ui,sans-serif" font-size="44" font-weight="800" fill="url(#titleGrad)">&amp; Compute Networks</text>

  <!-- Subtitle -->
  <text x="60" y="300" font-family="Inter,system-ui,sans-serif" font-size="18" fill="#8b949e">Render · Akash · io.net · Aethir — The Complete Guide</text>

  <!-- Key stats -->
  <rect x="60" y="345" width="180" height="70" rx="10" fill="#ffffff06" stroke="#ffffff0a" stroke-width="1"/>
  <text x="80" y="375" font-family="Inter,system-ui,sans-serif" font-size="13" fill="#8b949e">Market Size</text>
  <text x="80" y="400" font-family="Inter,system-ui,sans-serif" font-size="20" font-weight="700" fill="#22c55e">$12.2B → $39.5B</text>

  <rect x="260" y="345" width="180" height="70" rx="10" fill="#ffffff06" stroke="#ffffff0a" stroke-width="1"/>
  <text x="280" y="375" font-family="Inter,system-ui,sans-serif" font-size="13" fill="#8b949e">Cost Savings</text>
  <text x="280" y="400" font-family="Inter,system-ui,sans-serif" font-size="20" font-weight="700" fill="#6366f1">60–80% vs AWS</text>

  <rect x="460" y="345" width="180" height="70" rx="10" fill="#ffffff06" stroke="#ffffff0a" stroke-width="1"/>
  <text x="480" y="375" font-family="Inter,system-ui,sans-serif" font-size="13" fill="#8b949e">Total GPUs</text>
  <text x="480" y="400" font-family="Inter,system-ui,sans-serif" font-size="20" font-weight="700" fill="#f59e0b">1M+ aggregated</text>

  <!-- Protocol logos row -->
  <rect x="60" y="445" width="120" height="34" rx="8" fill="#6366f115" stroke="#6366f130" stroke-width="1"/>
  <text x="120" y="467" font-family="Inter,system-ui,sans-serif" font-size="12" fill="#818cf8" font-weight="600" text-anchor="middle">Render ($2B+)</text>

  <rect x="195" y="445" width="110" height="34" rx="8" fill="#22c55e15" stroke="#22c55e30" stroke-width="1"/>
  <text x="250" y="467" font-family="Inter,system-ui,sans-serif" font-size="12" fill="#3fb950" font-weight="600" text-anchor="middle">Akash (428%↑)</text>

  <rect x="320" y="445" width="110" height="34" rx="8" fill="#f9731615" stroke="#f9731630" stroke-width="1"/>
  <text x="375" y="467" font-family="Inter,system-ui,sans-serif" font-size="12" fill="#f0883e" font-weight="600" text-anchor="middle">io.net (1M GPU)</text>

  <rect x="445" y="445" width="110" height="34" rx="8" fill="#3b82f615" stroke="#3b82f630" stroke-width="1"/>
  <text x="500" y="467" font-family="Inter,system-ui,sans-serif" font-size="12" fill="#58a6ff" font-weight="600" text-anchor="middle">Aethir (1.4B hrs)</text>

  <!-- Bottom bar -->
  <rect x="0" y="570" width="1200" height="60" fill="#080d1c" opacity="0.8"/>
  <rect x="0" y="570" width="1200" height="1" fill="#ffffff08"/>
  <text x="60" y="605" font-family="Inter,system-ui,sans-serif" font-size="14" fill="#6e7681">degen0x.com</text>
  <text x="1140" y="605" font-family="Inter,system-ui,sans-serif" font-size="12" fill="#6e7681" text-anchor="end">March 2026 · 15 min read</text>
</svg>
