<svg xmlns="http://www.w3.org/2000/svg" width="1200" height="630" viewBox="0 0 1200 630">
  <defs>
    <linearGradient id="bg" x1="0%" y1="0%" x2="100%" y2="100%">
      <stop offset="0%" stop-color="#080d1c"/>
      <stop offset="100%" stop-color="#0d1117"/>
    </linearGradient>
    <linearGradient id="accent" x1="0%" y1="0%" x2="100%" y2="0%">
      <stop offset="0%" stop-color="#6366f1"/>
      <stop offset="50%" stop-color="#8b5cf6"/>
      <stop offset="100%" stop-color="#06b6d4"/>
    </linearGradient>
    <linearGradient id="titleGrad" x1="0%" y1="0%" x2="100%" y2="100%">
      <stop offset="0%" stop-color="#818cf8"/>
      <stop offset="100%" stop-color="#06b6d4"/>
    </linearGradient>
    <linearGradient id="optionsGrad" x1="0%" y1="0%" x2="100%" y2="100%">
      <stop offset="0%" stop-color="#6366f1"/>
      <stop offset="100%" stop-color="#8b5cf6"/>
    </linearGradient>
    <filter id="glow">
      <feGaussianBlur stdDeviation="20" result="coloredBlur"/>
      <feMerge><feMergeNode in="coloredBlur"/><feMergeNode in="SourceGraphic"/></feMerge>
    </filter>
    <filter id="softGlow">
      <feGaussianBlur stdDeviation="40" result="blur"/>
      <feMerge><feMergeNode in="blur"/><feMergeNode in="SourceGraphic"/></feMerge>
    </filter>
  </defs>

  <!-- Background -->
  <rect width="1200" height="630" fill="url(#bg)"/>

  <!-- Decorative gradient orbs -->
  <circle cx="950" cy="180" r="200" fill="#8b5cf6" opacity="0.05" filter="url(#softGlow)"/>
  <circle cx="180" cy="480" r="150" fill="#06b6d4" opacity="0.04" filter="url(#softGlow)"/>
  <circle cx="1100" cy="500" r="100" fill="#6366f1" opacity="0.04" filter="url(#softGlow)"/>

  <!-- Top accent bar -->
  <rect x="0" y="0" width="1200" height="4" fill="url(#accent)"/>

  <!-- Options PnL chart visualization (decorative, right side) -->
  <!-- Chart frame -->
  <rect x="920" y="160" width="240" height="220" rx="8" fill="rgba(255,255,255,0.02)" stroke="rgba(255,255,255,0.06)" stroke-width="1"/>

  <!-- Grid lines -->
  <line x1="930" y1="210" x2="1150" y2="210" stroke="rgba(255,255,255,0.04)" stroke-width="1"/>
  <line x1="930" y1="260" x2="1150" y2="260" stroke="rgba(255,255,255,0.04)" stroke-width="1"/>
  <line x1="930" y1="310" x2="1150" y2="310" stroke="rgba(255,255,255,0.04)" stroke-width="1"/>

  <!-- Profit area (green shading) -->
  <path d="M930 280 L950 260 L980 220 L1020 180 L1050 160 L1080 170 L1110 150 L1150 160 L1150 280 Z" fill="#22c55e" opacity="0.15"/>

  <!-- Loss area (red shading) -->
  <path d="M930 280 L950 280 L980 280 L1020 280 L1050 280 L1080 280 L1110 280 L1150 280 L1150 340 L930 340 Z" fill="#ef4444" opacity="0.1"/>

  <!-- Call option line (upward) -->
  <path d="M930 280 L950 260 L980 220 L1020 180 L1050 160 L1080 170 L1110 150 L1150 160" fill="none" stroke="#818cf8" stroke-width="2.5"/>

  <!-- Strike price line -->
  <line x1="920" y1="280" x2="1160" y2="280" stroke="rgba(255,255,255,0.3)" stroke-width="1" stroke-dasharray="3,3"/>

  <!-- Labels -->
  <text x="935" y="360" fill="#8b949e" font-family="Inter, system-ui, sans-serif" font-size="10" font-weight="500">CALL P&amp;L</text>

  <!-- degen0x logo -->
  <circle cx="60" cy="48" r="16" fill="none" stroke="url(#optionsGrad)" stroke-width="2"/>
  <text x="60" y="53" text-anchor="middle" fill="#818cf8" font-family="Inter, system-ui, sans-serif" font-size="11" font-weight="800">0x</text>
  <text x="88" y="53" fill="#8b949e" font-family="Inter, system-ui, sans-serif" font-size="14" font-weight="600">degen0x</text>

  <!-- Category badges -->
  <rect x="48" y="100" width="70" height="26" rx="13" fill="#6366f615" stroke="#6366f140" stroke-width="1"/>
  <text x="83" y="117" text-anchor="middle" fill="#818cf8" font-family="Inter, system-ui, sans-serif" font-size="11" font-weight="600">DeFi</text>

  <rect x="126" y="100" width="60" height="26" rx="13" fill="#06b6d415" stroke="#06b6d440" stroke-width="1"/>
  <text x="156" y="117" text-anchor="middle" fill="#22d3ee" font-family="Inter, system-ui, sans-serif" font-size="11" font-weight="600">Learn</text>

  <!-- Title -->
  <text x="48" y="178" fill="url(#titleGrad)" font-family="Inter, system-ui, sans-serif" font-size="40" font-weight="800" letter-spacing="-0.02em">DeFi Options Trading</text>
  <text x="48" y="225" fill="#e6edf3" font-family="Inter, system-ui, sans-serif" font-size="32" font-weight="700" letter-spacing="-0.01em">How to Trade On-Chain Options</text>
  <text x="48" y="265" fill="#e6edf3" font-family="Inter, system-ui, sans-serif" font-size="32" font-weight="700" letter-spacing="-0.01em">in 2026</text>

  <!-- Subtitle -->
  <text x="48" y="305" fill="#8b949e" font-family="Inter, system-ui, sans-serif" font-size="16" font-weight="400">Calls, puts, Greeks · Top protocols: Derive, Stryke, Premia, Panoptic</text>

  <!-- Stat cards row -->
  <!-- Card 1: On-Chain Volume -->
  <rect x="48" y="345" width="170" height="75" rx="12" fill="rgba(255,255,255,0.04)" stroke="rgba(255,255,255,0.08)" stroke-width="1"/>
  <text x="68" y="372" fill="#8b949e" font-family="Inter, system-ui, sans-serif" font-size="11" font-weight="500">On-Chain Volume</text>
  <text x="68" y="400" fill="#e6edf3" font-family="Inter, system-ui, sans-serif" font-size="24" font-weight="800">$369M+/mo</text>

  <!-- Card 2: Market Leader -->
  <rect x="230" y="345" width="170" height="75" rx="12" fill="rgba(255,255,255,0.04)" stroke="rgba(255,255,255,0.08)" stroke-width="1"/>
  <text x="250" y="372" fill="#8b949e" font-family="Inter, system-ui, sans-serif" font-size="11" font-weight="500">Market Leader</text>
  <text x="250" y="400" fill="#e6edf3" font-family="Inter, system-ui, sans-serif" font-size="24" font-weight="800">Derive 70%+</text>

  <!-- Card 3: Protocols -->
  <rect x="412" y="345" width="170" height="75" rx="12" fill="rgba(255,255,255,0.04)" stroke="rgba(255,255,255,0.08)" stroke-width="1"/>
  <text x="432" y="372" fill="#8b949e" font-family="Inter, system-ui, sans-serif" font-size="11" font-weight="500">Protocols</text>
  <text x="432" y="400" fill="#e6edf3" font-family="Inter, system-ui, sans-serif" font-size="24" font-weight="800">4 Compared</text>

  <!-- Card 4: Strategy -->
  <rect x="594" y="345" width="170" height="75" rx="12" fill="rgba(255,255,255,0.04)" stroke="rgba(255,255,255,0.08)" stroke-width="1"/>
  <text x="614" y="372" fill="#8b949e" font-family="Inter, system-ui, sans-serif" font-size="11" font-weight="500">Strategy</text>
  <text x="614" y="400" fill="#e6edf3" font-family="Inter, system-ui, sans-serif" font-size="24" font-weight="800">DOV Yield 5-20%</text>

  <!-- Topic pills -->
  <rect x="48" y="505" width="130" height="28" rx="14" fill="rgba(255,255,255,0.03)" stroke="rgba(255,255,255,0.06)" stroke-width="1"/>
  <text x="113" y="523" text-anchor="middle" fill="#8b949e" font-family="Inter, system-ui, sans-serif" font-size="11" font-weight="500">Options Greeks</text>

  <rect x="188" y="505" width="130" height="28" rx="14" fill="rgba(255,255,255,0.03)" stroke="rgba(255,255,255,0.06)" stroke-width="1"/>
  <text x="253" y="523" text-anchor="middle" fill="#8b949e" font-family="Inter, system-ui, sans-serif" font-size="11" font-weight="500">Covered Calls</text>

  <rect x="328" y="505" width="110" height="28" rx="14" fill="rgba(255,255,255,0.03)" stroke="rgba(255,255,255,0.06)" stroke-width="1"/>
  <text x="383" y="523" text-anchor="middle" fill="#8b949e" font-family="Inter, system-ui, sans-serif" font-size="11" font-weight="500">DeFi Vaults</text>

  <rect x="448" y="505" width="150" height="28" rx="14" fill="rgba(255,255,255,0.03)" stroke="rgba(255,255,255,0.06)" stroke-width="1"/>
  <text x="523" y="523" text-anchor="middle" fill="#8b949e" font-family="Inter, system-ui, sans-serif" font-size="11" font-weight="500">Perpetual Options</text>

  <!-- Bottom bar -->
  <rect x="0" y="575" width="1200" height="55" fill="rgba(0,0,0,0.3)"/>
  <rect x="0" y="575" width="1200" height="1" fill="rgba(255,255,255,0.06)"/>
  <text x="48" y="607" fill="#6e7681" font-family="Inter, system-ui, sans-serif" font-size="14" font-weight="500">degen0x.com</text>
  <text x="1152" y="607" text-anchor="end" fill="#6e7681" font-family="Inter, system-ui, sans-serif" font-size="12" font-weight="400">Complete Guide · March 2026</text>

  <!-- Bottom accent bar -->
  <rect x="0" y="626" width="1200" height="4" fill="url(#accent)"/>
</svg>
