<svg viewBox="0 0 1200 630" xmlns="http://www.w3.org/2000/svg">
  <defs>
    <linearGradient id="bgGradient" x1="0%" y1="0%" x2="100%" y2="100%">
      <stop offset="0%" style="stop-color:#080d1c;stop-opacity:1" />
      <stop offset="100%" style="stop-color:#0f1629;stop-opacity:1" />
    </linearGradient>
    <linearGradient id="accentGradient" x1="0%" y1="0%" x2="100%" y2="0%">
      <stop offset="0%" style="stop-color:#ef4444;stop-opacity:1" />
      <stop offset="50%" style="stop-color:#dc2626;stop-opacity:1" />
      <stop offset="100%" style="stop-color:#991b1b;stop-opacity:1" />
    </linearGradient>
    <linearGradient id="titleGradient" x1="0%" y1="0%" x2="100%" y2="0%">
      <stop offset="0%" style="stop-color:#ffffff;stop-opacity:1" />
      <stop offset="100%" style="stop-color:#e0e6ed;stop-opacity:1" />
    </linearGradient>
    <filter id="glow" x="-50%" y="-50%" width="200%" height="200%">
      <feGaussianBlur stdDeviation="3" result="coloredBlur"/>
      <feMerge><feMergeNode in="coloredBlur"/><feMergeNode in="SourceGraphic"/></feMerge>
    </filter>
  </defs>
  <rect width="1200" height="630" fill="url(#bgGradient)"/>
  <rect width="1200" height="4" fill="url(#accentGradient)"/>
  <circle cx="120" cy="140" r="80" fill="#ef4444" opacity="0.08" filter="url(#glow)"/>
  <circle cx="1080" cy="520" r="100" fill="#dc2626" opacity="0.06" filter="url(#glow)"/>
  <rect x="60" y="60" width="160" height="40" rx="20" fill="#ef4444" opacity="0.15" stroke="#ef4444" stroke-width="2"/>
  <text x="140" y="87" font-family="system-ui, sans-serif" font-size="14" font-weight="bold" fill="#ef4444" text-anchor="middle">SECURITY</text>
  <text x="60" y="160" font-family="system-ui, sans-serif" font-size="42" font-weight="bold" fill="url(#titleGradient)">Drift Protocol $285M Hack</text>
  <text x="60" y="210" font-family="system-ui, sans-serif" font-size="20" fill="#8b949e">Full analysis of the exploit and lessons learned</text>
  <g>
    <rect x="750" y="80" width="400" height="400" rx="12" fill="#0a1427" opacity="0.5" stroke="#1e293b" stroke-width="1"/>
    <path d="M 820 150 L 880 150 L 880 210 L 840 210 Z" fill="#ef4444" opacity="0.8"/>
    <path d="M 890 150 L 950 150 L 950 190 L 890 190 Z" fill="#ef4444" opacity="0.7"/>
    <path d="M 960 150 L 1020 150 L 1020 170 L 960 170 Z" fill="#ef4444" opacity="0.6"/>
    <line x1="800" y1="230" x2="1000" y2="230" stroke="#ef4444" stroke-width="3" opacity="0.9"/>
    <path d="M 850 250 L 920 320 L 850 390 Z" fill="none" stroke="#ef4444" stroke-width="2" opacity="0.7"/>
    <path d="M 920 250 L 990 320 L 920 390 Z" fill="none" stroke="#ef4444" stroke-width="2" opacity="0.7"/>
    <text x="900" y="420" font-family="system-ui, sans-serif" font-size="14" fill="#ef4444" text-anchor="middle">Exploit Analysis</text>
  </g>
  <rect y="600" width="1200" height="30" fill="#0a1427" opacity="0.6"/>
  <circle cx="60" cy="615" r="10" fill="#ef4444"/>
  <text x="75" y="621" font-family="system-ui, sans-serif" font-size="13" fill="#8b949e">degen0x.com</text>
</svg>