<svg width="1200" height="630" viewBox="0 0 1200 630" xmlns="http://www.w3.org/2000/svg">
  <defs>
    <linearGradient id="bg" x1="0" y1="0" x2="1" y2="1">
      <stop offset="0%" stop-color="#080d1c"/>
      <stop offset="100%" stop-color="#0d1420"/>
    </linearGradient>
    <linearGradient id="accent" x1="0" y1="0" x2="1" y2="0">
      <stop offset="0%" stop-color="#4f46e5"/>
      <stop offset="50%" stop-color="#0891b2"/>
      <stop offset="100%" stop-color="#d97706"/>
    </linearGradient>
    <linearGradient id="blueGrad" x1="0" y1="0" x2="1" y2="1">
      <stop offset="0%" stop-color="#58a6ff"/>
      <stop offset="100%" stop-color="#388bfd"/>
    </linearGradient>
    <linearGradient id="greenGrad" x1="0" y1="0" x2="1" y2="1">
      <stop offset="0%" stop-color="#22c55e"/>
      <stop offset="100%" stop-color="#16a34a"/>
    </linearGradient>
    <linearGradient id="purpleGrad" x1="0" y1="0" x2="1" y2="1">
      <stop offset="0%" stop-color="#6366f1"/>
      <stop offset="100%" stop-color="#4f46e5"/>
    </linearGradient>
    <linearGradient id="goldGrad" x1="0" y1="0" x2="1" y2="1">
      <stop offset="0%" stop-color="#f59e0b"/>
      <stop offset="100%" stop-color="#d97706"/>
    </linearGradient>
    <filter id="glow">
      <feGaussianBlur stdDeviation="6" result="blur"/>
      <feMerge><feMergeNode in="blur"/><feMergeNode in="SourceGraphic"/></feMerge>
    </filter>
    <filter id="softGlow">
      <feGaussianBlur stdDeviation="25" result="blur"/>
      <feMerge><feMergeNode in="blur"/><feMergeNode in="SourceGraphic"/></feMerge>
    </filter>
  </defs>

  <!-- Background -->
  <rect width="1200" height="630" fill="url(#bg)"/>

  <!-- Top accent bar -->
  <rect x="0" y="0" width="1200" height="4" fill="url(#accent)"/>

  <!-- Background glow -->
  <circle cx="900" cy="300" r="250" fill="#58a6ff" opacity="0.03" filter="url(#softGlow)"/>
  <circle cx="1050" cy="150" r="120" fill="#6366f1" opacity="0.04" filter="url(#softGlow)"/>

  <!-- Institution buildings visualization -->
  <!-- Building 1 - BlackRock -->
  <g transform="translate(720, 100)">
    <rect x="0" y="40" width="80" height="140" rx="6" fill="rgba(255,255,255,0.04)" stroke="rgba(88,166,255,0.3)" stroke-width="1"/>
    <rect x="10" y="55" width="12" height="16" rx="2" fill="#58a6ff" opacity="0.3"/>
    <rect x="30" y="55" width="12" height="16" rx="2" fill="#58a6ff" opacity="0.3"/>
    <rect x="50" y="55" width="12" height="16" rx="2" fill="#58a6ff" opacity="0.3"/>
    <rect x="10" y="80" width="12" height="16" rx="2" fill="#58a6ff" opacity="0.3"/>
    <rect x="30" y="80" width="12" height="16" rx="2" fill="#58a6ff" opacity="0.3"/>
    <rect x="50" y="80" width="12" height="16" rx="2" fill="#58a6ff" opacity="0.3"/>
    <rect x="10" y="105" width="12" height="16" rx="2" fill="#58a6ff" opacity="0.3"/>
    <rect x="30" y="105" width="12" height="16" rx="2" fill="#58a6ff" opacity="0.3"/>
    <rect x="50" y="105" width="12" height="16" rx="2" fill="#58a6ff" opacity="0.3"/>
    <rect x="10" y="130" width="12" height="16" rx="2" fill="#58a6ff" opacity="0.3"/>
    <rect x="30" y="130" width="12" height="16" rx="2" fill="#58a6ff" opacity="0.3"/>
    <rect x="50" y="130" width="12" height="16" rx="2" fill="#58a6ff" opacity="0.3"/>
    <rect x="0" y="30" width="80" height="12" rx="3" fill="#58a6ff" opacity="0.15"/>
    <text x="40" y="200" text-anchor="middle" fill="#58a6ff" font-family="Inter, sans-serif" font-size="11" font-weight="700">BlackRock</text>
    <text x="40" y="215" text-anchor="middle" fill="#8b949e" font-family="Inter, sans-serif" font-size="9">$2.85B BUIDL</text>
  </g>

  <!-- Building 2 - JPMorgan -->
  <g transform="translate(830, 130)">
    <rect x="0" y="30" width="70" height="110" rx="6" fill="rgba(255,255,255,0.04)" stroke="rgba(99,102,241,0.3)" stroke-width="1"/>
    <rect x="10" y="45" width="10" height="14" rx="2" fill="#6366f1" opacity="0.3"/>
    <rect x="28" y="45" width="10" height="14" rx="2" fill="#6366f1" opacity="0.3"/>
    <rect x="46" y="45" width="10" height="14" rx="2" fill="#6366f1" opacity="0.3"/>
    <rect x="10" y="68" width="10" height="14" rx="2" fill="#6366f1" opacity="0.3"/>
    <rect x="28" y="68" width="10" height="14" rx="2" fill="#6366f1" opacity="0.3"/>
    <rect x="46" y="68" width="10" height="14" rx="2" fill="#6366f1" opacity="0.3"/>
    <rect x="10" y="91" width="10" height="14" rx="2" fill="#6366f1" opacity="0.3"/>
    <rect x="28" y="91" width="10" height="14" rx="2" fill="#6366f1" opacity="0.3"/>
    <rect x="46" y="91" width="10" height="14" rx="2" fill="#6366f1" opacity="0.3"/>
    <rect x="0" y="22" width="70" height="10" rx="3" fill="#6366f1" opacity="0.15"/>
    <text x="35" y="170" text-anchor="middle" fill="#6366f1" font-family="Inter, sans-serif" font-size="11" font-weight="700">JPMorgan</text>
    <text x="35" y="185" text-anchor="middle" fill="#8b949e" font-family="Inter, sans-serif" font-size="9">Custody Layer</text>
  </g>

  <!-- Building 3 - Morgan Stanley -->
  <g transform="translate(930, 150)">
    <rect x="0" y="25" width="65" height="90" rx="6" fill="rgba(255,255,255,0.04)" stroke="rgba(34,197,94,0.3)" stroke-width="1"/>
    <rect x="10" y="38" width="9" height="12" rx="2" fill="#22c55e" opacity="0.3"/>
    <rect x="26" y="38" width="9" height="12" rx="2" fill="#22c55e" opacity="0.3"/>
    <rect x="42" y="38" width="9" height="12" rx="2" fill="#22c55e" opacity="0.3"/>
    <rect x="10" y="58" width="9" height="12" rx="2" fill="#22c55e" opacity="0.3"/>
    <rect x="26" y="58" width="9" height="12" rx="2" fill="#22c55e" opacity="0.3"/>
    <rect x="42" y="58" width="9" height="12" rx="2" fill="#22c55e" opacity="0.3"/>
    <rect x="10" y="78" width="9" height="12" rx="2" fill="#22c55e" opacity="0.3"/>
    <rect x="26" y="78" width="9" height="12" rx="2" fill="#22c55e" opacity="0.3"/>
    <rect x="42" y="78" width="9" height="12" rx="2" fill="#22c55e" opacity="0.3"/>
    <rect x="0" y="18" width="65" height="9" rx="3" fill="#22c55e" opacity="0.15"/>
    <text x="32" y="145" text-anchor="middle" fill="#22c55e" font-family="Inter, sans-serif" font-size="10" font-weight="700">M. Stanley</text>
    <text x="32" y="160" text-anchor="middle" fill="#8b949e" font-family="Inter, sans-serif" font-size="9">MSBT ETF</text>
  </g>

  <!-- Building 4 - SEC/CFTC -->
  <g transform="translate(1025, 160)">
    <rect x="0" y="20" width="60" height="80" rx="6" fill="rgba(255,255,255,0.04)" stroke="rgba(245,158,11,0.3)" stroke-width="1"/>
    <rect x="10" y="35" width="8" height="10" rx="2" fill="#f59e0b" opacity="0.3"/>
    <rect x="24" y="35" width="8" height="10" rx="2" fill="#f59e0b" opacity="0.3"/>
    <rect x="38" y="35" width="8" height="10" rx="2" fill="#f59e0b" opacity="0.3"/>
    <rect x="10" y="52" width="8" height="10" rx="2" fill="#f59e0b" opacity="0.3"/>
    <rect x="24" y="52" width="8" height="10" rx="2" fill="#f59e0b" opacity="0.3"/>
    <rect x="38" y="52" width="8" height="10" rx="2" fill="#f59e0b" opacity="0.3"/>
    <rect x="10" y="69" width="8" height="10" rx="2" fill="#f59e0b" opacity="0.3"/>
    <rect x="24" y="69" width="8" height="10" rx="2" fill="#f59e0b" opacity="0.3"/>
    <rect x="38" y="69" width="8" height="10" rx="2" fill="#f59e0b" opacity="0.3"/>
    <!-- Dome top -->
    <path d="M10,20 Q30,5 50,20" fill="none" stroke="#f59e0b" stroke-width="1" opacity="0.3"/>
    <text x="30" y="120" text-anchor="middle" fill="#f59e0b" font-family="Inter, sans-serif" font-size="10" font-weight="700">SEC-CFTC</text>
    <text x="30" y="135" text-anchor="middle" fill="#8b949e" font-family="Inter, sans-serif" font-size="9">16 Assets</text>
  </g>

  <!-- Connecting lines (chain) -->
  <line x1="800" y1="270" x2="830" y2="270" stroke="#58a6ff" stroke-width="1" opacity="0.2" stroke-dasharray="4,4"/>
  <line x1="900" y1="270" x2="930" y2="270" stroke="#6366f1" stroke-width="1" opacity="0.2" stroke-dasharray="4,4"/>
  <line x1="995" y1="270" x2="1025" y2="270" stroke="#22c55e" stroke-width="1" opacity="0.2" stroke-dasharray="4,4"/>

  <!-- Stats cards at bottom right -->
  <g transform="translate(720, 400)">
    <rect x="0" y="0" width="130" height="55" rx="10" fill="rgba(255,255,255,0.04)" stroke="rgba(255,255,255,0.08)" stroke-width="1"/>
    <text x="65" y="25" text-anchor="middle" fill="#58a6ff" font-family="Inter, sans-serif" font-size="16" font-weight="800">$35.6B</text>
    <text x="65" y="42" text-anchor="middle" fill="#8b949e" font-family="Inter, sans-serif" font-size="10">Tokenized RWAs</text>
  </g>
  <g transform="translate(865, 400)">
    <rect x="0" y="0" width="130" height="55" rx="10" fill="rgba(255,255,255,0.04)" stroke="rgba(255,255,255,0.08)" stroke-width="1"/>
    <text x="65" y="25" text-anchor="middle" fill="#22c55e" font-family="Inter, sans-serif" font-size="16" font-weight="800">16 Assets</text>
    <text x="65" y="42" text-anchor="middle" fill="#8b949e" font-family="Inter, sans-serif" font-size="10">Digital Commodities</text>
  </g>
  <g transform="translate(1010, 400)">
    <rect x="0" y="0" width="130" height="55" rx="10" fill="rgba(255,255,255,0.04)" stroke="rgba(255,255,255,0.08)" stroke-width="1"/>
    <text x="65" y="25" text-anchor="middle" fill="#f59e0b" font-family="Inter, sans-serif" font-size="16" font-weight="800">AI + Crypto</text>
    <text x="65" y="42" text-anchor="middle" fill="#8b949e" font-family="Inter, sans-serif" font-size="10">Next Frontier</text>
  </g>

  <!-- Logo -->
  <g transform="translate(60, 40)">
    <circle cx="16" cy="16" r="14" fill="url(#purpleGrad)" opacity="0.9"/>
    <text x="14" y="21" text-anchor="middle" fill="white" font-family="Inter, sans-serif" font-size="12" font-weight="800">0x</text>
    <text x="40" y="22" fill="#e6edf3" font-family="Inter, sans-serif" font-size="16" font-weight="700">degen0x</text>
  </g>

  <!-- Badges -->
  <g transform="translate(60, 100)">
    <rect x="0" y="0" width="100" height="24" rx="12" fill="#6366f120" stroke="#6366f140" stroke-width="1"/>
    <text x="50" y="16" text-anchor="middle" fill="#6366f1" font-family="Inter, sans-serif" font-size="10" font-weight="600">Market Analysis</text>
    <rect x="108" y="0" width="85" height="24" rx="12" fill="#f59e0b20" stroke="#f59e0b40" stroke-width="1"/>
    <text x="150" y="16" text-anchor="middle" fill="#f59e0b" font-family="Inter, sans-serif" font-size="10" font-weight="600">Institutional</text>
  </g>

  <!-- Title -->
  <text x="60" y="185" fill="#e6edf3" font-family="Inter, sans-serif" font-size="40" font-weight="900" letter-spacing="-1">
    Institutional Crypto
  </text>
  <text x="60" y="235" fill="#e6edf3" font-family="Inter, sans-serif" font-size="40" font-weight="900" letter-spacing="-1">
    Adoption 2026
  </text>

  <!-- Subtitle -->
  <text x="60" y="285" fill="#8b949e" font-family="Inter, sans-serif" font-size="18" font-weight="400">
    How Wall Street Is Going On-Chain
  </text>

  <!-- Key points -->
  <g transform="translate(60, 330)">
    <circle cx="6" cy="6" r="4" fill="#58a6ff"/>
    <text x="18" y="10" fill="#8b949e" font-family="Inter, sans-serif" font-size="13">BlackRock $2.85B BUIDL Fund</text>
  </g>
  <g transform="translate(60, 358)">
    <circle cx="6" cy="6" r="4" fill="#22c55e"/>
    <text x="18" y="10" fill="#8b949e" font-family="Inter, sans-serif" font-size="13">SEC-CFTC Digital Commodities Framework</text>
  </g>
  <g transform="translate(60, 386)">
    <circle cx="6" cy="6" r="4" fill="#f59e0b"/>
    <text x="18" y="10" fill="#8b949e" font-family="Inter, sans-serif" font-size="13">AI as Crypto's Next Major Use Case</text>
  </g>
  <g transform="translate(60, 414)">
    <circle cx="6" cy="6" r="4" fill="#6366f1"/>
    <text x="18" y="10" fill="#8b949e" font-family="Inter, sans-serif" font-size="13">$35.6B Tokenized Real-World Assets</text>
  </g>

  <!-- Bottom bar -->
  <rect x="0" y="590" width="1200" height="40" fill="rgba(0,0,0,0.3)"/>
  <text x="60" y="615" fill="#6e7681" font-family="Inter, sans-serif" font-size="13" font-weight="500">degen0x.com</text>
  <text x="1140" y="615" text-anchor="end" fill="#6e7681" font-family="Inter, sans-serif" font-size="12">Learn · Institutional · Market Analysis</text>
</svg>
