<svg viewBox="0 0 1200 630" xmlns="http://www.w3.org/2000/svg">
  <defs>
    <linearGradient id="bgGradient" x1="0%" y1="0%" x2="100%" y2="100%">
      <stop offset="0%" style="stop-color:#080d1c;stop-opacity:1" />
      <stop offset="100%" style="stop-color:#0f1629;stop-opacity:1" />
    </linearGradient>
    <linearGradient id="accentGradient" x1="0%" y1="0%" x2="100%" y2="0%">
      <stop offset="0%" style="stop-color:#14b8a6;stop-opacity:1" />
      <stop offset="50%" style="stop-color:#06b6d4;stop-opacity:1" />
      <stop offset="100%" style="stop-color:#0891b2;stop-opacity:1" />
    </linearGradient>
    <linearGradient id="titleGradient" x1="0%" y1="0%" x2="100%" y2="0%">
      <stop offset="0%" style="stop-color:#ffffff;stop-opacity:1" />
      <stop offset="100%" style="stop-color:#e0e6ed;stop-opacity:1" />
    </linearGradient>
    <filter id="glow" x="-50%" y="-50%" width="200%" height="200%">
      <feGaussianBlur stdDeviation="3" result="coloredBlur"/>
      <feMerge><feMergeNode in="coloredBlur"/><feMergeNode in="SourceGraphic"/></feMerge>
    </filter>
  </defs>
  <rect width="1200" height="630" fill="url(#bgGradient)"/>
  <rect width="1200" height="4" fill="url(#accentGradient)"/>
  <circle cx="150" cy="105" r="80" fill="#14b8a6" opacity="0.08" filter="url(#glow)"/>
  <circle cx="1060" cy="495" r="115" fill="#06b6d4" opacity="0.06" filter="url(#glow)"/>
  <rect x="60" y="60" width="170" height="40" rx="20" fill="#14b8a6" opacity="0.15" stroke="#14b8a6" stroke-width="2"/>
  <text x="145" y="87" font-family="system-ui, sans-serif" font-size="14" font-weight="bold" fill="#14b8a6" text-anchor="middle">STAKING</text>
  <text x="60" y="160" font-family="system-ui, sans-serif" font-size="42" font-weight="bold" fill="url(#titleGradient)">Liquid Staking Tokens</text>
  <text x="60" y="210" font-family="system-ui, sans-serif" font-size="20" fill="#8b949e">stETH, rETH, mSOL — unlock staked capital in DeFi</text>
  <g>
    <rect x="750" y="80" width="400" height="400" rx="12" fill="#0a1427" opacity="0.5" stroke="#1e293b" stroke-width="1"/>
    <path d="M 900 140 Q 900 160 920 180 Q 920 200 900 220 Q 880 200 880 180 Q 880 160 900 140" fill="#14b8a6" opacity="0.9"/>
    <path d="M 850 200 Q 850 230 875 260 Q 875 290 850 320 Q 825 290 825 260 Q 825 230 850 200" fill="#06b6d4" opacity="0.85"/>
    <path d="M 950 200 Q 950 230 975 260 Q 975 290 950 320 Q 925 290 925 260 Q 925 230 950 200" fill="#0891b2" opacity="0.8"/>
    <path d="M 900 220 L 850 200 M 900 220 L 950 200" stroke="#14b8a6" stroke-width="1.5" opacity="0.6"/>
    <path d="M 875 260 L 900 220 M 975 260 L 900 220" stroke="#14b8a6" stroke-width="1.5" opacity="0.6"/>
    <circle cx="900" cy="360" r="15" fill="none" stroke="#14b8a6" stroke-width="2" opacity="0.7"/>
    <text x="900" y="366" font-family="system-ui, sans-serif" font-size="12" fill="#14b8a6" text-anchor="middle" font-weight="bold">LST</text>
    <text x="900" y="410" font-family="system-ui, sans-serif" font-size="14" fill="#14b8a6" text-anchor="middle">Liquid Drops</text>
  </g>
  <rect y="600" width="1200" height="30" fill="#0a1427" opacity="0.6"/>
  <circle cx="60" cy="615" r="10" fill="#6366f1"/>
  <text x="75" y="621" font-family="system-ui, sans-serif" font-size="13" fill="#8b949e">degen0x.com</text>
</svg>