<svg xmlns="http://www.w3.org/2000/svg" width="1200" height="630" viewBox="0 0 1200 630">
  <defs>
    <linearGradient id="bg" x1="0" y1="0" x2="1" y2="1">
      <stop offset="0%" stop-color="#080d1c"/>
      <stop offset="100%" stop-color="#0f1729"/>
    </linearGradient>
    <linearGradient id="accent" x1="0" y1="0" x2="1" y2="0">
      <stop offset="0%" stop-color="#4f46e5"/>
      <stop offset="50%" stop-color="#0891b2"/>
      <stop offset="100%" stop-color="#d97706"/>
    </linearGradient>
    <linearGradient id="chartGrad" x1="0" y1="0" x2="0" y2="1">
      <stop offset="0%" stop-color="#22c55e" stop-opacity="0.3"/>
      <stop offset="100%" stop-color="#22c55e" stop-opacity="0"/>
    </linearGradient>
    <filter id="glow">
      <feGaussianBlur stdDeviation="6" result="blur"/>
      <feMerge><feMergeNode in="blur"/><feMergeNode in="SourceGraphic"/></feMerge>
    </filter>
  </defs>

  <rect width="1200" height="630" fill="url(#bg)"/>
  <rect width="1200" height="4" fill="url(#accent)"/>

  <circle cx="950" cy="200" r="180" fill="#6366f1" opacity="0.04"/>
  <circle cx="200" cy="500" r="120" fill="#22c55e" opacity="0.03"/>

  <text x="60" y="58" font-family="Inter, -apple-system, sans-serif" font-size="18" font-weight="700" fill="#6366f1" letter-spacing="0.05em">degen0x</text>

  <!-- AI badge -->
  <rect x="160" y="38" width="140" height="28" rx="14" fill="rgba(88,166,255,0.1)" stroke="#58a6ff" stroke-width="1"/>
  <text x="230" y="57" text-anchor="middle" font-family="Inter, sans-serif" font-size="12" font-weight="600" fill="#58a6ff">AI-Generated</text>

  <text x="60" y="200" font-family="Inter, -apple-system, sans-serif" font-size="52" font-weight="900" fill="#e6edf3" letter-spacing="-0.02em">AI Market Recap</text>
  <text x="60" y="260" font-family="Inter, -apple-system, sans-serif" font-size="38" font-weight="800" fill="url(#accent)" letter-spacing="-0.02em">Daily Crypto Intelligence</text>

  <text x="60" y="310" font-family="Inter, -apple-system, sans-serif" font-size="20" fill="#8b949e">Sentiment, gainers/losers, whale activity &amp; on-chain signals</text>

  <!-- Mini chart -->
  <g transform="translate(700, 100)">
    <rect width="440" height="200" rx="16" fill="rgba(255,255,255,0.03)" stroke="rgba(255,255,255,0.06)" stroke-width="1"/>
    <path d="M 30 160 L 70 140 L 110 150 L 150 120 L 190 100 L 230 110 L 270 80 L 310 60 L 350 50 L 390 30" fill="none" stroke="#22c55e" stroke-width="2.5"/>
    <path d="M 30 160 L 70 140 L 110 150 L 150 120 L 190 100 L 230 110 L 270 80 L 310 60 L 350 50 L 390 30 L 390 180 L 30 180 Z" fill="url(#chartGrad)"/>
    <text x="20" y="24" font-family="Inter, sans-serif" font-size="11" fill="#8b949e" letter-spacing="0.05em">MARKET CAP (7D)</text>
    <text x="350" y="24" font-family="Inter, sans-serif" font-size="14" font-weight="700" fill="#22c55e">+2.8%</text>
  </g>

  <!-- Stats -->
  <rect x="60" y="370" width="520" height="100" rx="16" fill="rgba(255,255,255,0.04)" stroke="rgba(255,255,255,0.08)" stroke-width="1"/>
  <g transform="translate(90, 395)">
    <text font-family="Inter, sans-serif" font-size="11" fill="#8b949e" letter-spacing="0.05em">SENTIMENT</text>
    <text y="28" font-family="Inter, sans-serif" font-size="26" font-weight="800" fill="#22c55e">Bullish</text>
  </g>
  <line x1="230" y1="390" x2="230" y2="450" stroke="rgba(255,255,255,0.08)" stroke-width="1"/>
  <g transform="translate(260, 395)">
    <text font-family="Inter, sans-serif" font-size="11" fill="#8b949e" letter-spacing="0.05em">VOLUME 24H</text>
    <text y="28" font-family="Inter, sans-serif" font-size="26" font-weight="800" fill="#06b6d4">$94.2B</text>
  </g>
  <line x1="410" y1="390" x2="410" y2="450" stroke="rgba(255,255,255,0.08)" stroke-width="1"/>
  <g transform="translate(440, 395)">
    <text font-family="Inter, sans-serif" font-size="11" fill="#8b949e" letter-spacing="0.05em">BTC DOM</text>
    <text y="28" font-family="Inter, sans-serif" font-size="26" font-weight="800" fill="#f59e0b">42.3%</text>
  </g>

  <!-- Narrative pills -->
  <g transform="translate(700, 330)">
    <rect width="440" height="140" rx="14" fill="rgba(255,255,255,0.03)" stroke="rgba(255,255,255,0.06)" stroke-width="1"/>
    <text x="20" y="24" font-family="Inter, sans-serif" font-size="11" fill="#8b949e" letter-spacing="0.05em">TRENDING NARRATIVES</text>
    <rect x="20" y="40" width="55" height="28" rx="8" fill="rgba(99,102,241,0.2)"/>
    <text x="47" y="59" text-anchor="middle" font-family="Inter, sans-serif" font-size="12" font-weight="600" fill="#818cf8">AI/ML</text>
    <rect x="85" y="40" width="50" height="28" rx="8" fill="rgba(6,182,212,0.2)"/>
    <text x="110" y="59" text-anchor="middle" font-family="Inter, sans-serif" font-size="12" font-weight="600" fill="#06b6d4">RWA</text>
    <rect x="145" y="40" width="60" height="28" rx="8" fill="rgba(139,92,246,0.2)"/>
    <text x="175" y="59" text-anchor="middle" font-family="Inter, sans-serif" font-size="12" font-weight="600" fill="#8b5cf6">DePIN</text>
    <rect x="215" y="40" width="38" height="28" rx="8" fill="rgba(245,158,11,0.2)"/>
    <text x="234" y="59" text-anchor="middle" font-family="Inter, sans-serif" font-size="12" font-weight="600" fill="#f59e0b">L2</text>

    <text x="20" y="98" font-family="Inter, sans-serif" font-size="12" fill="#8b949e">Whale activity, on-chain signals</text>
    <text x="20" y="118" font-family="Inter, sans-serif" font-size="12" fill="#8b949e">&amp; narrative momentum updated daily</text>
  </g>

  <rect y="610" width="1200" height="20" fill="rgba(0,0,0,0.3)"/>
  <text x="60" y="624" font-family="Inter, -apple-system, sans-serif" font-size="13" font-weight="600" fill="#6e7681">degen0x.com</text>
  <text x="1140" y="624" text-anchor="end" font-family="Inter, sans-serif" font-size="12" fill="#6e7681">Free · No Sign-up Required</text>
</svg>