<svg xmlns="http://www.w3.org/2000/svg" width="1200" height="630" viewBox="0 0 1200 630">
  <defs>
    <linearGradient id="bg" x1="0%" y1="0%" x2="100%" y2="100%">
      <stop offset="0%" stop-color="#080d1c"/>
      <stop offset="100%" stop-color="#0d1117"/>
    </linearGradient>
    <linearGradient id="accent" x1="0%" y1="0%" x2="100%" y2="0%">
      <stop offset="0%" stop-color="#6366f1"/>
      <stop offset="50%" stop-color="#06b6d4"/>
      <stop offset="100%" stop-color="#818cf8"/>
    </linearGradient>
    <linearGradient id="titleGrad" x1="0%" y1="0%" x2="100%" y2="100%">
      <stop offset="0%" stop-color="#6366f1"/>
      <stop offset="100%" stop-color="#06b6d4"/>
    </linearGradient>
    <linearGradient id="moveGrad" x1="0%" y1="0%" x2="100%" y2="100%">
      <stop offset="0%" stop-color="#818cf8"/>
      <stop offset="100%" stop-color="#22c55e"/>
    </linearGradient>
    <filter id="softGlow">
      <feGaussianBlur stdDeviation="40" result="blur"/>
      <feMerge><feMergeNode in="blur"/><feMergeNode in="SourceGraphic"/></feMerge>
    </filter>
  </defs>

  <!-- Background -->
  <rect width="1200" height="630" fill="url(#bg)"/>

  <!-- Decorative gradient orbs -->
  <circle cx="950" cy="180" r="200" fill="#6366f1" opacity="0.06" filter="url(#softGlow)"/>
  <circle cx="250" cy="500" r="150" fill="#22c55e" opacity="0.04" filter="url(#softGlow)"/>
  <circle cx="1100" cy="450" r="120" fill="#06b6d4" opacity="0.05" filter="url(#softGlow)"/>

  <!-- Top accent bar -->
  <rect x="0" y="0" width="1200" height="4" fill="url(#accent)"/>

  <!-- Parallel execution visualization (decorative) -->
  <!-- Thread lanes -->
  <rect x="820" y="140" width="320" height="36" rx="8" fill="#6366f108" stroke="#6366f125" stroke-width="1"/>
  <rect x="820" y="186" width="320" height="36" rx="8" fill="#06b6d408" stroke="#06b6d425" stroke-width="1"/>
  <rect x="820" y="232" width="320" height="36" rx="8" fill="#6366f108" stroke="#6366f125" stroke-width="1"/>
  <rect x="820" y="278" width="320" height="36" rx="8" fill="#06b6d408" stroke="#06b6d425" stroke-width="1"/>

  <!-- Transaction blocks in threads -->
  <rect x="835" y="148" width="65" height="20" rx="4" fill="#6366f130" stroke="#6366f160" stroke-width="1"/>
  <rect x="910" y="148" width="45" height="20" rx="4" fill="#818cf830" stroke="#818cf860" stroke-width="1"/>
  <rect x="965" y="148" width="80" height="20" rx="4" fill="#6366f120" stroke="#6366f150" stroke-width="1"/>
  <rect x="1060" y="148" width="55" height="20" rx="4" fill="#818cf825" stroke="#818cf850" stroke-width="1"/>

  <rect x="835" y="194" width="80" height="20" rx="4" fill="#06b6d430" stroke="#06b6d460" stroke-width="1"/>
  <rect x="925" y="194" width="55" height="20" rx="4" fill="#22d3ee25" stroke="#22d3ee50" stroke-width="1"/>
  <rect x="995" y="194" width="70" height="20" rx="4" fill="#06b6d420" stroke="#06b6d450" stroke-width="1"/>

  <rect x="835" y="240" width="50" height="20" rx="4" fill="#6366f130" stroke="#6366f160" stroke-width="1"/>
  <rect x="895" y="240" width="75" height="20" rx="4" fill="#818cf825" stroke="#818cf850" stroke-width="1"/>
  <rect x="980" y="240" width="60" height="20" rx="4" fill="#6366f120" stroke="#6366f150" stroke-width="1"/>
  <rect x="1050" y="240" width="70" height="20" rx="4" fill="#818cf830" stroke="#818cf860" stroke-width="1"/>

  <rect x="835" y="286" width="70" height="20" rx="4" fill="#06b6d425" stroke="#06b6d450" stroke-width="1"/>
  <rect x="915" y="286" width="90" height="20" rx="4" fill="#22d3ee20" stroke="#22d3ee45" stroke-width="1"/>
  <rect x="1015" y="286" width="50" height="20" rx="4" fill="#06b6d430" stroke="#06b6d460" stroke-width="1"/>

  <!-- Thread labels -->
  <text x="840" y="135" fill="#818cf860" font-family="Inter, system-ui, sans-serif" font-size="10" font-weight="600">Thread 1</text>
  <text x="840" y="181" fill="#22d3ee60" font-family="Inter, system-ui, sans-serif" font-size="10" font-weight="600">Thread 2</text>
  <text x="840" y="227" fill="#818cf860" font-family="Inter, system-ui, sans-serif" font-size="10" font-weight="600">Thread 3</text>
  <text x="840" y="273" fill="#22d3ee60" font-family="Inter, system-ui, sans-serif" font-size="10" font-weight="600">Thread 4</text>

  <!-- Stats cards -->
  <rect x="820" y="340" width="150" height="70" rx="10" fill="#161b22" stroke="#30363d" stroke-width="1"/>
  <text x="895" y="370" text-anchor="middle" fill="#22c55e" font-family="Inter, system-ui, sans-serif" font-size="22" font-weight="800">160K+</text>
  <text x="895" y="395" text-anchor="middle" fill="#8b949e" font-family="Inter, system-ui, sans-serif" font-size="11" font-weight="500">Peak TPS</text>

  <rect x="985" y="340" width="150" height="70" rx="10" fill="#161b22" stroke="#30363d" stroke-width="1"/>
  <text x="1060" y="370" text-anchor="middle" fill="#06b6d4" font-family="Inter, system-ui, sans-serif" font-size="22" font-weight="800">$200M+</text>
  <text x="1060" y="395" text-anchor="middle" fill="#8b949e" font-family="Inter, system-ui, sans-serif" font-size="11" font-weight="500">TVL</text>

  <rect x="820" y="420" width="150" height="70" rx="10" fill="#161b22" stroke="#30363d" stroke-width="1"/>
  <text x="895" y="450" text-anchor="middle" fill="#d29922" font-family="Inter, system-ui, sans-serif" font-size="22" font-weight="800">160+</text>
  <text x="895" y="475" text-anchor="middle" fill="#8b949e" font-family="Inter, system-ui, sans-serif" font-size="11" font-weight="500">Projects</text>

  <rect x="985" y="420" width="150" height="70" rx="10" fill="#161b22" stroke="#30363d" stroke-width="1"/>
  <text x="1060" y="450" text-anchor="middle" fill="#22c55e" font-family="Inter, system-ui, sans-serif" font-size="20" font-weight="800">&lt;$0.001</text>
  <text x="1060" y="475" text-anchor="middle" fill="#8b949e" font-family="Inter, system-ui, sans-serif" font-size="11" font-weight="500">Avg Tx Fee</text>

  <!-- Logo area -->
  <text x="60" y="62" fill="#818cf8" font-family="Inter, system-ui, sans-serif" font-size="18" font-weight="800" letter-spacing="-0.02em">degen0x</text>

  <!-- Category badges -->
  <rect x="60" y="120" width="75" height="28" rx="6" fill="#6366f120" stroke="#6366f140" stroke-width="1"/>
  <text x="97" y="139" text-anchor="middle" fill="#818cf8" font-family="Inter, system-ui, sans-serif" font-size="12" font-weight="700">Layer 1</text>

  <rect x="145" y="120" width="55" height="28" rx="6" fill="#0ea5e920" stroke="#0ea5e940" stroke-width="1"/>
  <text x="172" y="139" text-anchor="middle" fill="#38bdf8" font-family="Inter, system-ui, sans-serif" font-size="12" font-weight="700">Learn</text>

  <rect x="210" y="120" width="80" height="28" rx="6" fill="#22c55e20" stroke="#22c55e40" stroke-width="1"/>
  <text x="250" y="139" text-anchor="middle" fill="#4ade80" font-family="Inter, system-ui, sans-serif" font-size="12" font-weight="700">Trending</text>

  <!-- Title -->
  <text x="60" y="215" fill="url(#titleGrad)" font-family="Inter, system-ui, sans-serif" font-size="48" font-weight="800" letter-spacing="-0.02em">Movement Network</text>
  <text x="60" y="275" fill="url(#titleGrad)" font-family="Inter, system-ui, sans-serif" font-size="48" font-weight="800" letter-spacing="-0.02em">Guide 2026</text>

  <!-- Subtitle -->
  <text x="60" y="325" fill="#8b949e" font-family="Inter, system-ui, sans-serif" font-size="18" font-weight="400">MoveVM parallel execution, $MOVE tokenomics,</text>
  <text x="60" y="352" fill="#8b949e" font-family="Inter, system-ui, sans-serif" font-size="18" font-weight="400">staking, and how it compares to Solana &amp; Sui</text>

  <!-- Feature pills -->
  <rect x="60" y="390" width="120" height="32" rx="16" fill="#6366f115" stroke="#6366f135" stroke-width="1"/>
  <text x="120" y="411" text-anchor="middle" fill="#818cf8" font-family="Inter, system-ui, sans-serif" font-size="13" font-weight="600">MoveVM</text>

  <rect x="195" y="390" width="140" height="32" rx="16" fill="#06b6d415" stroke="#06b6d435" stroke-width="1"/>
  <text x="265" y="411" text-anchor="middle" fill="#22d3ee" font-family="Inter, system-ui, sans-serif" font-size="13" font-weight="600">EVM Compatible</text>

  <rect x="350" y="390" width="110" height="32" rx="16" fill="#22c55e15" stroke="#22c55e35" stroke-width="1"/>
  <text x="405" y="411" text-anchor="middle" fill="#4ade80" font-family="Inter, system-ui, sans-serif" font-size="13" font-weight="600">Celestia DA</text>

  <rect x="475" y="390" width="130" height="32" rx="16" fill="#d2992215" stroke="#d2992235" stroke-width="1"/>
  <text x="540" y="411" text-anchor="middle" fill="#d29922" font-family="Inter, system-ui, sans-serif" font-size="13" font-weight="600">10B $MOVE</text>

  <!-- Bottom bar -->
  <rect x="0" y="590" width="1200" height="40" fill="#0a0f1e"/>
  <rect x="0" y="590" width="1200" height="1" fill="#30363d"/>
  <text x="60" y="616" fill="#8b949e" font-family="Inter, system-ui, sans-serif" font-size="14" font-weight="600">degen0x.com</text>
  <text x="1140" y="616" text-anchor="end" fill="#6e7681" font-family="Inter, system-ui, sans-serif" font-size="13" font-weight="400">Compare · Review · DYOR</text>
</svg>