<svg xmlns="http://www.w3.org/2000/svg" width="1200" height="630" viewBox="0 0 1200 630">
  <defs>
    <linearGradient id="bg" x1="0" y1="0" x2="1" y2="1">
      <stop offset="0%" stop-color="#080d1c"/>
      <stop offset="100%" stop-color="#0d1520"/>
    </linearGradient>
    <linearGradient id="accent" x1="0" y1="0" x2="1" y2="0">
      <stop offset="0%" stop-color="#6366f1"/>
      <stop offset="50%" stop-color="#06b6d4"/>
      <stop offset="100%" stop-color="#d97706"/>
    </linearGradient>
    <linearGradient id="titleGrad" x1="0" y1="0" x2="1" y2="0">
      <stop offset="0%" stop-color="#6366f1"/>
      <stop offset="100%" stop-color="#06b6d4"/>
    </linearGradient>
    <linearGradient id="circleGrad1" x1="0" y1="0" x2="1" y2="1">
      <stop offset="0%" stop-color="#6366f1" stop-opacity="0.2"/>
      <stop offset="100%" stop-color="#06b6d4" stop-opacity="0.05"/>
    </linearGradient>
    <linearGradient id="circleGrad2" x1="0" y1="0" x2="1" y2="1">
      <stop offset="0%" stop-color="#06b6d4" stop-opacity="0.15"/>
      <stop offset="100%" stop-color="#d97706" stop-opacity="0.05"/>
    </linearGradient>
  </defs>
  <rect width="1200" height="630" fill="url(#bg)"/>
  <rect width="1200" height="4" fill="url(#accent)"/>
  <g stroke="#1a2332" stroke-width="1" opacity="0.3">
    <line x1="0" y1="50" x2="1200" y2="50"/>
    <line x1="0" y1="100" x2="1200" y2="100"/>
    <line x1="0" y1="150" x2="1200" y2="150"/>
    <line x1="0" y1="200" x2="1200" y2="200"/>
    <line x1="0" y1="250" x2="1200" y2="250"/>
    <line x1="0" y1="300" x2="1200" y2="300"/>
    <line x1="0" y1="350" x2="1200" y2="350"/>
    <line x1="0" y1="400" x2="1200" y2="400"/>
    <line x1="0" y1="450" x2="1200" y2="450"/>
    <line x1="0" y1="500" x2="1200" y2="500"/>
    <line x1="0" y1="550" x2="1200" y2="550"/>
  </g>
  <circle cx="150" cy="105" r="80" fill="url(#circleGrad1)"/>
  <circle cx="1050" cy="395" r="124" fill="url(#circleGrad2)"/>
  <circle cx="910" cy="128" r="63" fill="url(#circleGrad1)"/>
  <circle cx="250" cy="505" r="91" fill="url(#circleGrad2)"/>
  <g stroke="#6366f1" stroke-width="1.5" opacity="0.2">
    <line x1="800" y1="420" x2="950" y2="460"/>
    <line x1="950" y1="460" x2="1050" y2="430"/>
    <line x1="800" y1="420" x2="900" y2="500"/>
    <line x1="900" y1="500" x2="1050" y2="430"/>
  </g>
  <circle cx="800" cy="420" r="5" fill="#6366f1" opacity="0.4"/>
  <circle cx="950" cy="460" r="5" fill="#06b6d4" opacity="0.4"/>
  <circle cx="1050" cy="430" r="5" fill="#d97706" opacity="0.4"/>
  <circle cx="900" cy="500" r="5" fill="#6366f1" opacity="0.4"/>
  <rect x="120" y="80" width="100" height="36" rx="18" fill="#1a2332" stroke="#6366f1" stroke-width="1.5"/>
  <text x="170" y="104" font-family="Arial, sans-serif" font-size="14" font-weight="600" fill="#6366f1" text-anchor="middle">DeFi</text>
  <rect x="240" y="80" width="140" height="36" rx="18" fill="#1a2332" stroke="#06b6d4" stroke-width="1.5"/>
  <text x="310" y="104" font-family="Arial, sans-serif" font-size="14" font-weight="600" fill="#06b6d4" text-anchor="middle">Cross-Chain</text>
  <rect x="400" y="80" width="130" height="36" rx="18" fill="#1a2332" stroke="#d97706" stroke-width="1.5"/>
  <text x="465" y="104" font-family="Arial, sans-serif" font-size="14" font-weight="600" fill="#d97706" text-anchor="middle">Liquidity</text>
  <text x="600" y="195" font-family="Arial, sans-serif" font-size="48" font-weight="800" fill="url(#titleGrad)" text-anchor="middle">Omnichain DeFi &amp;</text>
  <text x="600" y="250" font-family="Arial, sans-serif" font-size="48" font-weight="800" fill="url(#titleGrad)" text-anchor="middle">Unified Liquidity</text>
  <text x="600" y="295" font-family="Arial, sans-serif" font-size="20" fill="#8b949e" text-anchor="middle">How Cross-Chain Liquidity Protocols Are Unifying DeFi</text>
  <g>
    <rect x="150" y="320" width="200" height="72" rx="8" fill="#1a2332" stroke="#6366f1" stroke-width="1" opacity="0.6"/>
    <text x="250" y="348" font-family="Arial, sans-serif" font-size="24" font-weight="700" fill="#6366f1" text-anchor="middle">$50B+</text>
    <text x="250" y="370" font-family="Arial, sans-serif" font-size="13" fill="#8b949e" text-anchor="middle">Cross-Chain TVL</text>
    <rect x="500" y="320" width="200" height="72" rx="8" fill="#1a2332" stroke="#06b6d4" stroke-width="1" opacity="0.6"/>
    <text x="600" y="348" font-family="Arial, sans-serif" font-size="24" font-weight="700" fill="#06b6d4" text-anchor="middle">15+</text>
    <text x="600" y="370" font-family="Arial, sans-serif" font-size="13" fill="#8b949e" text-anchor="middle">Supported Chains</text>
    <rect x="850" y="320" width="200" height="72" rx="8" fill="#1a2332" stroke="#d97706" stroke-width="1" opacity="0.6"/>
    <text x="950" y="348" font-family="Arial, sans-serif" font-size="24" font-weight="700" fill="#d97706" text-anchor="middle">1-Click</text>
    <text x="950" y="370" font-family="Arial, sans-serif" font-size="13" fill="#8b949e" text-anchor="middle">Cross-Chain Swaps</text>
  </g>
  <g>
    <circle cx="180" cy="440" r="4" fill="#6366f1"/>
    <text x="200" y="447" font-family="Arial, sans-serif" font-size="15" fill="#c9d1d9">Intent-Based Bridging</text>
    <circle cx="180" cy="475" r="4" fill="#06b6d4"/>
    <text x="200" y="482" font-family="Arial, sans-serif" font-size="15" fill="#c9d1d9">Unified Liquidity Pools</text>
    <circle cx="180" cy="510" r="4" fill="#d97706"/>
    <text x="200" y="517" font-family="Arial, sans-serif" font-size="15" fill="#c9d1d9">Chain Abstraction</text>
    <circle cx="650" cy="440" r="4" fill="#6366f1"/>
    <text x="670" y="447" font-family="Arial, sans-serif" font-size="15" fill="#c9d1d9">Cross-Chain Yield</text>
    <circle cx="650" cy="475" r="4" fill="#06b6d4"/>
    <text x="670" y="482" font-family="Arial, sans-serif" font-size="15" fill="#c9d1d9">LayerZero &amp; Wormhole</text>
    <circle cx="650" cy="510" r="4" fill="#d97706"/>
    <text x="670" y="517" font-family="Arial, sans-serif" font-size="15" fill="#c9d1d9">Solver Networks</text>
  </g>
  <rect y="590" width="1200" height="40" fill="#0a0f18" stroke="#1a2332" stroke-width="1"/>
  <text x="40" y="615" font-family="Arial, sans-serif" font-size="14" font-weight="700" fill="#6366f1">degen0x</text>
  <text x="1160" y="615" font-family="Arial, sans-serif" font-size="14" fill="#8b949e" text-anchor="end">April 2026</text>
</svg>
