<svg xmlns="http://www.w3.org/2000/svg" width="1200" height="630" viewBox="0 0 1200 630">
  <defs>
    <linearGradient id="bg2" x1="0" y1="0" x2="1" y2="1">
      <stop offset="0%" stop-color="#080d1c"/>
      <stop offset="100%" stop-color="#0f1729"/>
    </linearGradient>
    <linearGradient id="accent2" x1="0" y1="0" x2="1" y2="0">
      <stop offset="0%" stop-color="#4f46e5"/>
      <stop offset="50%" stop-color="#0891b2"/>
      <stop offset="100%" stop-color="#d97706"/>
    </linearGradient>
    <linearGradient id="chartLine" x1="0" y1="0" x2="1" y2="0">
      <stop offset="0%" stop-color="#6366f1"/>
      <stop offset="100%" stop-color="#06b6d4"/>
    </linearGradient>
    <linearGradient id="chartFill" x1="0" y1="0" x2="0" y2="1">
      <stop offset="0%" stop-color="#6366f1" stop-opacity="0.3"/>
      <stop offset="100%" stop-color="#6366f1" stop-opacity="0"/>
    </linearGradient>
    <filter id="softGlow2">
      <feGaussianBlur stdDeviation="40" result="blur"/>
      <feMerge><feMergeNode in="blur"/><feMergeNode in="SourceGraphic"/></feMerge>
    </filter>
  </defs>
  <rect width="1200" height="630" fill="url(#bg2)"/>
  <rect width="1200" height="4" fill="url(#accent2)"/>
  <circle cx="1000" cy="300" r="200" fill="#6366f1" opacity="0.05" filter="url(#softGlow2)"/>
  <circle cx="100" cy="550" r="150" fill="#0891b2" opacity="0.04" filter="url(#softGlow2)"/>
  <text x="60" y="70" font-family="Inter, sans-serif" font-size="22" font-weight="700" fill="#6366f1" letter-spacing="-0.02em">degen0x</text>
  <text x="60" y="200" font-family="Inter, sans-serif" font-size="60" font-weight="800" fill="#e6edf3" letter-spacing="-0.03em">Portfolio Tracker</text>
  <text x="60" y="255" font-family="Inter, sans-serif" font-size="24" fill="#8b949e">Multi-chain portfolio tracking — ETH, SOL, Base &amp; more</text>
  <g transform="translate(60, 290)">
    <text x="0" y="50" font-family="Inter, sans-serif" font-size="48" font-weight="800" fill="#e6edf3">$245,832</text>
    <text x="340" y="50" font-family="Inter, sans-serif" font-size="22" font-weight="600" fill="#22c55e">+5.2%</text>
    <text x="430" y="50" font-family="Inter, sans-serif" font-size="18" fill="#8b949e">24h</text>
  </g>
  <g transform="translate(600, 160)">
    <rect width="520" height="260" rx="16" fill="rgba(255,255,255,0.03)" stroke="rgba(255,255,255,0.06)" stroke-width="1"/>
    <line x1="40" y1="40" x2="480" y2="40" stroke="#30363d" stroke-width="0.5"/>
    <line x1="40" y1="100" x2="480" y2="100" stroke="#30363d" stroke-width="0.5"/>
    <line x1="40" y1="160" x2="480" y2="160" stroke="#30363d" stroke-width="0.5"/>
    <line x1="40" y1="220" x2="480" y2="220" stroke="#30363d" stroke-width="0.5"/>
    <polygon points="40,220 70,190 110,180 150,170 190,150 230,160 270,130 310,120 350,100 390,90 430,70 470,55 480,220" fill="url(#chartFill)"/>
    <polyline points="40,190 70,190 110,180 150,170 190,150 230,160 270,130 310,120 350,100 390,90 430,70 470,55" fill="none" stroke="url(#chartLine)" stroke-width="3" stroke-linecap="round" stroke-linejoin="round"/>
    <circle cx="470" cy="55" r="5" fill="#06b6d4"/>
    <circle cx="470" cy="55" r="10" fill="#06b6d4" opacity="0.2"/>
    <text x="40" y="248" font-family="Inter, sans-serif" font-size="11" fill="#6e7681">Mar 1</text>
    <text x="250" y="248" font-family="Inter, sans-serif" font-size="11" fill="#6e7681">Mar 8</text>
    <text x="450" y="248" font-family="Inter, sans-serif" font-size="11" fill="#6e7681">Mar 15</text>
  </g>
  <g transform="translate(60, 410)">
    <rect width="120" height="40" rx="20" fill="rgba(99,102,241,0.15)" stroke="rgba(99,102,241,0.3)" stroke-width="1"/>
    <text x="60" y="26" text-anchor="middle" font-family="Inter, sans-serif" font-size="14" font-weight="600" fill="#818cf8">Ethereum</text>
  </g>
  <g transform="translate(200, 410)">
    <rect width="100" height="40" rx="20" fill="rgba(153,69,255,0.15)" stroke="rgba(153,69,255,0.3)" stroke-width="1"/>
    <text x="50" y="26" text-anchor="middle" font-family="Inter, sans-serif" font-size="14" font-weight="600" fill="#a78bfa">Solana</text>
  </g>
  <g transform="translate(320, 410)">
    <rect width="90" height="40" rx="20" fill="rgba(88,166,255,0.15)" stroke="rgba(88,166,255,0.3)" stroke-width="1"/>
    <text x="45" y="26" text-anchor="middle" font-family="Inter, sans-serif" font-size="14" font-weight="600" fill="#58a6ff">Base</text>
  </g>
  <g transform="translate(60, 480)">
    <rect width="500" height="44" rx="8" fill="rgba(255,255,255,0.04)" stroke="rgba(255,255,255,0.06)" stroke-width="1"/>
    <text x="16" y="28" font-family="Inter, sans-serif" font-size="15" font-weight="600" fill="#e6edf3">ETH</text>
    <text x="80" y="28" font-family="Inter, sans-serif" font-size="14" fill="#8b949e">12.5 ETH</text>
    <text x="300" y="28" font-family="Inter, sans-serif" font-size="15" font-weight="600" fill="#e6edf3">$47,250</text>
    <text x="420" y="28" font-family="Inter, sans-serif" font-size="14" font-weight="600" fill="#22c55e">+5.2%</text>
  </g>
  <g transform="translate(60, 532)">
    <rect width="500" height="44" rx="8" fill="rgba(255,255,255,0.03)" stroke="rgba(255,255,255,0.05)" stroke-width="1"/>
    <text x="16" y="28" font-family="Inter, sans-serif" font-size="15" font-weight="600" fill="#e6edf3">BTC</text>
    <text x="80" y="28" font-family="Inter, sans-serif" font-size="14" fill="#8b949e">0.35 BTC</text>
    <text x="300" y="28" font-family="Inter, sans-serif" font-size="15" font-weight="600" fill="#e6edf3">$28,857</text>
    <text x="420" y="28" font-family="Inter, sans-serif" font-size="14" font-weight="600" fill="#22c55e">+3.8%</text>
  </g>
  <rect y="610" width="1200" height="20" fill="rgba(0,0,0,0.3)"/>
  <text x="1140" y="600" text-anchor="end" font-family="Inter, sans-serif" font-size="16" fill="#6e7681">degen0x.com</text>
</svg>
