<svg width="1200" height="630" viewBox="0 0 1200 630" xmlns="http://www.w3.org/2000/svg">
  <defs>
    <linearGradient id="bg" x1="0" y1="0" x2="1" y2="1">
      <stop offset="0%" stop-color="#080d1c"/>
      <stop offset="100%" stop-color="#0d1530"/>
    </linearGradient>
    <linearGradient id="accent" x1="0" y1="0" x2="1" y2="0">
      <stop offset="0%" stop-color="#6366f1"/>
      <stop offset="50%" stop-color="#06b6d4"/>
      <stop offset="100%" stop-color="#d97706"/>
    </linearGradient>
    <linearGradient id="titleGrad" x1="0" y1="0" x2="1" y2="0">
      <stop offset="0%" stop-color="#22c55e"/>
      <stop offset="100%" stop-color="#06b6d4"/>
    </linearGradient>
    <linearGradient id="yieldFill" x1="0" y1="0" x2="0" y2="1">
      <stop offset="0%" stop-color="#22c55e" stop-opacity="0.25"/>
      <stop offset="100%" stop-color="#22c55e" stop-opacity="0"/>
    </linearGradient>
  </defs>

  <!-- Background -->
  <rect width="1200" height="630" fill="url(#bg)"/>
  <rect x="0" y="0" width="1200" height="4" fill="url(#accent)"/>

  <!-- Decorative -->
  <circle cx="1000" cy="200" r="200" fill="#22c55e" opacity="0.03"/>
  <circle cx="150" cy="500" r="130" fill="#06b6d4" opacity="0.03"/>

  <!-- Yield bars visualization (right side) -->
  <g transform="translate(720, 130)">
    <rect x="0" y="0" width="400" height="340" rx="16" fill="rgba(255,255,255,0.03)" stroke="rgba(255,255,255,0.06)" stroke-width="1"/>
    <text x="200" y="30" font-family="Inter, system-ui, sans-serif" font-size="13" fill="#8b949e" text-anchor="middle" font-weight="600">Real Yield Protocols (APY)</text>

    <!-- Bars -->
    <rect x="40" y="55" width="260" height="32" rx="6" fill="#22c55e" opacity="0.2"/>
    <rect x="40" y="55" width="260" height="32" rx="6" fill="#22c55e" opacity="0.6"/>
    <text x="55" y="76" font-family="Inter, system-ui, sans-serif" font-size="12" fill="#fff" font-weight="600">GMX</text>
    <text x="310" y="76" font-family="Inter, system-ui, sans-serif" font-size="12" fill="#22c55e" font-weight="700">18.5%</text>

    <rect x="40" y="97" width="220" height="32" rx="6" fill="#06b6d4" opacity="0.2"/>
    <rect x="40" y="97" width="220" height="32" rx="6" fill="#06b6d4" opacity="0.5"/>
    <text x="55" y="118" font-family="Inter, system-ui, sans-serif" font-size="12" fill="#fff" font-weight="600">Aave</text>
    <text x="270" y="118" font-family="Inter, system-ui, sans-serif" font-size="12" fill="#06b6d4" font-weight="700">12.3%</text>

    <rect x="40" y="139" width="190" height="32" rx="6" fill="#8b5cf6" opacity="0.2"/>
    <rect x="40" y="139" width="190" height="32" rx="6" fill="#8b5cf6" opacity="0.5"/>
    <text x="55" y="160" font-family="Inter, system-ui, sans-serif" font-size="12" fill="#fff" font-weight="600">Pendle</text>
    <text x="240" y="160" font-family="Inter, system-ui, sans-serif" font-size="12" fill="#8b5cf6" font-weight="700">10.8%</text>

    <rect x="40" y="181" width="160" height="32" rx="6" fill="#f59e0b" opacity="0.2"/>
    <rect x="40" y="181" width="160" height="32" rx="6" fill="#f59e0b" opacity="0.5"/>
    <text x="55" y="202" font-family="Inter, system-ui, sans-serif" font-size="12" fill="#fff" font-weight="600">Lido</text>
    <text x="210" y="202" font-family="Inter, system-ui, sans-serif" font-size="12" fill="#f59e0b" font-weight="700">8.2%</text>

    <rect x="40" y="223" width="130" height="32" rx="6" fill="#6366f1" opacity="0.2"/>
    <rect x="40" y="223" width="130" height="32" rx="6" fill="#6366f1" opacity="0.5"/>
    <text x="55" y="244" font-family="Inter, system-ui, sans-serif" font-size="12" fill="#fff" font-weight="600">Curve</text>
    <text x="180" y="244" font-family="Inter, system-ui, sans-serif" font-size="12" fill="#6366f1" font-weight="700">6.5%</text>

    <!-- Real yield label -->
    <rect x="100" y="275" width="200" height="40" rx="8" fill="rgba(34,197,94,0.1)" stroke="#22c55e" stroke-width="1" stroke-dasharray="4,4"/>
    <text x="200" y="300" font-family="Inter, system-ui, sans-serif" font-size="12" fill="#22c55e" text-anchor="middle" font-weight="600">Revenue-Backed, Not Inflationary</text>
  </g>

  <!-- Logo -->
  <circle cx="80" cy="60" r="20" fill="none" stroke="#818cf8" stroke-width="2"/>
  <text x="80" y="67" font-family="Inter, system-ui, sans-serif" font-size="14" fill="#818cf8" text-anchor="middle" font-weight="800">0x</text>

  <!-- Category badge -->
  <rect x="60" y="150" width="52" height="24" rx="12" fill="#22c55e"/>
  <text x="86" y="166" font-family="Inter, system-ui, sans-serif" font-size="11" fill="#0d1117" text-anchor="middle" font-weight="600">DeFi</text>

  <!-- Title -->
  <text x="60" y="225" font-family="Inter, system-ui, sans-serif" font-size="48" fill="url(#titleGrad)" font-weight="800" letter-spacing="-1">Real Yield DeFi</text>
  <text x="60" y="280" font-family="Inter, system-ui, sans-serif" font-size="44" fill="#e6edf3" font-weight="800" letter-spacing="-0.5">Guide 2026</text>

  <!-- Subtitle -->
  <text x="60" y="325" font-family="Inter, system-ui, sans-serif" font-size="17" fill="#8b949e">Revenue-backed yields that actually last</text>

  <!-- Stats row -->
  <rect x="60" y="360" width="170" height="65" rx="10" fill="rgba(255,255,255,0.04)" stroke="rgba(255,255,255,0.06)" stroke-width="1"/>
  <text x="75" y="385" font-family="Inter, system-ui, sans-serif" font-size="11" fill="#8b949e">Avg Real Yield</text>
  <text x="75" y="410" font-family="Inter, system-ui, sans-serif" font-size="22" fill="#22c55e" font-weight="700">8-18% APY</text>

  <rect x="245" y="360" width="170" height="65" rx="10" fill="rgba(255,255,255,0.04)" stroke="rgba(255,255,255,0.06)" stroke-width="1"/>
  <text x="260" y="385" font-family="Inter, system-ui, sans-serif" font-size="11" fill="#8b949e">Protocols Covered</text>
  <text x="260" y="410" font-family="Inter, system-ui, sans-serif" font-size="22" fill="#06b6d4" font-weight="700">10+</text>

  <rect x="430" y="360" width="170" height="65" rx="10" fill="rgba(255,255,255,0.04)" stroke="rgba(255,255,255,0.06)" stroke-width="1"/>
  <text x="445" y="385" font-family="Inter, system-ui, sans-serif" font-size="11" fill="#8b949e">Source</text>
  <text x="445" y="410" font-family="Inter, system-ui, sans-serif" font-size="22" fill="#f59e0b" font-weight="700">Revenue</text>

  <!-- Bottom bar -->
  <rect x="0" y="590" width="1200" height="40" fill="rgba(0,0,0,0.3)"/>
  <text x="60" y="615" font-family="Inter, system-ui, sans-serif" font-size="14" fill="#6e7681">degen0x.com</text>
  <text x="1140" y="615" font-family="Inter, system-ui, sans-serif" font-size="13" fill="#6e7681" text-anchor="end">Complete Guide · March 2026</text>
</svg>