<svg viewBox="0 0 1200 630" xmlns="http://www.w3.org/2000/svg">
  <defs>
    <linearGradient id="bgGradient" x1="0%" y1="0%" x2="100%" y2="100%">
      <stop offset="0%" style="stop-color:#080d1c;stop-opacity:1" />
      <stop offset="100%" style="stop-color:#0f1629;stop-opacity:1" />
    </linearGradient>
    <linearGradient id="accentGradient" x1="0%" y1="0%" x2="100%" y2="0%">
      <stop offset="0%" style="stop-color:#3b82f6;stop-opacity:1" />
      <stop offset="50%" style="stop-color:#1d4ed8;stop-opacity:1" />
      <stop offset="100%" style="stop-color:#1e40af;stop-opacity:1" />
    </linearGradient>
    <linearGradient id="titleGradient" x1="0%" y1="0%" x2="100%" y2="0%">
      <stop offset="0%" style="stop-color:#ffffff;stop-opacity:1" />
      <stop offset="100%" style="stop-color:#e0e6ed;stop-opacity:1" />
    </linearGradient>
    <filter id="glow" x="-50%" y="-50%" width="200%" height="200%">
      <feGaussianBlur stdDeviation="3" result="coloredBlur"/>
      <feMerge><feMergeNode in="coloredBlur"/><feMergeNode in="SourceGraphic"/></feMerge>
    </filter>
  </defs>
  <rect width="1200" height="630" fill="url(#bgGradient)"/>
  <rect width="1200" height="4" fill="url(#accentGradient)"/>
  <circle cx="150" cy="110" r="85" fill="#3b82f6" opacity="0.08" filter="url(#glow)"/>
  <circle cx="1070" cy="520" r="120" fill="#1d4ed8" opacity="0.06" filter="url(#glow)"/>
  <rect x="60" y="60" width="200" height="40" rx="20" fill="#3b82f6" opacity="0.15" stroke="#3b82f6" stroke-width="2"/>
  <text x="160" y="87" font-family="system-ui, sans-serif" font-size="14" font-weight="bold" fill="#3b82f6" text-anchor="middle">STABLECOINS</text>
  <text x="60" y="160" font-family="system-ui, sans-serif" font-size="42" font-weight="bold" fill="url(#titleGradient)">Stablecoins Explained</text>
  <text x="60" y="210" font-family="system-ui, sans-serif" font-size="20" fill="#8b949e">USDC, USDT, DAI — the backbone of crypto finance</text>
  <g>
    <rect x="750" y="80" width="400" height="400" rx="12" fill="#0a1427" opacity="0.5" stroke="#1e293b" stroke-width="1"/>
    <circle cx="820" cy="180" r="28" fill="none" stroke="#3b82f6" stroke-width="2" opacity="0.9"/>
    <text x="820" y="188" font-family="system-ui, sans-serif" font-size="16" fill="#3b82f6" text-anchor="middle" font-weight="bold">$</text>
    <circle cx="900" cy="160" r="28" fill="none" stroke="#3b82f6" stroke-width="2" opacity="0.85"/>
    <text x="900" y="168" font-family="system-ui, sans-serif" font-size="16" fill="#3b82f6" text-anchor="middle" font-weight="bold">$</text>
    <circle cx="980" cy="190" r="28" fill="none" stroke="#3b82f6" stroke-width="2" opacity="0.8"/>
    <text x="980" y="198" font-family="system-ui, sans-serif" font-size="16" fill="#3b82f6" text-anchor="middle" font-weight="bold">$</text>
    <circle cx="850" cy="290" r="26" fill="none" stroke="#06b6d4" stroke-width="2" opacity="0.75"/>
    <path d="M 835 290 L 865 290 M 850 275 L 850 305" stroke="#06b6d4" stroke-width="1.5" opacity="0.8"/>
    <circle cx="950" cy="310" r="26" fill="none" stroke="#06b6d4" stroke-width="2" opacity="0.75"/>
    <path d="M 935 310 L 965 310 M 950 295 L 950 325" stroke="#06b6d4" stroke-width="1.5" opacity="0.8"/>
    <path d="M 820 208 L 850 264 M 900 188 L 950 284 M 980 218 L 950 284" stroke="#3b82f6" stroke-width="1" opacity="0.5"/>
    <text x="900" y="410" font-family="system-ui, sans-serif" font-size="14" fill="#3b82f6" text-anchor="middle">Stablecoin Types</text>
  </g>
  <rect y="600" width="1200" height="30" fill="#0a1427" opacity="0.6"/>
  <circle cx="60" cy="615" r="10" fill="#6366f1"/>
  <text x="75" y="621" font-family="system-ui, sans-serif" font-size="13" fill="#8b949e">degen0x.com</text>
</svg>