<svg width="1200" height="630" viewBox="0 0 1200 630" fill="none" xmlns="http://www.w3.org/2000/svg">
  <defs>
    <linearGradient id="bg" x1="0" y1="0" x2="1200" y2="630" gradientUnits="userSpaceOnUse">
      <stop offset="0%" stop-color="#080d1c"/>
      <stop offset="100%" stop-color="#0a0f22"/>
    </linearGradient>
    <linearGradient id="accent" x1="0" y1="0" x2="1200" y2="0" gradientUnits="userSpaceOnUse">
      <stop offset="0%" stop-color="#4f46e5"/>
      <stop offset="50%" stop-color="#0891b2"/>
      <stop offset="100%" stop-color="#d97706"/>
    </linearGradient>
    <linearGradient id="shield" x1="0" y1="0" x2="1" y2="1">
      <stop offset="0%" stop-color="#6366f1"/>
      <stop offset="100%" stop-color="#a855f7"/>
    </linearGradient>
    <filter id="blur1" x="-50%" y="-50%" width="200%" height="200%">
      <feGaussianBlur in="SourceGraphic" stdDeviation="60"/>
    </filter>
    <filter id="blur2" x="-50%" y="-50%" width="200%" height="200%">
      <feGaussianBlur in="SourceGraphic" stdDeviation="40"/>
    </filter>
  </defs>
  <rect width="1200" height="630" fill="url(#bg)"/>
  <rect x="0" y="0" width="1200" height="4" fill="url(#accent)"/>
  <circle cx="900" cy="300" r="250" fill="#6366f1" opacity="0.06" filter="url(#blur1)"/>
  <circle cx="200" cy="500" r="180" fill="#ef4444" opacity="0.04" filter="url(#blur2)"/>
  <circle cx="1050" cy="100" r="120" fill="#0891b2" opacity="0.05" filter="url(#blur2)"/>
  <g opacity="0.03" stroke="#ffffff" stroke-width="0.5">
    <line x1="200" y1="0" x2="200" y2="630"/>
    <line x1="400" y1="0" x2="400" y2="630"/>
    <line x1="600" y1="0" x2="600" y2="630"/>
    <line x1="800" y1="0" x2="800" y2="630"/>
    <line x1="1000" y1="0" x2="1000" y2="630"/>
    <line x1="0" y1="157" x2="1200" y2="157"/>
    <line x1="0" y1="315" x2="1200" y2="315"/>
    <line x1="0" y1="472" x2="1200" y2="472"/>
  </g>
  <g transform="translate(80, 100)">
    <path d="M40 8 L72 22 V44 C72 64 58 82 40 88 C22 82 8 64 8 44 V22 L40 8Z" fill="url(#shield)" opacity="0.9"/>
    <path d="M28 44 L36 52 L54 34" stroke="white" stroke-width="4" stroke-linecap="round" stroke-linejoin="round" fill="none"/>
  </g>
  <text x="80" y="72" font-family="Inter, system-ui, sans-serif" font-size="18" font-weight="700" fill="#8b949e" letter-spacing="0.05em">degen0x</text>
  <text x="80" y="270" font-family="Inter, system-ui, sans-serif" font-size="56" font-weight="800" fill="#e6edf3" letter-spacing="-0.02em">Token Security</text>
  <text x="80" y="340" font-family="Inter, system-ui, sans-serif" font-size="56" font-weight="800" fill="#e6edf3" letter-spacing="-0.02em">Scanner</text>
  <text x="80" y="390" font-family="Inter, system-ui, sans-serif" font-size="22" fill="#8b949e">Detect rug pulls, honeypots &amp; scam tokens before you buy</text>
  <g transform="translate(80, 430)">
    <rect x="0" y="0" width="160" height="40" rx="8" fill="#22c55e" opacity="0.15"/>
    <rect x="0" y="0" width="160" height="40" rx="8" stroke="#22c55e" stroke-width="1" stroke-opacity="0.3" fill="none"/>
    <circle cx="20" cy="20" r="6" fill="#22c55e"/>
    <text x="36" y="25" font-family="Inter, system-ui, sans-serif" font-size="14" font-weight="600" fill="#22c55e">Contract Verified</text>
    <rect x="175" y="0" width="160" height="40" rx="8" fill="#f59e0b" opacity="0.15"/>
    <rect x="175" y="0" width="160" height="40" rx="8" stroke="#f59e0b" stroke-width="1" stroke-opacity="0.3" fill="none"/>
    <circle cx="195" cy="20" r="6" fill="#f59e0b"/>
    <text x="211" y="25" font-family="Inter, system-ui, sans-serif" font-size="14" font-weight="600" fill="#f59e0b">Liquidity Lock</text>
    <rect x="350" y="0" width="160" height="40" rx="8" fill="#ef4444" opacity="0.15"/>
    <rect x="350" y="0" width="160" height="40" rx="8" stroke="#ef4444" stroke-width="1" stroke-opacity="0.3" fill="none"/>
    <circle cx="370" cy="20" r="6" fill="#ef4444"/>
    <text x="386" y="25" font-family="Inter, system-ui, sans-serif" font-size="14" font-weight="600" fill="#ef4444">Honeypot Risk</text>
  </g>
  <g transform="translate(80, 490)">
    <text x="0" y="16" font-family="Inter, system-ui, sans-serif" font-size="13" fill="#6e7681">Supports:</text>
    <text x="75" y="16" font-family="Inter, system-ui, sans-serif" font-size="13" font-weight="600" fill="#8b949e">Ethereum · BSC · Arbitrum · Base · Polygon · Solana</text>
  </g>
  <g transform="translate(780, 120)" opacity="0.6">
    <rect x="0" y="0" width="340" height="380" rx="16" fill="white" opacity="0.03"/>
    <rect x="0" y="0" width="340" height="380" rx="16" stroke="white" stroke-width="1" stroke-opacity="0.06" fill="none"/>
    <circle cx="170" cy="100" r="60" stroke="#22c55e" stroke-width="6" fill="none" opacity="0.6"/>
    <text x="170" y="115" font-family="Inter, system-ui, sans-serif" font-size="36" font-weight="800" fill="#22c55e" text-anchor="middle">85</text>
    <rect x="24" y="190" width="292" height="36" rx="6" fill="white" opacity="0.03"/>
    <circle cx="44" cy="208" r="5" fill="#22c55e"/>
    <rect x="60" y="203" width="120" height="10" rx="3" fill="white" opacity="0.08"/>
    <rect x="24" y="236" width="292" height="36" rx="6" fill="white" opacity="0.03"/>
    <circle cx="44" cy="254" r="5" fill="#22c55e"/>
    <rect x="60" y="249" width="100" height="10" rx="3" fill="white" opacity="0.08"/>
    <rect x="24" y="282" width="292" height="36" rx="6" fill="white" opacity="0.03"/>
    <circle cx="44" cy="300" r="5" fill="#f59e0b"/>
    <rect x="60" y="295" width="140" height="10" rx="3" fill="white" opacity="0.08"/>
    <rect x="24" y="328" width="292" height="36" rx="6" fill="white" opacity="0.03"/>
    <circle cx="44" cy="346" r="5" fill="#ef4444"/>
    <rect x="60" y="341" width="110" height="10" rx="3" fill="white" opacity="0.08"/>
  </g>
  <rect x="0" y="590" width="1200" height="40" fill="#080d1c" opacity="0.8"/>
  <text x="80" y="616" font-family="Inter, system-ui, sans-serif" font-size="15" font-weight="600" fill="#6366f1">degen0x.com</text>
  <text x="1120" y="616" font-family="Inter, system-ui, sans-serif" font-size="13" fill="#6e7681" text-anchor="end">Free · No Signup · 6 Chains</text>
</svg>
