<svg viewBox="0 0 1200 630" xmlns="http://www.w3.org/2000/svg">
  <defs>
    <linearGradient id="accentGrad" x1="0%" y1="0%" x2="100%" y2="100%">
      <stop offset="0%" style="stop-color:#4f46e5;stop-opacity:1" />
      <stop offset="50%" style="stop-color:#0891b2;stop-opacity:1" />
      <stop offset="100%" style="stop-color:#d97706;stop-opacity:1" />
    </linearGradient>
    <filter id="glow">
      <feGaussianBlur stdDeviation="2" result="coloredBlur"/>
      <feMerge><feMergeNode in="coloredBlur"/><feMergeNode in="SourceGraphic"/></feMerge>
    </filter>
  </defs>
  <rect width="1200" height="630" fill="#080d1c"/>
  <ellipse cx="110" cy="100" rx="200" ry="180" fill="url(#accentGrad)" opacity="0.07"/>
  <ellipse cx="1090" cy="530" rx="200" ry="180" fill="url(#accentGrad)" opacity="0.05"/>
  <rect x="60" y="80" width="1080" height="470" rx="20" fill="#ffffff" opacity="0.04" stroke="url(#accentGrad)" stroke-width="1"/>
  <!-- Document icon -->
  <g transform="translate(555, 115)" filter="url(#glow)" opacity="0.5">
    <rect x="5" y="0" width="70" height="90" rx="6" fill="none" stroke="url(#accentGrad)" stroke-width="3"/>
    <line x1="20" y1="25" x2="60" y2="25" stroke="#8b949e" stroke-width="2"/>
    <line x1="20" y1="40" x2="55" y2="40" stroke="#8b949e" stroke-width="2"/>
    <line x1="20" y1="55" x2="50" y2="55" stroke="#8b949e" stroke-width="2"/>
    <path d="M38 68 L48 78 L65 58" fill="none" stroke="#22c55e" stroke-width="3" stroke-linecap="round" stroke-linejoin="round"/>
  </g>
  <text x="600" y="285" font-family="Arial, sans-serif" font-size="72" font-weight="bold" fill="white" text-anchor="middle">Crypto Taxes</text>
  <text x="600" y="340" font-family="Arial, sans-serif" font-size="28" fill="#8b949e" text-anchor="middle">Country Guides, Calculators &amp; Tax Software</text>
  <line x1="350" y1="370" x2="850" y2="370" stroke="url(#accentGrad)" stroke-width="2" opacity="0.4"/>
  <rect x="240" y="400" width="140" height="40" rx="20" fill="#6366f1" opacity="0.15"/>
  <text x="310" y="426" font-family="Arial, sans-serif" font-size="15" fill="#6366f1" text-anchor="middle">USA</text>
  <rect x="410" y="400" width="140" height="40" rx="20" fill="#06b6d4" opacity="0.15"/>
  <text x="480" y="426" font-family="Arial, sans-serif" font-size="15" fill="#06b6d4" text-anchor="middle">UK</text>
  <rect x="580" y="400" width="160" height="40" rx="20" fill="#8b5cf6" opacity="0.15"/>
  <text x="660" y="426" font-family="Arial, sans-serif" font-size="15" fill="#8b5cf6" text-anchor="middle">Canada</text>
  <rect x="770" y="400" width="180" height="40" rx="20" fill="#f59e0b" opacity="0.15"/>
  <text x="860" y="426" font-family="Arial, sans-serif" font-size="15" fill="#f59e0b" text-anchor="middle">Australia</text>
  <text x="600" y="580" font-family="Arial, sans-serif" font-size="20" fill="#8b949e" text-anchor="middle" opacity="0.8">degen0x.com</text>
</svg>