<svg viewBox="0 0 1200 630" xmlns="http://www.w3.org/2000/svg">
  <defs>
    <linearGradient id="accentGrad" x1="0%" y1="0%" x2="100%" y2="100%">
      <stop offset="0%" style="stop-color:#4f46e5;stop-opacity:1" />
      <stop offset="50%" style="stop-color:#0891b2;stop-opacity:1" />
      <stop offset="100%" style="stop-color:#d97706;stop-opacity:1" />
    </linearGradient>
    <filter id="glow">
      <feGaussianBlur stdDeviation="2" result="coloredBlur"/>
      <feMerge><feMergeNode in="coloredBlur"/><feMergeNode in="SourceGraphic"/></feMerge>
    </filter>
  </defs>
  <rect width="1200" height="630" fill="#080d1c"/>
  <ellipse cx="120" cy="80" rx="220" ry="180" fill="url(#accentGrad)" opacity="0.07"/>
  <ellipse cx="1080" cy="550" rx="200" ry="180" fill="url(#accentGrad)" opacity="0.05"/>
  <rect x="60" y="80" width="1080" height="470" rx="20" fill="#ffffff" opacity="0.04" stroke="url(#accentGrad)" stroke-width="1"/>
  <!-- Tool icons -->
  <g opacity="0.25">
    <text x="140" y="200" font-size="48" fill="url(#accentGrad)">&#x1F4CA;</text>
    <text x="980" y="200" font-size="48" fill="url(#accentGrad)">&#x2699;</text>
    <text x="140" y="460" font-size="40" fill="url(#accentGrad)">&#x1F4B9;</text>
    <text x="1000" y="460" font-size="40" fill="url(#accentGrad)">&#x1F50D;</text>
  </g>
  <!-- Grid dots decoration -->
  <g opacity="0.08" fill="#6366f1">
    <circle cx="800" cy="160" r="3"/><circle cx="830" cy="160" r="3"/><circle cx="860" cy="160" r="3"/>
    <circle cx="800" cy="190" r="3"/><circle cx="830" cy="190" r="3"/><circle cx="860" cy="190" r="3"/>
    <circle cx="800" cy="220" r="3"/><circle cx="830" cy="220" r="3"/><circle cx="860" cy="220" r="3"/>
  </g>
  <text x="600" y="240" font-family="Arial, sans-serif" font-size="72" font-weight="bold" fill="white" text-anchor="middle">Crypto Tools</text>
  <text x="600" y="310" font-family="Arial, sans-serif" font-size="30" fill="#8b949e" text-anchor="middle">Calculators, Trackers &amp; Analytics</text>
  <line x1="350" y1="340" x2="850" y2="340" stroke="url(#accentGrad)" stroke-width="2" opacity="0.4"/>
  <!-- Feature pills -->
  <rect x="240" y="380" width="200" height="44" rx="22" fill="#6366f1" opacity="0.15"/>
  <text x="340" y="408" font-family="Arial, sans-serif" font-size="16" fill="#6366f1" text-anchor="middle">DCA Calculator</text>
  <rect x="480" y="380" width="240" height="44" rx="22" fill="#06b6d4" opacity="0.15"/>
  <text x="600" y="408" font-family="Arial, sans-serif" font-size="16" fill="#06b6d4" text-anchor="middle">Portfolio Tracker</text>
  <rect x="760" y="380" width="200" height="44" rx="22" fill="#f59e0b" opacity="0.15"/>
  <text x="860" y="408" font-family="Arial, sans-serif" font-size="16" fill="#f59e0b" text-anchor="middle">Gas Tracker</text>
  <rect x="340" y="440" width="240" height="44" rx="22" fill="#22c55e" opacity="0.15"/>
  <text x="460" y="468" font-family="Arial, sans-serif" font-size="16" fill="#22c55e" text-anchor="middle">Staking APY</text>
  <rect x="620" y="440" width="240" height="44" rx="22" fill="#8b5cf6" opacity="0.15"/>
  <text x="740" y="468" font-family="Arial, sans-serif" font-size="16" fill="#8b5cf6" text-anchor="middle">Whale Tracker</text>
  <text x="600" y="580" font-family="Arial, sans-serif" font-size="20" fill="#8b949e" text-anchor="middle" opacity="0.8">degen0x.com</text>
</svg>