<svg width="1200" height="630" viewBox="0 0 1200 630" fill="none" xmlns="http://www.w3.org/2000/svg">
  <defs>
    <linearGradient id="bg" x1="0" y1="0" x2="1200" y2="630" gradientUnits="userSpaceOnUse">
      <stop offset="0%" stop-color="#080d1c"/>
      <stop offset="100%" stop-color="#0a0f22"/>
    </linearGradient>
    <linearGradient id="accent" x1="0" y1="0" x2="1200" y2="0" gradientUnits="userSpaceOnUse">
      <stop offset="0%" stop-color="#4f46e5"/>
      <stop offset="50%" stop-color="#0891b2"/>
      <stop offset="100%" stop-color="#d97706"/>
    </linearGradient>
    <linearGradient id="ptGrad" x1="0" y1="0" x2="1" y2="1">
      <stop offset="0%" stop-color="#6366f1"/>
      <stop offset="100%" stop-color="#818cf8"/>
    </linearGradient>
    <linearGradient id="ytGrad" x1="0" y1="0" x2="1" y2="1">
      <stop offset="0%" stop-color="#0891b2"/>
      <stop offset="100%" stop-color="#06b6d4"/>
    </linearGradient>
    <linearGradient id="syGrad" x1="0" y1="0" x2="1" y2="1">
      <stop offset="0%" stop-color="#d97706"/>
      <stop offset="100%" stop-color="#f59e0b"/>
    </linearGradient>
    <filter id="blur1" x="-50%" y="-50%" width="200%" height="200%">
      <feGaussianBlur in="SourceGraphic" stdDeviation="60"/>
    </filter>
    <filter id="blur2" x="-50%" y="-50%" width="200%" height="200%">
      <feGaussianBlur in="SourceGraphic" stdDeviation="40"/>
    </filter>
  </defs>
  <rect width="1200" height="630" fill="url(#bg)"/>
  <rect x="0" y="0" width="1200" height="4" fill="url(#accent)"/>
  <circle cx="300" cy="350" r="220" fill="#6366f1" opacity="0.05" filter="url(#blur1)"/>
  <circle cx="900" cy="200" r="200" fill="#0891b2" opacity="0.05" filter="url(#blur1)"/>
  <circle cx="1000" cy="500" r="150" fill="#d97706" opacity="0.04" filter="url(#blur2)"/>
  <text x="80" y="72" font-family="Inter, system-ui, sans-serif" font-size="18" font-weight="700" fill="#8b949e" letter-spacing="0.05em">degen0x</text>
  <rect x="80" y="110" width="56" height="28" rx="6" fill="#6366f1" opacity="0.2"/>
  <rect x="80" y="110" width="56" height="28" rx="6" stroke="#6366f1" stroke-width="1" stroke-opacity="0.3" fill="none"/>
  <text x="108" y="129" font-family="Inter, system-ui, sans-serif" font-size="12" font-weight="700" fill="#818cf8" text-anchor="middle">DeFi</text>
  <rect x="146" y="110" width="100" height="28" rx="6" fill="#0891b2" opacity="0.2"/>
  <rect x="146" y="110" width="100" height="28" rx="6" stroke="#0891b2" stroke-width="1" stroke-opacity="0.3" fill="none"/>
  <text x="196" y="129" font-family="Inter, system-ui, sans-serif" font-size="12" font-weight="700" fill="#06b6d4" text-anchor="middle">Intermediate</text>
  <text x="80" y="220" font-family="Inter, system-ui, sans-serif" font-size="52" font-weight="800" fill="#e6edf3" letter-spacing="-0.02em">Yield Tokenization</text>
  <text x="80" y="285" font-family="Inter, system-ui, sans-serif" font-size="52" font-weight="800" fill="#e6edf3" letter-spacing="-0.02em">Guide 2026</text>
  <text x="80" y="335" font-family="Inter, system-ui, sans-serif" font-size="20" fill="#8b949e">PT/YT tokens, Pendle Finance &amp; fixed yield strategies</text>
  <g transform="translate(80, 380)">
    <rect x="0" y="0" width="140" height="70" rx="12" fill="url(#syGrad)" opacity="0.2"/>
    <rect x="0" y="0" width="140" height="70" rx="12" stroke="#d97706" stroke-width="1.5" stroke-opacity="0.5" fill="none"/>
    <text x="70" y="30" font-family="Inter, system-ui, sans-serif" font-size="20" font-weight="800" fill="#f59e0b" text-anchor="middle">SY</text>
    <text x="70" y="52" font-family="Inter, system-ui, sans-serif" font-size="11" fill="#8b949e" text-anchor="middle">Yield-Bearing Asset</text>
    <line x1="155" y1="35" x2="205" y2="35" stroke="#6e7681" stroke-width="2" stroke-dasharray="4,4"/>
    <polygon points="205,28 220,35 205,42" fill="#6e7681"/>
    <rect x="230" y="0" width="130" height="70" rx="12" fill="url(#ptGrad)" opacity="0.2"/>
    <rect x="230" y="0" width="130" height="70" rx="12" stroke="#6366f1" stroke-width="1.5" stroke-opacity="0.5" fill="none"/>
    <text x="295" y="30" font-family="Inter, system-ui, sans-serif" font-size="20" font-weight="800" fill="#818cf8" text-anchor="middle">PT</text>
    <text x="295" y="52" font-family="Inter, system-ui, sans-serif" font-size="11" fill="#8b949e" text-anchor="middle">Principal Token</text>
    <text x="380" y="42" font-family="Inter, system-ui, sans-serif" font-size="24" fill="#6e7681" text-anchor="middle">+</text>
    <rect x="400" y="0" width="130" height="70" rx="12" fill="url(#ytGrad)" opacity="0.2"/>
    <rect x="400" y="0" width="130" height="70" rx="12" stroke="#0891b2" stroke-width="1.5" stroke-opacity="0.5" fill="none"/>
    <text x="465" y="30" font-family="Inter, system-ui, sans-serif" font-size="20" font-weight="800" fill="#06b6d4" text-anchor="middle">YT</text>
    <text x="465" y="52" font-family="Inter, system-ui, sans-serif" font-size="11" fill="#8b949e" text-anchor="middle">Yield Token</text>
  </g>
  <g transform="translate(750, 120)" opacity="0.7">
    <rect x="0" y="0" width="370" height="380" rx="16" fill="white" opacity="0.03"/>
    <rect x="0" y="0" width="370" height="380" rx="16" stroke="white" stroke-width="1" stroke-opacity="0.06" fill="none"/>
    <text x="24" y="40" font-family="Inter, system-ui, sans-serif" font-size="13" font-weight="600" fill="#8b949e">Pendle Finance TVL</text>
    <text x="24" y="75" font-family="Inter, system-ui, sans-serif" font-size="36" font-weight="800" fill="#22c55e">$5.7B</text>
    <line x1="24" y1="95" x2="346" y2="95" stroke="white" stroke-opacity="0.06"/>
    <text x="24" y="130" font-family="Inter, system-ui, sans-serif" font-size="11" fill="#6e7681">PEAK TVL</text>
    <text x="24" y="155" font-family="Inter, system-ui, sans-serif" font-size="22" font-weight="800" fill="#e6edf3">$13.4B</text>
    <text x="200" y="130" font-family="Inter, system-ui, sans-serif" font-size="11" fill="#6e7681">FIXED YIELD</text>
    <text x="200" y="155" font-family="Inter, system-ui, sans-serif" font-size="22" font-weight="800" fill="#6366f1">5-12%</text>
    <text x="24" y="200" font-family="Inter, system-ui, sans-serif" font-size="11" fill="#6e7681">CHAINS</text>
    <text x="24" y="225" font-family="Inter, system-ui, sans-serif" font-size="22" font-weight="800" fill="#e6edf3">12+</text>
    <text x="200" y="200" font-family="Inter, system-ui, sans-serif" font-size="11" fill="#6e7681">MARKETS</text>
    <text x="200" y="225" font-family="Inter, system-ui, sans-serif" font-size="22" font-weight="800" fill="#0891b2">200+</text>
    <line x1="24" y1="260" x2="346" y2="260" stroke="white" stroke-opacity="0.06"/>
    <text x="24" y="290" font-family="Inter, system-ui, sans-serif" font-size="11" fill="#6e7681">YIELD CURVE</text>
    <polyline points="24,360 80,340 140,350 200,320 260,310 310,330 346,315" fill="none" stroke="#6366f1" stroke-width="2.5" opacity="0.8"/>
    <polyline points="24,360 80,345 140,335 200,340 260,325 310,345 346,340" fill="none" stroke="#0891b2" stroke-width="2" stroke-dasharray="6,4" opacity="0.6"/>
  </g>
  <text x="80" y="530" font-family="Inter, system-ui, sans-serif" font-size="14" fill="#6e7681">12 min read · Updated March 2026</text>
  <rect x="0" y="590" width="1200" height="40" fill="#080d1c" opacity="0.8"/>
  <text x="80" y="616" font-family="Inter, system-ui, sans-serif" font-size="15" font-weight="600" fill="#6366f1">degen0x.com</text>
  <text x="1120" y="616" font-family="Inter, system-ui, sans-serif" font-size="13" fill="#6e7681" text-anchor="end">Learn · DeFi · Yield Strategies</text>
</svg>
