<svg xmlns="http://www.w3.org/2000/svg" width="1200" height="630" viewBox="0 0 1200 630">
  <defs>
    <linearGradient id="bg" x1="0%" y1="0%" x2="100%" y2="100%">
      <stop offset="0%" stop-color="#080d1c"/>
      <stop offset="50%" stop-color="#0a1128"/>
      <stop offset="100%" stop-color="#080d1c"/>
    </linearGradient>
    <linearGradient id="brandGrad" x1="0%" y1="0%" x2="100%" y2="0%">
      <stop offset="0%" stop-color="#4f46e5"/>
      <stop offset="50%" stop-color="#0891b2"/>
      <stop offset="100%" stop-color="#d97706"/>
    </linearGradient>
    <linearGradient id="greenGrad" x1="0%" y1="0%" x2="0%" y2="100%">
      <stop offset="0%" stop-color="#22c55e"/>
      <stop offset="100%" stop-color="#16a34a"/>
    </linearGradient>
    <linearGradient id="amberGrad" x1="0%" y1="0%" x2="0%" y2="100%">
      <stop offset="0%" stop-color="#f59e0b"/>
      <stop offset="100%" stop-color="#d97706"/>
    </linearGradient>
    <linearGradient id="redGrad" x1="0%" y1="0%" x2="0%" y2="100%">
      <stop offset="0%" stop-color="#ef4444"/>
      <stop offset="100%" stop-color="#dc2626"/>
    </linearGradient>
    <filter id="glow">
      <feGaussianBlur stdDeviation="3" result="blur"/>
      <feMerge><feMergeNode in="blur"/><feMergeNode in="SourceGraphic"/></feMerge>
    </filter>
    <filter id="softGlow">
      <feGaussianBlur stdDeviation="20" result="blur"/>
      <feMerge><feMergeNode in="blur"/><feMergeNode in="SourceGraphic"/></feMerge>
    </filter>
    <clipPath id="roundCard1"><rect x="60" y="235" width="340" height="280" rx="16"/></clipPath>
    <clipPath id="roundCard2"><rect x="430" y="235" width="340" height="280" rx="16"/></clipPath>
    <clipPath id="roundCard3"><rect x="800" y="235" width="340" height="280" rx="16"/></clipPath>
  </defs>

  <!-- Background -->
  <rect width="1200" height="630" fill="url(#bg)"/>

  <!-- Subtle ambient glow circles -->
  <circle cx="200" cy="300" r="200" fill="#4f46e5" opacity="0.04" filter="url(#softGlow)"/>
  <circle cx="1000" cy="350" r="180" fill="#0891b2" opacity="0.04" filter="url(#softGlow)"/>
  <circle cx="600" cy="500" r="150" fill="#d97706" opacity="0.03" filter="url(#softGlow)"/>

  <!-- Top gradient accent bar -->
  <rect x="0" y="0" width="1200" height="4" fill="url(#brandGrad)"/>

  <!-- LIVE badge -->
  <rect x="60" y="30" width="72" height="28" rx="14" fill="#ef4444" opacity="0.15"/>
  <circle cx="80" cy="44" r="4" fill="#ef4444"/>
  <text x="92" y="49" font-family="Inter, sans-serif" font-size="13" font-weight="700" fill="#ef4444">LIVE</text>

  <!-- Date badge -->
  <rect x="145" y="30" width="180" height="28" rx="14" fill="rgba(255,255,255,0.06)"/>
  <text x="158" y="49" font-family="Inter, sans-serif" font-size="12" font-weight="500" fill="#8b949e">MARCH 17, 2026 — EVE</text>

  <!-- degen0x logo text -->
  <text x="1070" y="50" font-family="Inter, sans-serif" font-size="16" font-weight="800" fill="url(#brandGrad)" letter-spacing="-0.5">degen0x</text>

  <!-- Main title -->
  <text x="60" y="105" font-family="Inter, sans-serif" font-size="42" font-weight="900" fill="#e6edf3" letter-spacing="-1">FOMC DOT PLOT</text>
  <text x="60" y="150" font-family="Inter, sans-serif" font-size="42" font-weight="900" fill="url(#brandGrad)" letter-spacing="-1">3 SCENARIOS FOR CRYPTO</text>

  <!-- Subtitle -->
  <text x="60" y="185" font-family="Inter, sans-serif" font-size="17" font-weight="400" fill="#8b949e">Decision tomorrow 2:00 PM ET · Rate at 3.50–3.75% · Dot plot is the real catalyst</text>

  <!-- BTC price pill -->
  <rect x="60" y="200" width="175" height="28" rx="14" fill="rgba(34,197,94,0.1)"/>
  <text x="78" y="219" font-family="Inter, sans-serif" font-size="13" font-weight="700" fill="#22c55e">BTC $73,700 · 8-day ↑</text>

  <rect x="248" y="200" width="155" height="28" rx="14" fill="rgba(6,182,212,0.1)"/>
  <text x="266" y="219" font-family="Inter, sans-serif" font-size="13" font-weight="700" fill="#06b6d4">ETH +13% weekly</text>

  <!-- === SCENARIO CARDS === -->

  <!-- Card 1: BULL (2 cuts) -->
  <rect x="60" y="235" width="340" height="280" rx="16" fill="rgba(255,255,255,0.04)" stroke="rgba(34,197,94,0.25)" stroke-width="1"/>
  <!-- Card header -->
  <rect x="60" y="235" width="340" height="56" rx="16" fill="rgba(34,197,94,0.08)"/>
  <rect x="60" y="275" width="340" height="16" fill="rgba(34,197,94,0.08)"/>
  <!-- Scenario label -->
  <rect x="76" y="247" width="56" height="22" rx="11" fill="url(#greenGrad)"/>
  <text x="87" y="262" font-family="Inter, sans-serif" font-size="11" font-weight="800" fill="#fff">BULL</text>
  <text x="145" y="263" font-family="Inter, sans-serif" font-size="15" font-weight="700" fill="#22c55e">2 Projected Cuts</text>
  <!-- Up arrow icon -->
  <polygon points="370,250 380,260 375,260 375,270 365,270 365,260 360,260" fill="#22c55e" opacity="0.6"/>

  <!-- Card content -->
  <text x="76" y="315" font-family="Inter, sans-serif" font-size="13" font-weight="500" fill="#8b949e">BTC target</text>
  <text x="76" y="340" font-family="Inter, sans-serif" font-size="28" font-weight="800" fill="#22c55e">$76K–$78K</text>
  <text x="76" y="370" font-family="Inter, sans-serif" font-size="13" font-weight="500" fill="#8b949e">Market reads "rate cuts</text>
  <text x="76" y="387" font-family="Inter, sans-serif" font-size="13" font-weight="500" fill="#8b949e">coming faster." Risk assets</text>
  <text x="76" y="404" font-family="Inter, sans-serif" font-size="13" font-weight="500" fill="#8b949e">rally hard. ETF inflows</text>
  <text x="76" y="421" font-family="Inter, sans-serif" font-size="13" font-weight="500" fill="#8b949e">accelerate.</text>

  <!-- Probability -->
  <rect x="76" y="445" width="110" height="26" rx="13" fill="rgba(34,197,94,0.1)"/>
  <text x="94" y="463" font-family="Inter, sans-serif" font-size="12" font-weight="700" fill="#22c55e">15% probability</text>

  <!-- Mini bar -->
  <rect x="76" y="485" width="308" height="6" rx="3" fill="rgba(255,255,255,0.06)"/>
  <rect x="76" y="485" width="46" height="6" rx="3" fill="url(#greenGrad)"/>

  <!-- Card 2: BASE (1 cut) -->
  <rect x="430" y="235" width="340" height="280" rx="16" fill="rgba(255,255,255,0.04)" stroke="rgba(245,158,11,0.25)" stroke-width="1"/>
  <rect x="430" y="235" width="340" height="56" rx="16" fill="rgba(245,158,11,0.08)"/>
  <rect x="430" y="275" width="340" height="16" fill="rgba(245,158,11,0.08)"/>
  <rect x="446" y="247" width="56" height="22" rx="11" fill="url(#amberGrad)"/>
  <text x="457" y="262" font-family="Inter, sans-serif" font-size="11" font-weight="800" fill="#fff">BASE</text>
  <text x="515" y="263" font-family="Inter, sans-serif" font-size="15" font-weight="700" fill="#f59e0b">1 Projected Cut</text>
  <!-- Dash icon -->
  <rect x="730" y="255" width="20" height="4" rx="2" fill="#f59e0b" opacity="0.6"/>

  <text x="446" y="315" font-family="Inter, sans-serif" font-size="13" font-weight="500" fill="#8b949e">BTC target</text>
  <text x="446" y="340" font-family="Inter, sans-serif" font-size="28" font-weight="800" fill="#f59e0b">$72K–$75K</text>
  <text x="446" y="370" font-family="Inter, sans-serif" font-size="13" font-weight="500" fill="#8b949e">No surprise. Volatility</text>
  <text x="446" y="387" font-family="Inter, sans-serif" font-size="13" font-weight="500" fill="#8b949e">spike on announcement,</text>
  <text x="446" y="404" font-family="Inter, sans-serif" font-size="13" font-weight="500" fill="#8b949e">then fades. Range-bound</text>
  <text x="446" y="421" font-family="Inter, sans-serif" font-size="13" font-weight="500" fill="#8b949e">action likely.</text>

  <rect x="446" y="445" width="110" height="26" rx="13" fill="rgba(245,158,11,0.1)"/>
  <text x="462" y="463" font-family="Inter, sans-serif" font-size="12" font-weight="700" fill="#f59e0b">65% probability</text>

  <rect x="446" y="485" width="308" height="6" rx="3" fill="rgba(255,255,255,0.06)"/>
  <rect x="446" y="485" width="200" height="6" rx="3" fill="url(#amberGrad)"/>

  <!-- Card 3: BEAR (0 cuts) -->
  <rect x="800" y="235" width="340" height="280" rx="16" fill="rgba(255,255,255,0.04)" stroke="rgba(239,68,68,0.25)" stroke-width="1"/>
  <rect x="800" y="235" width="340" height="56" rx="16" fill="rgba(239,68,68,0.08)"/>
  <rect x="800" y="275" width="340" height="16" fill="rgba(239,68,68,0.08)"/>
  <rect x="816" y="247" width="56" height="22" rx="11" fill="url(#redGrad)"/>
  <text x="825" y="262" font-family="Inter, sans-serif" font-size="11" font-weight="800" fill="#fff">BEAR</text>
  <text x="885" y="263" font-family="Inter, sans-serif" font-size="15" font-weight="700" fill="#ef4444">0 Projected Cuts</text>
  <!-- Down arrow -->
  <polygon points="1100,260 1110,250 1105,250 1105,240 1095,240 1095,250 1090,250" fill="#ef4444" opacity="0.6"/>

  <text x="816" y="315" font-family="Inter, sans-serif" font-size="13" font-weight="500" fill="#8b949e">BTC target</text>
  <text x="816" y="340" font-family="Inter, sans-serif" font-size="28" font-weight="800" fill="#ef4444">$68K–$70K</text>
  <text x="816" y="370" font-family="Inter, sans-serif" font-size="13" font-weight="500" fill="#8b949e">Stagflation signal. Market</text>
  <text x="816" y="387" font-family="Inter, sans-serif" font-size="13" font-weight="500" fill="#8b949e">dumps on "no cuts in 2026"</text>
  <text x="816" y="404" font-family="Inter, sans-serif" font-size="13" font-weight="500" fill="#8b949e">read. Risk-off across all</text>
  <text x="816" y="421" font-family="Inter, sans-serif" font-size="13" font-weight="500" fill="#8b949e">asset classes.</text>

  <rect x="816" y="445" width="110" height="26" rx="13" fill="rgba(239,68,68,0.1)"/>
  <text x="833" y="463" font-family="Inter, sans-serif" font-size="12" font-weight="700" fill="#ef4444">20% probability</text>

  <rect x="816" y="485" width="308" height="6" rx="3" fill="rgba(255,255,255,0.06)"/>
  <rect x="816" y="485" width="62" height="6" rx="3" fill="url(#redGrad)"/>

  <!-- Bottom bar -->
  <rect x="0" y="535" width="1200" height="95" fill="rgba(0,0,0,0.3)"/>
  <rect x="0" y="535" width="1200" height="1" fill="rgba(255,255,255,0.06)"/>

  <!-- Bottom left: tagline -->
  <text x="60" y="572" font-family="Inter, sans-serif" font-size="15" font-weight="700" fill="#e6edf3">Don't react to the first candle.</text>
  <text x="60" y="595" font-family="Inter, sans-serif" font-size="13" font-weight="400" fill="#8b949e">BTC dropped after 7/8 FOMC meetings in 2025, then reversed within 48h.</text>

  <!-- Bottom right: URL -->
  <text x="1140" y="572" font-family="Inter, sans-serif" font-size="13" font-weight="600" fill="url(#brandGrad)" text-anchor="end">degen0x.com/learn/fomc-fed-rate-crypto-guide</text>
  <text x="1140" y="595" font-family="Inter, sans-serif" font-size="11" font-weight="500" fill="#6e7681" text-anchor="end">Free tools · No signup · Just data</text>

  <!-- Bottom gradient bar -->
  <rect x="0" y="626" width="1200" height="4" fill="url(#brandGrad)"/>
</svg>