<svg width="1200" height="630" viewBox="0 0 1200 630" xmlns="http://www.w3.org/2000/svg" font-family="Inter, system-ui, sans-serif">
  <defs>
    <!-- Background -->
    <linearGradient id="bg" x1="0%" y1="0%" x2="100%" y2="100%">
      <stop offset="0%" stop-color="#080d1c"/>
      <stop offset="55%" stop-color="#090e1e"/>
      <stop offset="100%" stop-color="#06091a"/>
    </linearGradient>

    <!-- Brand gradient -->
    <linearGradient id="brandGrad" x1="0%" y1="0%" x2="100%" y2="0%">
      <stop offset="0%" stop-color="#4f46e5"/>
      <stop offset="50%" stop-color="#0891b2"/>
      <stop offset="100%" stop-color="#d97706"/>
    </linearGradient>

    <!-- Purple→cyan title gradient -->
    <linearGradient id="titleGrad" x1="0%" y1="0%" x2="100%" y2="0%">
      <stop offset="0%" stop-color="#a78bfa"/>
      <stop offset="50%" stop-color="#818cf8"/>
      <stop offset="100%" stop-color="#22d3ee"/>
    </linearGradient>

    <!-- Green accent for gains -->
    <linearGradient id="gainGrad" x1="0%" y1="0%" x2="100%" y2="0%">
      <stop offset="0%" stop-color="#4ade80"/>
      <stop offset="100%" stop-color="#22c55e"/>
    </linearGradient>

    <!-- Purple glow (left) -->
    <radialGradient id="purpleGlow" cx="15%" cy="50%" r="40%">
      <stop offset="0%" stop-color="#7c3aed" stop-opacity="0.12"/>
      <stop offset="100%" stop-color="#7c3aed" stop-opacity="0"/>
    </radialGradient>

    <!-- Cyan glow (right) -->
    <radialGradient id="cyanGlow" cx="85%" cy="30%" r="40%">
      <stop offset="0%" stop-color="#0891b2" stop-opacity="0.10"/>
      <stop offset="100%" stop-color="#0891b2" stop-opacity="0"/>
    </radialGradient>

    <!-- Card shadow -->
    <filter id="cardShadow">
      <feDropShadow dx="0" dy="4" stdDeviation="10" flood-color="#000" flood-opacity="0.45"/>
    </filter>

    <!-- Monero bar fill -->
    <linearGradient id="xmrBar" x1="0%" y1="0%" x2="100%" y2="0%">
      <stop offset="0%" stop-color="#f59e0b"/>
      <stop offset="100%" stop-color="#fbbf24"/>
    </linearGradient>

    <!-- Zcash bar fill -->
    <linearGradient id="zecBar" x1="0%" y1="0%" x2="100%" y2="0%">
      <stop offset="0%" stop-color="#6366f1"/>
      <stop offset="100%" stop-color="#818cf8"/>
    </linearGradient>
  </defs>

  <!-- ===== BACKGROUND ===== -->
  <rect width="1200" height="630" fill="url(#bg)"/>
  <rect width="1200" height="630" fill="url(#purpleGlow)"/>
  <rect width="1200" height="630" fill="url(#cyanGlow)"/>

  <!-- Subtle dot grid -->
  <g opacity="0.05" fill="#6366f1">
    <circle cx="60" cy="60" r="1.5"/> <circle cx="180" cy="60" r="1.5"/> <circle cx="300" cy="60" r="1.5"/>
    <circle cx="420" cy="60" r="1.5"/> <circle cx="540" cy="60" r="1.5"/> <circle cx="660" cy="60" r="1.5"/>
    <circle cx="780" cy="60" r="1.5"/> <circle cx="900" cy="60" r="1.5"/> <circle cx="1020" cy="60" r="1.5"/>
    <circle cx="1140" cy="60" r="1.5"/>
    <circle cx="60" cy="160" r="1.5"/> <circle cx="180" cy="160" r="1.5"/> <circle cx="300" cy="160" r="1.5"/>
    <circle cx="60" cy="260" r="1.5"/> <circle cx="180" cy="260" r="1.5"/>
    <circle cx="60" cy="360" r="1.5"/> <circle cx="180" cy="360" r="1.5"/> <circle cx="300" cy="360" r="1.5"/>
    <circle cx="420" cy="360" r="1.5"/> <circle cx="60" cy="460" r="1.5"/> <circle cx="180" cy="460" r="1.5"/>
    <circle cx="60" cy="560" r="1.5"/> <circle cx="180" cy="560" r="1.5"/>
  </g>

  <!-- ===== ACCENT BAR ===== -->
  <rect x="0" y="0" width="1200" height="4" fill="url(#brandGrad)"/>

  <!-- ===== DECORATIVE ORBS ===== -->
  <circle cx="950" cy="150" r="220" fill="#7c3aed" opacity="0.04"/>
  <circle cx="950" cy="150" r="120" fill="#6366f1" opacity="0.05"/>
  <circle cx="200" cy="500" r="180" fill="#0891b2" opacity="0.05"/>

  <!-- Privacy eye icon decorative (right background) -->
  <g opacity="0.06" transform="translate(820, 60)">
    <ellipse cx="140" cy="100" rx="120" ry="60" fill="none" stroke="#a78bfa" stroke-width="3"/>
    <circle cx="140" cy="100" r="35" fill="none" stroke="#a78bfa" stroke-width="3"/>
    <circle cx="140" cy="100" r="16" fill="#a78bfa"/>
    <!-- Strikethrough line for "hidden" -->
    <line x1="50" y1="30" x2="230" y2="170" stroke="#a78bfa" stroke-width="4"/>
  </g>

  <!-- ===== LOGO ===== -->
  <circle cx="56" cy="44" r="20" fill="#6366f1" fill-opacity="0.15" stroke="#6366f1" stroke-opacity="0.4" stroke-width="1"/>
  <text x="56" y="50" text-anchor="middle" font-size="13" font-weight="900" fill="#818cf8" letter-spacing="-0.5">0x</text>
  <text x="84" y="50" font-size="16" font-weight="800" fill="#e6edf3" letter-spacing="-0.5">degen<tspan fill="#6366f1">0x</tspan></text>

  <!-- Category pill -->
  <rect x="56" y="68" width="72" height="22" rx="11" fill="#7c3aed" fill-opacity="0.2" stroke="#a78bfa" stroke-opacity="0.4" stroke-width="1"/>
  <text x="92" y="83" text-anchor="middle" font-size="11" font-weight="600" fill="#a78bfa" letter-spacing="0.5">LEARN</text>

  <!-- ===== MAIN TITLE ===== -->
  <text x="56" y="196" font-size="58" font-weight="900" letter-spacing="-2" fill="url(#titleGrad)">Privacy Coins</text>
  <text x="56" y="262" font-size="58" font-weight="900" letter-spacing="-2" fill="#e6edf3">Guide 2026</text>

  <!-- Subtitle -->
  <text x="56" y="308" font-size="21" font-weight="400" fill="#8b949e">Monero · Zcash · ring signatures · zk-SNARKs · regulatory outlook</text>

  <!-- ===== HEADLINE STAT BADGE ===== -->
  <rect x="56" y="336" width="230" height="52" rx="14" fill="rgba(74,222,128,0.1)" stroke="rgba(74,222,128,0.3)" stroke-width="1.5" filter="url(#cardShadow)"/>
  <text x="171" y="360" text-anchor="middle" font-size="26" font-weight="900" fill="url(#gainGrad)">+288%</text>
  <text x="171" y="378" text-anchor="middle" font-size="11" font-weight="600" fill="#8b949e">SECTOR GAINS · 2025</text>

  <!-- ===== PRIVACY TECH COMPARISON TABLE ===== -->
  <!-- Table container -->
  <rect x="56" y="408" width="580" height="170" rx="16" fill="rgba(255,255,255,0.03)" stroke="rgba(255,255,255,0.07)" stroke-width="1" filter="url(#cardShadow)"/>

  <!-- Table header -->
  <text x="76" y="434" font-size="11" font-weight="700" fill="#6e7681" letter-spacing="1">PROTOCOL</text>
  <text x="280" y="434" font-size="11" font-weight="700" fill="#6e7681" letter-spacing="1">TECH</text>
  <text x="430" y="434" font-size="11" font-weight="700" fill="#6e7681" letter-spacing="1">DEFAULT</text>
  <text x="550" y="434" font-size="11" font-weight="700" fill="#6e7681" letter-spacing="1">STATUS</text>
  <line x1="76" y1="440" x2="616" y2="440" stroke="rgba(255,255,255,0.06)" stroke-width="1"/>

  <!-- Monero row -->
  <rect x="66" y="448" width="560" height="38" rx="8" fill="rgba(245,158,11,0.06)"/>
  <text x="76" y="472" font-size="14" font-weight="700" fill="#fbbf24">Monero (XMR)</text>
  <text x="280" y="472" font-size="12" fill="#8b949e">Ring Sigs + Stealth + RingCT</text>
  <rect x="425" y="458" width="55" height="20" rx="10" fill="#22c55e" fill-opacity="0.2"/>
  <text x="452" y="472" text-anchor="middle" font-size="10" font-weight="700" fill="#22c55e">ON ✓</text>
  <rect x="540" y="458" width="78" height="20" rx="10" fill="#ef4444" fill-opacity="0.2"/>
  <text x="579" y="472" text-anchor="middle" font-size="10" font-weight="700" fill="#ef4444">DELISTED</text>

  <!-- Zcash row -->
  <rect x="66" y="492" width="560" height="38" rx="8" fill="rgba(99,102,241,0.06)"/>
  <text x="76" y="516" font-size="14" font-weight="700" fill="#818cf8">Zcash (ZEC)</text>
  <text x="280" y="516" font-size="12" fill="#8b949e">zk-SNARKs (Sapling/Orchard)</text>
  <rect x="425" y="502" width="55" height="20" rx="10" fill="#f59e0b" fill-opacity="0.2"/>
  <text x="452" y="516" text-anchor="middle" font-size="10" font-weight="700" fill="#f59e0b">OPT-IN</text>
  <rect x="540" y="502" width="78" height="20" rx="10" fill="#f59e0b" fill-opacity="0.2"/>
  <text x="579" y="516" text-anchor="middle" font-size="10" font-weight="700" fill="#f59e0b">PARTIAL</text>

  <!-- Abelian row -->
  <rect x="66" y="536" width="560" height="32" rx="8" fill="rgba(6,182,212,0.06)"/>
  <text x="76" y="556" font-size="14" font-weight="700" fill="#22d3ee">Abelian</text>
  <text x="280" y="556" font-size="12" fill="#8b949e">Lattice + zk-privacy (post-quantum)</text>
  <rect x="425" y="544" width="55" height="20" rx="10" fill="#22c55e" fill-opacity="0.2"/>
  <text x="452" y="558" text-anchor="middle" font-size="10" font-weight="700" fill="#22c55e">ON ✓</text>
  <rect x="540" y="544" width="78" height="20" rx="10" fill="#22c55e" fill-opacity="0.2"/>
  <text x="579" y="558" text-anchor="middle" font-size="10" font-weight="700" fill="#22c55e">LISTED</text>

  <!-- ===== RIGHT PANEL — delisting timeline ===== -->
  <rect x="668" y="240" width="496" height="330" rx="20" fill="rgba(255,255,255,0.03)" stroke="rgba(255,255,255,0.07)" stroke-width="1" filter="url(#cardShadow)"/>

  <text x="916" y="278" text-anchor="middle" font-size="12" font-weight="700" fill="#8b949e" letter-spacing="1">XMR DELISTING TIMELINE vs PRICE</text>

  <!-- Price bar chart (simplified) -->
  <!-- X axis label years -->
  <text x="712" y="530" font-size="10" fill="#6e7681">2021</text>
  <text x="784" y="530" font-size="10" fill="#6e7681">2022</text>
  <text x="856" y="530" font-size="10" fill="#6e7681">2023</text>
  <text x="928" y="530" font-size="10" fill="#6e7681">2024</text>
  <text x="1000" y="530" font-size="10" fill="#6e7681">2025</text>
  <text x="1072" y="530" font-size="10" fill="#6e7681">2026</text>

  <!-- Grid lines -->
  <line x1="700" y1="510" x2="1144" y2="510" stroke="rgba(255,255,255,0.05)" stroke-width="1"/>
  <line x1="700" y1="460" x2="1144" y2="460" stroke="rgba(255,255,255,0.05)" stroke-width="1"/>
  <line x1="700" y1="410" x2="1144" y2="410" stroke="rgba(255,255,255,0.05)" stroke-width="1"/>
  <line x1="700" y1="360" x2="1144" y2="360" stroke="rgba(255,255,255,0.05)" stroke-width="1"/>
  <line x1="700" y1="310" x2="1144" y2="310" stroke="rgba(255,255,255,0.05)" stroke-width="1"/>

  <!-- Price area chart (XMR price trend) -->
  <defs>
    <linearGradient id="priceAreaFill" x1="0%" y1="0%" x2="0%" y2="100%">
      <stop offset="0%" stop-color="#f59e0b" stop-opacity="0.35"/>
      <stop offset="100%" stop-color="#f59e0b" stop-opacity="0.03"/>
    </linearGradient>
  </defs>
  <!-- Price area -->
  <path d="M 712 470 L 750 400 L 784 430 L 820 460 L 856 455 L 892 445 L 928 420 L 964 380 L 1000 330 L 1036 350 L 1072 320 L 1120 310 L 1140 510 L 712 510 Z" fill="url(#priceAreaFill)"/>
  <!-- Price line -->
  <path d="M 712 470 L 750 400 L 784 430 L 820 460 L 856 455 L 892 445 L 928 420 L 964 380 L 1000 330 L 1036 350 L 1072 320 L 1120 310" fill="none" stroke="#f59e0b" stroke-width="2" stroke-linejoin="round"/>

  <!-- Delisting event markers -->
  <!-- Kraken UK 2021 -->
  <line x1="750" y1="295" x2="750" y2="510" stroke="#ef4444" stroke-width="1" stroke-dasharray="4,3" opacity="0.6"/>
  <rect x="720" y="292" width="82" height="20" rx="6" fill="rgba(239,68,68,0.25)"/>
  <text x="761" y="305" text-anchor="middle" font-size="9" font-weight="600" fill="#ef4444">Kraken UK/EU</text>

  <!-- Binance 2024 -->
  <line x1="928" y1="295" x2="928" y2="510" stroke="#ef4444" stroke-width="1" stroke-dasharray="4,3" opacity="0.6"/>
  <rect x="898" y="292" width="64" height="20" rx="6" fill="rgba(239,68,68,0.25)"/>
  <text x="930" y="305" text-anchor="middle" font-size="9" font-weight="600" fill="#ef4444">Binance ban</text>

  <!-- Coinbase 2024 -->
  <line x1="992" y1="295" x2="992" y2="510" stroke="#ef4444" stroke-width="1" stroke-dasharray="4,3" opacity="0.6"/>
  <rect x="964" y="292" width="66" height="20" rx="6" fill="rgba(239,68,68,0.25)"/>
  <text x="997" y="305" text-anchor="middle" font-size="9" font-weight="600" fill="#ef4444">Coinbase</text>

  <!-- "Despite delistings" annotation -->
  <rect x="820" y="540" width="240" height="22" rx="11" fill="rgba(74,222,128,0.12)" stroke="rgba(74,222,128,0.25)" stroke-width="1"/>
  <text x="940" y="555" text-anchor="middle" font-size="11" font-weight="700" fill="#4ade80">Price up 288% through delistings ↑</text>

  <!-- ===== BOTTOM BAR ===== -->
  <line x1="0" y1="594" x2="1200" y2="594" stroke="rgba(255,255,255,0.06)" stroke-width="1"/>
  <rect x="0" y="594" width="1200" height="36" fill="rgba(255,255,255,0.02)"/>

  <text x="56" y="617" font-size="14" font-weight="600" fill="#6e7681">degen0x.com</text>
  <text x="200" y="617" font-size="14" fill="#3d4450">/</text>
  <text x="212" y="617" font-size="14" fill="#4a5060">learn/privacy-coins-guide-2026</text>
  <text x="1144" y="617" text-anchor="end" font-size="12" font-weight="500" fill="#6e7681">2026 Guide</text>
</svg>
