<svg xmlns="http://www.w3.org/2000/svg" width="1200" height="630" viewBox="0 0 1200 630">
  <defs>
    <linearGradient id="bgGrad" x1="0%" y1="0%" x2="100%" y2="100%">
      <stop offset="0%" style="stop-color:#080d1c"/>
      <stop offset="60%" style="stop-color:#0b0e1f"/>
      <stop offset="100%" style="stop-color:#060a16"/>
    </linearGradient>
    <linearGradient id="brandGrad" x1="0%" y1="0%" x2="100%" y2="0%">
      <stop offset="0%" style="stop-color:#6366f1"/>
      <stop offset="50%" style="stop-color:#06b6d4"/>
      <stop offset="100%" style="stop-color:#f59e0b"/>
    </linearGradient>
    <linearGradient id="titleGrad" x1="0%" y1="0%" x2="100%" y2="0%">
      <stop offset="0%" style="stop-color:#c7d2fe"/>
      <stop offset="55%" style="stop-color:#a5f3fc"/>
      <stop offset="100%" style="stop-color:#fde68a"/>
    </linearGradient>
    <linearGradient id="tvlBarGrad" x1="0%" y1="0%" x2="100%" y2="0%">
      <stop offset="0%" style="stop-color:#6366f1"/>
      <stop offset="100%" style="stop-color:#06b6d4"/>
    </linearGradient>
    <linearGradient id="purpleGrad" x1="0%" y1="0%" x2="100%" y2="0%">
      <stop offset="0%" style="stop-color:#8b5cf6"/>
      <stop offset="100%" style="stop-color:#6366f1"/>
    </linearGradient>
    <linearGradient id="logoGrad" x1="0%" y1="0%" x2="100%" y2="100%">
      <stop offset="0%" style="stop-color:#818cf8"/>
      <stop offset="100%" style="stop-color:#4f46e5"/>
    </linearGradient>
    <filter id="cardGlow">
      <feGaussianBlur stdDeviation="8" result="blur"/>
      <feMerge><feMergeNode in="blur"/><feMergeNode in="SourceGraphic"/></feMerge>
    </filter>
  </defs>

  <!-- Background -->
  <rect width="1200" height="630" fill="url(#bgGrad)"/>

  <!-- Ambient glows -->
  <circle cx="950" cy="200" r="220" fill="#8b5cf6" opacity="0.05"/>
  <circle cx="1100" cy="450" r="160" fill="#06b6d4" opacity="0.04"/>
  <circle cx="150" cy="450" r="180" fill="#6366f1" opacity="0.04"/>

  <!-- Top accent bar -->
  <rect x="0" y="0" width="1200" height="4" fill="url(#brandGrad)"/>

  <!-- Grid dots background -->
  <g opacity="0.06" fill="#8b949e">
    <circle cx="720" cy="80" r="1.5"/><circle cx="760" cy="80" r="1.5"/><circle cx="800" cy="80" r="1.5"/><circle cx="840" cy="80" r="1.5"/><circle cx="880" cy="80" r="1.5"/><circle cx="920" cy="80" r="1.5"/><circle cx="960" cy="80" r="1.5"/><circle cx="1000" cy="80" r="1.5"/><circle cx="1040" cy="80" r="1.5"/><circle cx="1080" cy="80" r="1.5"/><circle cx="1120" cy="80" r="1.5"/>
    <circle cx="720" cy="120" r="1.5"/><circle cx="760" cy="120" r="1.5"/><circle cx="800" cy="120" r="1.5"/><circle cx="840" cy="120" r="1.5"/><circle cx="880" cy="120" r="1.5"/><circle cx="920" cy="120" r="1.5"/><circle cx="960" cy="120" r="1.5"/><circle cx="1000" cy="120" r="1.5"/><circle cx="1040" cy="120" r="1.5"/><circle cx="1080" cy="120" r="1.5"/><circle cx="1120" cy="120" r="1.5"/>
    <circle cx="720" cy="160" r="1.5"/><circle cx="760" cy="160" r="1.5"/><circle cx="800" cy="160" r="1.5"/><circle cx="840" cy="160" r="1.5"/><circle cx="880" cy="160" r="1.5"/><circle cx="920" cy="160" r="1.5"/><circle cx="960" cy="160" r="1.5"/><circle cx="1000" cy="160" r="1.5"/><circle cx="1040" cy="160" r="1.5"/><circle cx="1080" cy="160" r="1.5"/><circle cx="1120" cy="160" r="1.5"/>
    <circle cx="720" cy="200" r="1.5"/><circle cx="760" cy="200" r="1.5"/><circle cx="800" cy="200" r="1.5"/><circle cx="840" cy="200" r="1.5"/><circle cx="880" cy="200" r="1.5"/><circle cx="920" cy="200" r="1.5"/><circle cx="960" cy="200" r="1.5"/><circle cx="1000" cy="200" r="1.5"/><circle cx="1040" cy="200" r="1.5"/><circle cx="1080" cy="200" r="1.5"/><circle cx="1120" cy="200" r="1.5"/>
  </g>

  <!-- degen0x logo (top-left) -->
  <g transform="translate(60, 44)">
    <circle cx="18" cy="18" r="18" fill="url(#logoGrad)" opacity="0.9"/>
    <text x="18" y="23" text-anchor="middle" font-family="monospace" font-weight="900" font-size="13" fill="white">0x</text>
  </g>
  <text x="92" y="62" font-family="Inter, system-ui, sans-serif" font-weight="700" font-size="15" fill="#8b949e" letter-spacing="0.04em">degen0x.com</text>

  <!-- Category tag -->
  <rect x="60" y="92" width="120" height="28" rx="14" fill="rgba(139,92,246,0.15)" stroke="rgba(139,92,246,0.4)" stroke-width="1"/>
  <text x="120" y="111" text-anchor="middle" font-family="Inter, system-ui, sans-serif" font-weight="600" font-size="12" fill="#c4b5fd" letter-spacing="0.06em">DEFI GUIDE</text>

  <!-- Main title -->
  <text x="60" y="186" font-family="Inter, system-ui, sans-serif" font-weight="900" font-size="66" fill="url(#titleGrad)" letter-spacing="-0.02em">On-Chain Finance</text>
  <text x="60" y="248" font-family="Inter, system-ui, sans-serif" font-weight="800" font-size="40" fill="#e6edf3" letter-spacing="-0.02em">DeFi meets Wall Street in 2026</text>

  <!-- Subtitle -->
  <text x="60" y="296" font-family="Inter, system-ui, sans-serif" font-weight="400" font-size="19" fill="#8b949e">KYC rails · tokenized RWAs · permissioned lending · institutional TVL</text>

  <!-- Separator -->
  <line x1="60" y1="322" x2="680" y2="322" stroke="rgba(255,255,255,0.07)" stroke-width="1"/>

  <!-- Headline metric: $17B TVL -->
  <rect x="60" y="340" width="210" height="100" rx="18" fill="rgba(99,102,241,0.10)" stroke="rgba(99,102,241,0.3)" stroke-width="1"/>
  <text x="165" y="376" text-anchor="middle" font-family="Inter, system-ui, sans-serif" font-weight="400" font-size="12" fill="#a5b4fc" letter-spacing="0.06em">INSTITUTIONAL TVL</text>
  <text x="165" y="418" text-anchor="middle" font-family="Inter, system-ui, sans-serif" font-weight="900" font-size="36" fill="url(#tvlBarGrad)">$17B</text>

  <!-- Protocol pills row -->
  <g transform="translate(60, 456)">
    <!-- BlackRock -->
    <rect x="0" y="0" width="135" height="36" rx="18" fill="rgba(255,255,255,0.05)" stroke="rgba(255,255,255,0.1)" stroke-width="1"/>
    <text x="68" y="23" text-anchor="middle" font-family="Inter, system-ui, sans-serif" font-weight="600" font-size="13" fill="#e6edf3">🏦 BlackRock</text>
    <!-- Ondo -->
    <rect x="148" y="0" width="95" height="36" rx="18" fill="rgba(6,182,212,0.08)" stroke="rgba(6,182,212,0.25)" stroke-width="1"/>
    <text x="196" y="23" text-anchor="middle" font-family="Inter, system-ui, sans-serif" font-weight="600" font-size="13" fill="#67e8f9">Ondo</text>
    <!-- Maple -->
    <rect x="256" y="0" width="95" height="36" rx="18" fill="rgba(139,92,246,0.08)" stroke="rgba(139,92,246,0.25)" stroke-width="1"/>
    <text x="304" y="23" text-anchor="middle" font-family="Inter, system-ui, sans-serif" font-weight="600" font-size="13" fill="#c4b5fd">Maple</text>
    <!-- Centrifuge -->
    <rect x="364" y="0" width="126" height="36" rx="18" fill="rgba(245,158,11,0.08)" stroke="rgba(245,158,11,0.22)" stroke-width="1"/>
    <text x="427" y="23" text-anchor="middle" font-family="Inter, system-ui, sans-serif" font-weight="600" font-size="13" fill="#fcd34d">Centrifuge</text>
    <!-- Clearpool -->
    <rect x="503" y="0" width="117" height="36" rx="18" fill="rgba(34,197,94,0.08)" stroke="rgba(34,197,94,0.22)" stroke-width="1"/>
    <text x="562" y="23" text-anchor="middle" font-family="Inter, system-ui, sans-serif" font-weight="600" font-size="13" fill="#86efac">Clearpool</text>
  </g>

  <!-- DeFi → OnFi comparison diagram (right panel) -->
  <g transform="translate(720, 60)">
    <!-- Panel background -->
    <rect x="0" y="0" width="420" height="510" rx="20" fill="rgba(255,255,255,0.03)" stroke="rgba(255,255,255,0.07)" stroke-width="1"/>

    <!-- Panel header -->
    <text x="210" y="38" text-anchor="middle" font-family="Inter, system-ui, sans-serif" font-weight="700" font-size="14" fill="#8b949e" letter-spacing="0.06em">DeFi vs OnFi</text>
    <line x1="20" y1="52" x2="400" y2="52" stroke="rgba(255,255,255,0.06)" stroke-width="1"/>

    <!-- Column headers -->
    <rect x="20" y="64" width="175" height="32" rx="10" fill="rgba(255,255,255,0.04)"/>
    <text x="107" y="84" text-anchor="middle" font-family="Inter, system-ui, sans-serif" font-weight="600" font-size="13" fill="#8b949e">DeFi</text>
    <rect x="225" y="64" width="175" height="32" rx="10" fill="rgba(99,102,241,0.12)" stroke="rgba(99,102,241,0.25)" stroke-width="1"/>
    <text x="312" y="84" text-anchor="middle" font-family="Inter, system-ui, sans-serif" font-weight="700" font-size="13" fill="#a5b4fc">OnFi</text>

    <!-- Row 1 -->
    <text x="20" y="122" font-family="Inter, system-ui, sans-serif" font-weight="400" font-size="11" fill="#6e7681" letter-spacing="0.04em">ACCESS</text>
    <text x="107" y="140" text-anchor="middle" font-family="Inter, system-ui, sans-serif" font-weight="500" font-size="14" fill="#8b949e">Permissionless</text>
    <text x="312" y="140" text-anchor="middle" font-family="Inter, system-ui, sans-serif" font-weight="600" font-size="14" fill="#a5b4fc">KYC/AML gated</text>
    <line x1="20" y1="152" x2="400" y2="152" stroke="rgba(255,255,255,0.04)" stroke-width="1"/>

    <!-- Row 2 -->
    <text x="20" y="172" font-family="Inter, system-ui, sans-serif" font-weight="400" font-size="11" fill="#6e7681" letter-spacing="0.04em">IDENTITY</text>
    <text x="107" y="190" text-anchor="middle" font-family="Inter, system-ui, sans-serif" font-weight="500" font-size="14" fill="#8b949e">Pseudonymous</text>
    <text x="312" y="190" text-anchor="middle" font-family="Inter, system-ui, sans-serif" font-weight="600" font-size="14" fill="#a5b4fc">Verified wallets</text>
    <line x1="20" y1="202" x2="400" y2="202" stroke="rgba(255,255,255,0.04)" stroke-width="1"/>

    <!-- Row 3 -->
    <text x="20" y="222" font-family="Inter, system-ui, sans-serif" font-weight="400" font-size="11" fill="#6e7681" letter-spacing="0.04em">ASSETS</text>
    <text x="107" y="240" text-anchor="middle" font-family="Inter, system-ui, sans-serif" font-weight="500" font-size="14" fill="#8b949e">Crypto native</text>
    <text x="312" y="240" text-anchor="middle" font-family="Inter, system-ui, sans-serif" font-weight="600" font-size="14" fill="#a5b4fc">Tokenized RWAs</text>
    <line x1="20" y1="252" x2="400" y2="252" stroke="rgba(255,255,255,0.04)" stroke-width="1"/>

    <!-- Row 4 -->
    <text x="20" y="272" font-family="Inter, system-ui, sans-serif" font-weight="400" font-size="11" fill="#6e7681" letter-spacing="0.04em">LENDING</text>
    <text x="107" y="290" text-anchor="middle" font-family="Inter, system-ui, sans-serif" font-weight="500" font-size="14" fill="#8b949e">Overcollateral.</text>
    <text x="312" y="290" text-anchor="middle" font-family="Inter, system-ui, sans-serif" font-weight="600" font-size="14" fill="#a5b4fc">Undercollateral.</text>
    <line x1="20" y1="302" x2="400" y2="302" stroke="rgba(255,255,255,0.04)" stroke-width="1"/>

    <!-- Row 5 -->
    <text x="20" y="322" font-family="Inter, system-ui, sans-serif" font-weight="400" font-size="11" fill="#6e7681" letter-spacing="0.04em">COMPLIANCE</text>
    <text x="107" y="340" text-anchor="middle" font-family="Inter, system-ui, sans-serif" font-weight="500" font-size="14" fill="#8b949e">None</text>
    <text x="312" y="340" text-anchor="middle" font-family="Inter, system-ui, sans-serif" font-weight="600" font-size="14" fill="#22c55e">Built-in ✓</text>
    <line x1="20" y1="352" x2="400" y2="352" stroke="rgba(255,255,255,0.04)" stroke-width="1"/>

    <!-- Row 6 -->
    <text x="20" y="372" font-family="Inter, system-ui, sans-serif" font-weight="400" font-size="11" fill="#6e7681" letter-spacing="0.04em">USERS</text>
    <text x="107" y="390" text-anchor="middle" font-family="Inter, system-ui, sans-serif" font-weight="500" font-size="14" fill="#8b949e">Retail / anon</text>
    <text x="312" y="390" text-anchor="middle" font-family="Inter, system-ui, sans-serif" font-weight="600" font-size="14" fill="#a5b4fc">Institutions</text>
    <line x1="20" y1="402" x2="400" y2="402" stroke="rgba(255,255,255,0.04)" stroke-width="1"/>

    <!-- TVL bar visual at bottom of panel -->
    <text x="20" y="430" font-family="Inter, system-ui, sans-serif" font-weight="400" font-size="11" fill="#6e7681" letter-spacing="0.04em">INST. TVL GROWTH</text>
    <!-- Bar: $0 → $17B -->
    <rect x="20" y="442" width="380" height="8" rx="4" fill="rgba(255,255,255,0.06)"/>
    <rect x="20" y="442" width="270" height="8" rx="4" fill="url(#tvlBarGrad)"/>
    <text x="296" y="462" font-family="Inter, system-ui, sans-serif" font-weight="700" font-size="13" fill="#06b6d4">$17B</text>

    <!-- Y axis labels -->
    <text x="20" y="478" font-family="Inter, system-ui, sans-serif" font-weight="400" font-size="10" fill="#6e7681">$0</text>
    <text x="390" y="478" text-anchor="end" font-family="Inter, system-ui, sans-serif" font-weight="400" font-size="10" fill="#6e7681">$25B target</text>

    <!-- Bottom note -->
    <text x="210" y="500" text-anchor="middle" font-family="Inter, system-ui, sans-serif" font-weight="400" font-size="11" fill="#6e7681">BlackRock BUIDL · Maple Finance · Ondo · Centrifuge · Clearpool</text>
  </g>

  <!-- Bottom bar -->
  <rect x="0" y="590" width="1200" height="40" fill="rgba(255,255,255,0.02)"/>
  <rect x="0" y="589" width="1200" height="1" fill="rgba(255,255,255,0.06)"/>
  <text x="60" y="615" font-family="Inter, system-ui, sans-serif" font-weight="500" font-size="14" fill="#6e7681">degen0x.com/learn/onchain-finance-onfi-guide</text>
  <text x="1140" y="615" text-anchor="end" font-family="Inter, system-ui, sans-serif" font-weight="400" font-size="13" fill="#6e7681">2026</text>
</svg>
