<svg viewBox="0 0 56 56" xmlns="http://www.w3.org/2000/svg">
  <defs>
    <linearGradient id="aaveGrad" x1="0%" y1="0%" x2="100%" y2="100%">
      <stop offset="0%" style="stop-color:#D966FF;stop-opacity:1" />
      <stop offset="100%" style="stop-color:#B6509E;stop-opacity:1" />
    </linearGradient>
  </defs>
  <rect width="56" height="56" rx="8" fill="rgba(0,0,0,0.3)"/>
  <g transform="translate(28,28)">
    <path d="M -8,-4 Q -8,-10 -2,-10 Q 4,-10 4,-4 L 4,0 Q 4,2 2,2 L -4,2 Q -6,2 -6,0 Z M 2,-4 Q 2,-6 0,-6 Q -2,-6 -2,-4" fill="url(#aaveGrad)"/>
    <path d="M -8,4 Q -8,10 -2,10 Q 4,10 4,4 L 4,8 Q 4,10 2,10 L -4,10 Q -6,10 -6,8 Z M 2,4 Q 2,6 0,6 Q -2,6 -2,4" fill="url(#aaveGrad)"/>
  </g>
</svg>