<svg xmlns="http://www.w3.org/2000/svg" viewBox="0 0 1200 630" width="1200" height="630">
  <defs>
    <linearGradient id="bg2" x1="0%" y1="0%" x2="100%" y2="100%">
      <stop offset="0%" style="stop-color:#0f0f23"/>
      <stop offset="50%" style="stop-color:#1a0a2e"/>
      <stop offset="100%" style="stop-color:#0d0d1f"/>
    </linearGradient>
  </defs>

  <!-- Background -->
  <rect width="1200" height="630" fill="url(#bg2)"/>

  <!-- Decorative grid dots -->
  <g opacity="0.08">
    <circle cx="100" cy="100" r="2" fill="#8b5cf6"/>
    <circle cx="200" cy="100" r="2" fill="#8b5cf6"/>
    <circle cx="300" cy="100" r="2" fill="#8b5cf6"/>
    <circle cx="100" cy="200" r="2" fill="#8b5cf6"/>
    <circle cx="200" cy="200" r="2" fill="#8b5cf6"/>
    <circle cx="300" cy="200" r="2" fill="#8b5cf6"/>
  </g>

  <!-- Badge -->
  <rect x="40" y="30" width="260" height="32" rx="16" fill="#7c3aed" opacity="0.9"/>
  <text x="170" y="51" font-family="system-ui, -apple-system, sans-serif" font-size="13" font-weight="700" fill="white" text-anchor="middle" letter-spacing="2">AUTONOMOUS WORLDS</text>

  <!-- Title -->
  <text x="40" y="115" font-family="system-ui, -apple-system, sans-serif" font-size="44" font-weight="800" fill="white">Fully Onchain Gaming</text>
  <text x="40" y="158" font-family="system-ui, -apple-system, sans-serif" font-size="24" fill="#c4b5fd">State + Logic on-chain. No central servers.</text>

  <!-- Framework Cards -->
  <!-- MUD -->
  <rect x="40" y="195" width="360" height="130" rx="12" fill="#1e1b4b" stroke="#8b5cf6" stroke-width="1.5" opacity="0.9"/>
  <text x="60" y="225" font-family="system-ui, sans-serif" font-size="20" font-weight="700" fill="#c4b5fd">MUD</text>
  <text x="120" y="225" font-family="system-ui, sans-serif" font-size="14" fill="#64748b">by Lattice</text>
  <text x="60" y="252" font-family="system-ui, sans-serif" font-size="14" fill="#cbd5e1">EVM · Entity Component System</text>
  <text x="60" y="278" font-family="system-ui, sans-serif" font-size="13" fill="#94a3b8">Powers: Primodium, Sky Strife</text>
  <rect x="60" y="293" width="50" height="22" rx="4" fill="#8b5cf6" opacity="0.3"/>
  <text x="85" y="308" font-family="system-ui, sans-serif" font-size="11" font-weight="600" fill="#c4b5fd" text-anchor="middle">EVM</text>

  <!-- Dojo -->
  <rect x="420" y="195" width="360" height="130" rx="12" fill="#1e1b4b" stroke="#f59e0b" stroke-width="1.5" opacity="0.9"/>
  <text x="440" y="225" font-family="system-ui, sans-serif" font-size="20" font-weight="700" fill="#fcd34d">Dojo</text>
  <text x="500" y="225" font-family="system-ui, sans-serif" font-size="14" fill="#64748b">on Starknet</text>
  <text x="440" y="252" font-family="system-ui, sans-serif" font-size="14" fill="#cbd5e1">Cairo · ZK-provable game logic</text>
  <text x="440" y="278" font-family="system-ui, sans-serif" font-size="13" fill="#94a3b8">Powers: Eternum, Influence</text>
  <rect x="440" y="293" width="80" height="22" rx="4" fill="#f59e0b" opacity="0.3"/>
  <text x="480" y="308" font-family="system-ui, sans-serif" font-size="11" font-weight="600" fill="#fcd34d" text-anchor="middle">STARKNET</text>

  <!-- World Engine -->
  <rect x="800" y="195" width="360" height="130" rx="12" fill="#1e1b4b" stroke="#22c55e" stroke-width="1.5" opacity="0.9"/>
  <text x="820" y="225" font-family="system-ui, sans-serif" font-size="20" font-weight="700" fill="#86efac">World Engine</text>
  <text x="980" y="225" font-family="system-ui, sans-serif" font-size="14" fill="#64748b">by Argus Labs</text>
  <text x="820" y="252" font-family="system-ui, sans-serif" font-size="14" fill="#cbd5e1">Sharded rollups · 1000+ TPS</text>
  <text x="820" y="278" font-family="system-ui, sans-serif" font-size="13" fill="#94a3b8">Sub-100ms blocks</text>
  <rect x="820" y="293" width="100" height="22" rx="4" fill="#22c55e" opacity="0.3"/>
  <text x="870" y="308" font-family="system-ui, sans-serif" font-size="11" font-weight="600" fill="#86efac" text-anchor="middle">SHARDED</text>

  <!-- Stats row -->
  <rect x="40" y="360" width="280" height="95" rx="10" fill="#1e1b4b" opacity="0.7"/>
  <text x="60" y="390" font-family="system-ui, sans-serif" font-size="13" fill="#94a3b8">Projected Market (2027)</text>
  <text x="60" y="425" font-family="system-ui, sans-serif" font-size="36" font-weight="800" fill="#4ade80">$65B</text>

  <rect x="340" y="360" width="280" height="95" rx="10" fill="#1e1b4b" opacity="0.7"/>
  <text x="360" y="390" font-family="system-ui, sans-serif" font-size="13" fill="#94a3b8">CCP Games (EVE Frontier)</text>
  <text x="360" y="425" font-family="system-ui, sans-serif" font-size="36" font-weight="800" fill="#f59e0b">$40M</text>

  <rect x="640" y="360" width="280" height="95" rx="10" fill="#1e1b4b" opacity="0.7"/>
  <text x="660" y="390" font-family="system-ui, sans-serif" font-size="13" fill="#94a3b8">World Engine TPS</text>
  <text x="660" y="425" font-family="system-ui, sans-serif" font-size="36" font-weight="800" fill="#8b5cf6">1,000+</text>

  <rect x="940" y="360" width="220" height="95" rx="10" fill="#1e1b4b" opacity="0.7"/>
  <text x="960" y="390" font-family="system-ui, sans-serif" font-size="13" fill="#94a3b8">Block Time</text>
  <text x="960" y="425" font-family="system-ui, sans-serif" font-size="28" font-weight="800" fill="#06b6d4">&lt;100ms</text>

  <!-- Key games -->
  <text x="40" y="500" font-family="system-ui, sans-serif" font-size="14" font-weight="600" fill="#64748b" letter-spacing="1">NOTABLE GAMES</text>
  <g>
    <rect x="40" y="515" width="140" height="30" rx="6" fill="#8b5cf6" opacity="0.2"/>
    <text x="110" y="535" font-family="system-ui, sans-serif" font-size="13" fill="#c4b5fd" text-anchor="middle">Dark Forest</text>
    <rect x="195" y="515" width="130" height="30" rx="6" fill="#8b5cf6" opacity="0.2"/>
    <text x="260" y="535" font-family="system-ui, sans-serif" font-size="13" fill="#c4b5fd" text-anchor="middle">Primodium</text>
    <rect x="340" y="515" width="120" height="30" rx="6" fill="#f59e0b" opacity="0.2"/>
    <text x="400" y="535" font-family="system-ui, sans-serif" font-size="13" fill="#fcd34d" text-anchor="middle">Eternum</text>
    <rect x="475" y="515" width="150" height="30" rx="6" fill="#22c55e" opacity="0.2"/>
    <text x="550" y="535" font-family="system-ui, sans-serif" font-size="13" fill="#86efac" text-anchor="middle">Dark Frontier</text>
    <rect x="640" y="515" width="150" height="30" rx="6" fill="#06b6d4" opacity="0.2"/>
    <text x="715" y="535" font-family="system-ui, sans-serif" font-size="13" fill="#67e8f9" text-anchor="middle">EVE Frontier</text>
  </g>

  <!-- Footer -->
  <rect x="0" y="580" width="1200" height="50" fill="#0a0a1a" opacity="0.8"/>
  <text x="40" y="610" font-family="system-ui, sans-serif" font-size="16" font-weight="700" fill="white">degen0x</text>
  <text x="120" y="610" font-family="system-ui, sans-serif" font-size="14" fill="#64748b">degen0x.com/learn/fully-onchain-gaming-autonomous-worlds-guide-2026</text>
  <text x="1160" y="610" font-family="system-ui, sans-serif" font-size="12" fill="#475569" text-anchor="end">March 2026</text>
</svg>