<svg width="1200" height="630" viewBox="0 0 1200 630" xmlns="http://www.w3.org/2000/svg">
  <defs>
    <linearGradient id="bgGrad" x1="0%" y1="0%" x2="100%" y2="100%">
      <stop offset="0%" style="stop-color:#080d1c;stop-opacity:1"/>
      <stop offset="100%" style="stop-color:#0f1729;stop-opacity:1"/>
    </linearGradient>
    <linearGradient id="accentGrad" x1="0%" y1="0%" x2="100%" y2="0%">
      <stop offset="0%" style="stop-color:#4f46e5;stop-opacity:1"/>
      <stop offset="50%" style="stop-color:#0891b2;stop-opacity:1"/>
      <stop offset="100%" style="stop-color:#d97706;stop-opacity:1"/>
    </linearGradient>
    <linearGradient id="badgeGrad" x1="0%" y1="0%" x2="100%" y2="0%">
      <stop offset="0%" style="stop-color:#6366f1;stop-opacity:1"/>
      <stop offset="100%" style="stop-color:#818cf8;stop-opacity:1"/>
    </linearGradient>
    <linearGradient id="shieldGrad" x1="0%" y1="0%" x2="0%" y2="100%">
      <stop offset="0%" style="stop-color:#6366f1;stop-opacity:0.3"/>
      <stop offset="100%" style="stop-color:#06b6d4;stop-opacity:0.1"/>
    </linearGradient>
    <filter id="glow">
      <feGaussianBlur stdDeviation="3" result="coloredBlur"/>
      <feMerge>
        <feMergeNode in="coloredBlur"/>
        <feMergeNode in="SourceGraphic"/>
      </feMerge>
    </filter>
    <filter id="softGlow">
      <feGaussianBlur stdDeviation="20" result="coloredBlur"/>
      <feMerge>
        <feMergeNode in="coloredBlur"/>
        <feMergeNode in="SourceGraphic"/>
      </feMerge>
    </filter>
  </defs>

  <!-- Background -->
  <rect width="1200" height="630" fill="url(#bgGrad)"/>

  <!-- Top accent bar -->
  <rect x="0" y="0" width="1200" height="4" fill="url(#accentGrad)"/>

  <!-- Decorative background elements -->
  <circle cx="950" cy="200" r="180" fill="#6366f1" opacity="0.04" filter="url(#softGlow)"/>
  <circle cx="200" cy="500" r="120" fill="#06b6d4" opacity="0.03" filter="url(#softGlow)"/>

  <!-- Shield pattern background -->
  <path d="M900 80 L960 110 L960 170 C960 220 930 260 900 280 C870 260 840 220 840 170 L840 110 Z" fill="url(#shieldGrad)" stroke="rgba(99,102,241,0.2)" stroke-width="1.5"/>
  <path d="M1020 180 L1060 200 L1060 240 C1060 270 1040 295 1020 310 C1000 295 980 270 980 240 L980 200 Z" fill="url(#shieldGrad)" stroke="rgba(6,182,212,0.15)" stroke-width="1"/>
  <path d="M850 350 L880 365 L880 395 C880 415 865 435 850 445 C835 435 820 415 820 395 L820 365 Z" fill="url(#shieldGrad)" stroke="rgba(99,102,241,0.12)" stroke-width="1"/>

  <!-- Lock icon decorative -->
  <g transform="translate(1000, 320)" opacity="0.15">
    <rect x="-15" y="0" width="30" height="24" rx="4" fill="none" stroke="#6366f1" stroke-width="2"/>
    <path d="M-8 0 L-8 -10 C-8 -18 8 -18 8 -10 L8 0" fill="none" stroke="#6366f1" stroke-width="2"/>
    <circle cx="0" cy="10" r="3" fill="#6366f1"/>
  </g>

  <!-- Grid pattern -->
  <g opacity="0.03">
    <line x1="0" y1="100" x2="1200" y2="100" stroke="#6366f1" stroke-width="0.5"/>
    <line x1="0" y1="200" x2="1200" y2="200" stroke="#6366f1" stroke-width="0.5"/>
    <line x1="0" y1="300" x2="1200" y2="300" stroke="#6366f1" stroke-width="0.5"/>
    <line x1="0" y1="400" x2="1200" y2="400" stroke="#6366f1" stroke-width="0.5"/>
    <line x1="0" y1="500" x2="1200" y2="500" stroke="#6366f1" stroke-width="0.5"/>
    <line x1="200" y1="0" x2="200" y2="630" stroke="#6366f1" stroke-width="0.5"/>
    <line x1="400" y1="0" x2="400" y2="630" stroke="#6366f1" stroke-width="0.5"/>
    <line x1="600" y1="0" x2="600" y2="630" stroke="#6366f1" stroke-width="0.5"/>
    <line x1="800" y1="0" x2="800" y2="630" stroke="#6366f1" stroke-width="0.5"/>
    <line x1="1000" y1="0" x2="1000" y2="630" stroke="#6366f1" stroke-width="0.5"/>
  </g>

  <!-- NEW GUIDE badge -->
  <rect x="60" y="60" width="140" height="32" rx="16" fill="url(#badgeGrad)"/>
  <text x="130" y="81" font-family="Inter, system-ui, sans-serif" font-size="13" font-weight="700" fill="#ffffff" text-anchor="middle" letter-spacing="1.5">NEW GUIDE</text>

  <!-- Title -->
  <text x="60" y="155" font-family="Inter, system-ui, sans-serif" font-size="48" font-weight="800" fill="#e6edf3" letter-spacing="-0.02em">Crypto Custody</text>
  <text x="60" y="210" font-family="Inter, system-ui, sans-serif" font-size="48" font-weight="800" fill="#e6edf3" letter-spacing="-0.02em">Guide 2026</text>

  <!-- Subtitle -->
  <text x="60" y="255" font-family="Inter, system-ui, sans-serif" font-size="20" fill="#8b949e" font-weight="400">MPC vs Multisig vs Cold Storage — Which protects your funds?</text>

  <!-- Stat boxes -->
  <!-- Box 1: Market Size -->
  <rect x="60" y="300" width="230" height="90" rx="12" fill="rgba(255,255,255,0.04)" stroke="rgba(255,255,255,0.08)" stroke-width="1"/>
  <text x="175" y="340" font-family="Inter, system-ui, sans-serif" font-size="28" font-weight="800" fill="#6366f1" text-anchor="middle" filter="url(#glow)">$3.69B</text>
  <text x="175" y="370" font-family="Inter, system-ui, sans-serif" font-size="13" fill="#8b949e" text-anchor="middle">Custody Market 2026</text>

  <!-- Box 2: Top Providers -->
  <rect x="310" y="300" width="230" height="90" rx="12" fill="rgba(255,255,255,0.04)" stroke="rgba(255,255,255,0.08)" stroke-width="1"/>
  <text x="425" y="340" font-family="Inter, system-ui, sans-serif" font-size="28" font-weight="800" fill="#06b6d4" text-anchor="middle" filter="url(#glow)">5 Providers</text>
  <text x="425" y="370" font-family="Inter, system-ui, sans-serif" font-size="13" fill="#8b949e" text-anchor="middle">Head-to-Head Compared</text>

  <!-- Box 3: Strategy -->
  <rect x="560" y="300" width="230" height="90" rx="12" fill="rgba(255,255,255,0.04)" stroke="rgba(255,255,255,0.08)" stroke-width="1"/>
  <text x="675" y="340" font-family="Inter, system-ui, sans-serif" font-size="28" font-weight="800" fill="#f59e0b" text-anchor="middle" filter="url(#glow)">3-Tier</text>
  <text x="675" y="370" font-family="Inter, system-ui, sans-serif" font-size="13" fill="#8b949e" text-anchor="middle">Custody Strategy Builder</text>

  <!-- Comparison visual: MPC / Multisig / Cold -->
  <g transform="translate(60, 420)">
    <rect width="170" height="50" rx="8" fill="rgba(99,102,241,0.15)" stroke="rgba(99,102,241,0.3)" stroke-width="1"/>
    <text x="85" y="30" font-family="Inter, system-ui, sans-serif" font-size="16" font-weight="700" fill="#818cf8" text-anchor="middle">MPC Wallets</text>
  </g>
  <g transform="translate(250, 420)">
    <rect width="170" height="50" rx="8" fill="rgba(6,182,212,0.15)" stroke="rgba(6,182,212,0.3)" stroke-width="1"/>
    <text x="85" y="30" font-family="Inter, system-ui, sans-serif" font-size="16" font-weight="700" fill="#22d3ee" text-anchor="middle">Multisig</text>
  </g>
  <g transform="translate(440, 420)">
    <rect width="170" height="50" rx="8" fill="rgba(245,158,11,0.15)" stroke="rgba(245,158,11,0.3)" stroke-width="1"/>
    <text x="85" y="30" font-family="Inter, system-ui, sans-serif" font-size="16" font-weight="700" fill="#fbbf24" text-anchor="middle">Cold Storage</text>
  </g>

  <!-- Connecting lines -->
  <line x1="230" y1="445" x2="250" y2="445" stroke="rgba(255,255,255,0.15)" stroke-width="1" stroke-dasharray="4,4"/>
  <line x1="420" y1="445" x2="440" y2="445" stroke="rgba(255,255,255,0.15)" stroke-width="1" stroke-dasharray="4,4"/>

  <!-- Bottom bar -->
  <rect x="0" y="560" width="1200" height="70" fill="rgba(0,0,0,0.3)"/>
  <rect x="0" y="560" width="1200" height="1" fill="rgba(255,255,255,0.06)"/>

  <!-- degen0x branding -->
  <text x="60" y="602" font-family="Inter, system-ui, sans-serif" font-size="22" font-weight="800" fill="#6366f1" letter-spacing="-0.02em">degen</text>
  <text x="138" y="602" font-family="Inter, system-ui, sans-serif" font-size="22" font-weight="800" fill="#8b949e" letter-spacing="-0.02em">0x</text>
  <text x="170" y="602" font-family="Inter, system-ui, sans-serif" font-size="16" fill="#6e7681">.com</text>

  <!-- URL -->
  <text x="1140" y="600" font-family="Inter, system-ui, sans-serif" font-size="14" fill="#6e7681" text-anchor="end">degen0x.com/learn/crypto-custody-guide-2026</text>
</svg>
